SplineFontDB: 3.2
FontName: KoreeneSans-SemiBold
FullName: Koreene Sans SemiBold
FamilyName: Koreene Sans SemiBold
Weight: Demi
Copyright: (C) Copyright HanYang I&C Co.,Ltd. All rights reserved.
Version: 2.50; ttfautohint (v1.8.4.7-5d5b-dirty)
ItalicAngle: 0
UnderlinePosition: -122
UnderlineWidth: 45
Ascent: 819
Descent: 205
InvalidEm: 0
sfntRevision: 0x00020147
LayerCount: 2
Layer: 0 1 "Back" 1
Layer: 1 1 "Fore" 0
XUID: [1021 531 -1996577725 6566693]
StyleMap: 0x0040
FSType: 0
OS2Version: 4
OS2_WeightWidthSlopeOnly: 0
OS2_UseTypoMetrics: 1
CreationTime: 1068260456
ModificationTime: 1702473892
PfmFamily: 81
TTFWeight: 600
TTFWidth: 5
LineGap: 256
VLineGap: 0
Panose: 0 0 0 0 0 0 0 0 0 0
OS2TypoAscent: 970
OS2TypoAOffset: 0
OS2TypoDescent: -235
OS2TypoDOffset: 0
OS2TypoLinegap: 256
OS2WinAscent: 1098
OS2WinAOffset: 0
OS2WinDescent: 363
OS2WinDOffset: 0
HheadAscent: 970
HheadAOffset: 0
HheadDescent: -235
HheadDOffset: 0
OS2SubXSize: 205
OS2SubYSize: 205
OS2SubXOff: 0
OS2SubYOff: 287
OS2SupXSize: 205
OS2SupYSize: 205
OS2SupXOff: 0
OS2SupYOff: 963
OS2StrikeYSize: 102
OS2StrikeYPos: 512
OS2CapHeight: 735
OS2XHeight: 533
OS2Vendor: 'HY  '
OS2CodePages: 2000019f.00000000
OS2UnicodeRanges: e10002ff.4000001b.00000000.00000000
Lookup: 1 0 0 "'aalt' Access All Alternates lookup 0" { "'aalt' Access All Alternates lookup 0 subtable"  } ['aalt' ('DFLT' <'dflt' > 'cyrl' <'dflt' > 'grek' <'dflt' > 'hang' <'dflt' > 'jamo' <'dflt' > 'latn' <'dflt' > ) ]
Lookup: 3 0 0 "'aalt' Access All Alternates lookup 1" { "'aalt' Access All Alternates lookup 1 subtable"  } ['aalt' ('DFLT' <'dflt' > 'cyrl' <'dflt' > 'grek' <'dflt' > 'hang' <'dflt' > 'jamo' <'dflt' > 'latn' <'dflt' > ) ]
Lookup: 1 0 0 "'locl' Localized Forms in Latin lookup 2" { "'locl' Localized Forms in Latin lookup 2 subtable"  } ['locl' ('latn' <'MOL ' > ) ]
Lookup: 1 0 0 "'locl' Localized Forms in Latin lookup 3" { "'locl' Localized Forms in Latin lookup 3 subtable"  } ['locl' ('latn' <'ROM ' > ) ]

StartChar: exclam
Encoding: 33 33 4
Width: 310
GlyphClass: 2
Flags: W
LayerCount: 2
Fore
SplineSet
82 -7 m 1,0,-1
 82 126 l 1,1,-1
 228 126 l 1,2,-1
 228 -7 l 1,3,-1
 82 -7 l 1,0,-1
205 207 m 1,4,-1
 106 207 l 1,5,-1
 96 739 l 1,6,-1
 214 739 l 1,7,-1
 205 207 l 1,4,-1
EndSplineSet
EndChar

StartChar: quotedbl
Encoding: 34 34 5
Width: 533
GlyphClass: 2
Flags: W
LayerCount: 2
Fore
SplineSet
283 523 m 1,0,-1
 370 819 l 1,1,-1
 497 819 l 1,2,-1
 368 523 l 1,3,-1
 283 523 l 1,0,-1
66 523 m 1,4,-1
 153 819 l 1,5,-1
 280 819 l 1,6,-1
 151 523 l 1,7,-1
 66 523 l 1,4,-1
EndSplineSet
EndChar

StartChar: numbersign
Encoding: 35 35 6
Width: 726
GlyphClass: 2
Flags: W
LayerCount: 2
Fore
SplineSet
49 189 m 1,0,-1
 49 271 l 1,1,-1
 173 271 l 1,2,-1
 197 445 l 1,3,-1
 80 445 l 1,4,-1
 80 525 l 1,5,-1
 207 525 l 1,6,-1
 232 713 l 1,7,-1
 327 713 l 1,8,-1
 303 525 l 1,9,-1
 468 525 l 1,10,-1
 494 713 l 1,11,-1
 589 713 l 1,12,-1
 564 525 l 1,13,-1
 677 525 l 1,14,-1
 677 445 l 1,15,-1
 553 445 l 1,16,-1
 532 271 l 1,17,-1
 646 271 l 1,18,-1
 646 189 l 1,19,-1
 520 189 l 1,20,-1
 496 2 l 1,21,-1
 398 2 l 1,22,-1
 424 189 l 1,23,-1
 259 189 l 1,24,-1
 234 2 l 1,25,-1
 137 2 l 1,26,-1
 163 189 l 1,27,-1
 49 189 l 1,0,-1
270 271 m 1,28,-1
 434 271 l 1,29,-1
 458 445 l 1,30,-1
 291 445 l 1,31,-1
 270 271 l 1,28,-1
EndSplineSet
EndChar

StartChar: dollar
Encoding: 36 36 7
Width: 584
GlyphClass: 2
Flags: W
LayerCount: 2
Fore
SplineSet
50 148 m 1,0,-1
 130 185 l 1,1,2
 158 140 158 140 202.5 114.5 c 128,-1,3
 247 89 247 89 297 89 c 0,4,5
 349 89 349 89 385 117 c 128,-1,6
 421 145 421 145 421 198 c 0,7,8
 421 219 421 219 413 237 c 128,-1,9
 405 255 405 255 393 267 c 128,-1,10
 381 279 381 279 358 292.5 c 128,-1,11
 335 306 335 306 316 314.5 c 128,-1,12
 297 323 297 323 262 337.5 c 128,-1,13
 227 352 227 352 203 363 c 0,14,15
 135 395 135 395 103.5 438.5 c 128,-1,16
 72 482 72 482 72 545 c 0,17,18
 72 607 72 607 117 662 c 128,-1,19
 162 717 162 717 246 729 c 1,20,-1
 246 811 l 1,21,-1
 344 811 l 1,22,-1
 344 727 l 1,23,24
 398 724 398 724 447 685.5 c 128,-1,25
 496 647 496 647 515 603 c 1,26,-1
 434 565 l 1,27,28
 380 645 380 645 294 645 c 0,29,30
 242 645 242 645 210.5 616 c 128,-1,31
 179 587 179 587 179 544 c 0,32,33
 179 531 179 531 181.5 520 c 128,-1,34
 184 509 184 509 190 499 c 128,-1,35
 196 489 196 489 201.5 482 c 128,-1,36
 207 475 207 475 220 466.5 c 128,-1,37
 233 458 233 458 241 452.5 c 128,-1,38
 249 447 249 447 267.5 438.5 c 128,-1,39
 286 430 286 430 296 426 c 128,-1,40
 306 422 306 422 330 412.5 c 128,-1,41
 354 403 354 403 367 397 c 0,42,43
 401 383 401 383 426 368.5 c 128,-1,44
 451 354 451 354 476.5 331 c 128,-1,45
 502 308 502 308 516 277 c 128,-1,46
 530 246 530 246 530 207 c 0,47,48
 530 123 530 123 478.5 69.5 c 128,-1,49
 427 16 427 16 344 4 c 1,50,-1
 344 -73 l 1,51,-1
 246 -73 l 1,52,-1
 246 6 l 1,53,54
 189 10 189 10 133.5 50.5 c 128,-1,55
 78 91 78 91 50 148 c 1,0,-1
EndSplineSet
EndChar

StartChar: percent
Encoding: 37 37 8
Width: 991
GlyphClass: 2
Flags: W
LayerCount: 2
Fore
SplineSet
535 166 m 256,0,1
 535 246 535 246 590 298 c 128,-1,2
 645 350 645 350 731 350 c 256,3,4
 817 350 817 350 872 298 c 128,-1,5
 927 246 927 246 927 166 c 0,6,7
 927 85 927 85 871.5 34 c 128,-1,8
 816 -17 816 -17 731 -17 c 256,9,10
 646 -17 646 -17 590.5 34.5 c 128,-1,11
 535 86 535 86 535 166 c 256,0,1
635 166 m 0,12,13
 635 118 635 118 663 90.5 c 128,-1,14
 691 63 691 63 731 63 c 0,15,16
 772 63 772 63 800.5 91 c 128,-1,17
 829 119 829 119 829 166 c 0,18,19
 829 214 829 214 801 242 c 128,-1,20
 773 270 773 270 731 270 c 0,21,22
 691 270 691 270 663 241.5 c 128,-1,23
 635 213 635 213 635 166 c 0,12,13
65 568 m 256,24,25
 65 648 65 648 120 700 c 128,-1,26
 175 752 175 752 261 752 c 256,27,28
 347 752 347 752 402 700 c 128,-1,29
 457 648 457 648 457 568 c 0,30,31
 457 487 457 487 401.5 436.5 c 128,-1,32
 346 386 346 386 261 386 c 256,33,34
 176 386 176 386 120.5 437 c 128,-1,35
 65 488 65 488 65 568 c 256,24,25
164 568 m 0,36,37
 164 520 164 520 192.5 492.5 c 128,-1,38
 221 465 221 465 261 465 c 0,39,40
 302 465 302 465 330 493.5 c 128,-1,41
 358 522 358 522 358 568 c 0,42,43
 358 616 358 616 330 644.5 c 128,-1,44
 302 673 302 673 261 673 c 256,45,46
 220 673 220 673 192 644 c 128,-1,47
 164 615 164 615 164 568 c 0,36,37
182 -4 m 1,48,-1
 703 739 l 1,49,-1
 811 739 l 1,50,-1
 288 -4 l 1,51,-1
 182 -4 l 1,48,-1
EndSplineSet
EndChar

StartChar: ampersand
Encoding: 38 38 9
Width: 665
GlyphClass: 2
Flags: W
LayerCount: 2
Fore
SplineSet
158 193 m 0,0,1
 158 137 158 137 194.5 104.5 c 128,-1,2
 231 72 231 72 288 72 c 0,3,4
 363 72 363 72 427 142 c 1,5,-1
 263 359 l 1,6,7
 158 282 158 282 158 193 c 0,0,1
50 191 m 0,8,9
 50 330 50 330 210 433 c 1,10,11
 184 469 184 469 175 482.5 c 128,-1,12
 166 496 166 496 154.5 523.5 c 128,-1,13
 143 551 143 551 143 579 c 0,14,15
 143 649 143 649 194 694 c 128,-1,16
 245 739 245 739 333 739 c 0,17,18
 408 739 408 739 459.5 701.5 c 128,-1,19
 511 664 511 664 536 605 c 1,20,-1
 458 571 l 1,21,22
 440 604 440 604 409.5 627.5 c 128,-1,23
 379 651 379 651 341 651 c 0,24,25
 299 651 299 651 275 629.5 c 128,-1,26
 251 608 251 608 251 575 c 0,27,28
 251 558 251 558 261.5 534 c 128,-1,29
 272 510 272 510 307 460.5 c 128,-1,30
 342 411 342 411 364 382 c 128,-1,31
 386 353 386 353 449 271 c 0,32,33
 470 244 470 244 481 230 c 1,34,35
 503 280 503 280 516 356 c 1,36,-1
 612 339 l 1,37,38
 596 233 596 233 546 145 c 1,39,-1
 659 0 l 1,40,-1
 533 0 l 1,41,-1
 484 63 l 1,42,43
 404 -17 404 -17 287 -17 c 0,44,45
 175 -17 175 -17 112.5 43 c 128,-1,46
 50 103 50 103 50 191 c 0,8,9
EndSplineSet
EndChar

StartChar: quotesingle
Encoding: 39 39 10
Width: 331
GlyphClass: 2
Flags: W
LayerCount: 2
Fore
SplineSet
80 523 m 1,0,-1
 167 819 l 1,1,-1
 294 819 l 1,2,-1
 166 523 l 1,3,-1
 80 523 l 1,0,-1
EndSplineSet
EndChar

StartChar: parenleft
Encoding: 40 40 11
Width: 444
GlyphClass: 2
Flags: W
LayerCount: 2
Fore
SplineSet
133 353 m 0,0,1
 133 631 133 631 304 851 c 1,2,-1
 380 808 l 1,3,4
 318 707 318 707 296 656 c 0,5,6
 237 523 237 523 237 353 c 0,7,8
 237 250 237 250 259.5 161 c 128,-1,9
 282 72 282 72 308.5 19.5 c 128,-1,10
 335 -33 335 -33 380 -102 c 1,11,-1
 304 -146 l 1,12,13
 224 -38 224 -38 178.5 80.5 c 128,-1,14
 133 199 133 199 133 353 c 0,0,1
EndSplineSet
Substitution2: "'sups' Superscript lookup 5 subtable" uni207D
Substitution2: "'aalt' Access All Alternates lookup 0 subtable" uni207D
EndChar

StartChar: parenright
Encoding: 41 41 12
Width: 444
GlyphClass: 2
Flags: W
LayerCount: 2
Fore
SplineSet
64 -102 m 1,0,1
 137 8 137 8 171.5 112.5 c 128,-1,2
 206 217 206 217 206 353 c 0,3,4
 206 433 206 433 195 501 c 128,-1,5
 184 569 184 569 160.5 626 c 128,-1,6
 137 683 137 683 117 720 c 128,-1,7
 97 757 97 757 64 808 c 1,8,-1
 140 851 l 1,9,10
 310 628 310 628 310 353 c 0,11,12
 310 198 310 198 264.5 79.5 c 128,-1,13
 219 -39 219 -39 140 -146 c 1,14,-1
 64 -102 l 1,0,1
EndSplineSet
Substitution2: "'sups' Superscript lookup 5 subtable" uni207E
Substitution2: "'aalt' Access All Alternates lookup 0 subtable" uni207E
EndChar

StartChar: asterisk
Encoding: 42 42 13
Width: 557
GlyphClass: 2
Flags: W
LayerCount: 2
Fore
SplineSet
20 407 m 1,0,-1
 57 492 l 1,1,-1
 236 422 l 1,2,-1
 230 607 l 1,3,-1
 327 607 l 1,4,-1
 321 422 l 1,5,-1
 500 492 l 1,6,-1
 537 407 l 1,7,-1
 342 344 l 1,8,-1
 490 184 l 1,9,-1
 411 125 l 1,10,-1
 279 298 l 1,11,-1
 147 125 l 1,12,-1
 67 184 l 1,13,-1
 215 344 l 1,14,-1
 20 407 l 1,0,-1
EndSplineSet
EndChar

StartChar: plus
Encoding: 43 43 14
Width: 557
GlyphClass: 2
Flags: W
LayerCount: 2
Fore
SplineSet
26 317 m 1,0,-1
 26 409 l 1,1,-1
 226 409 l 1,2,-1
 226 609 l 1,3,-1
 330 609 l 1,4,-1
 330 409 l 1,5,-1
 530 409 l 1,6,-1
 530 317 l 1,7,-1
 330 317 l 1,8,-1
 330 110 l 1,9,-1
 226 110 l 1,10,-1
 226 317 l 1,11,-1
 26 317 l 1,0,-1
EndSplineSet
Substitution2: "'sups' Superscript lookup 5 subtable" uni207A
Substitution2: "'aalt' Access All Alternates lookup 0 subtable" uni207A
EndChar

StartChar: comma
Encoding: 44 44 15
Width: 275
GlyphClass: 2
Flags: W
LayerCount: 2
Fore
SplineSet
7 -161 m 1,0,-1
 94 135 l 1,1,-1
 220 135 l 1,2,-1
 92 -161 l 1,3,-1
 7 -161 l 1,0,-1
EndSplineSet
EndChar

StartChar: hyphen
Encoding: 45 45 16
Width: 390
GlyphClass: 2
Flags: W
LayerCount: 2
Fore
SplineSet
33 317 m 1,0,-1
 33 409 l 1,1,-1
 357 409 l 1,2,-1
 357 317 l 1,3,-1
 33 317 l 1,0,-1
EndSplineSet
EndChar

StartChar: period
Encoding: 46 46 17
Width: 275
GlyphClass: 2
Flags: W
LayerCount: 2
Fore
SplineSet
65 0 m 1,0,-1
 65 135 l 1,1,-1
 211 135 l 1,2,-1
 211 0 l 1,3,-1
 65 0 l 1,0,-1
EndSplineSet
EndChar

StartChar: slash
Encoding: 47 47 18
Width: 364
GlyphClass: 2
Flags: W
LayerCount: 2
Fore
SplineSet
-14 -54 m 1,0,-1
 269 782 l 1,1,-1
 378 782 l 1,2,-1
 96 -54 l 1,3,-1
 -14 -54 l 1,0,-1
EndSplineSet
EndChar

StartChar: zero
Encoding: 48 48 19
Width: 550
GlyphClass: 2
Flags: W
LayerCount: 2
Fore
SplineSet
148 367 m 256,0,1
 148 281 148 281 159.5 217.5 c 128,-1,2
 171 154 171 154 201 113 c 128,-1,3
 231 72 231 72 276 72 c 0,4,5
 311 72 311 72 336 96 c 128,-1,6
 361 120 361 120 375 163.5 c 128,-1,7
 389 207 389 207 395 256.5 c 128,-1,8
 401 306 401 306 401 367 c 0,9,10
 401 429 401 429 394.5 481 c 128,-1,11
 388 533 388 533 373 575 c 128,-1,12
 358 617 358 617 333 640 c 128,-1,13
 308 663 308 663 274 663 c 0,14,15
 230 663 230 663 200.5 622 c 128,-1,16
 171 581 171 581 159.5 517 c 128,-1,17
 148 453 148 453 148 367 c 256,0,1
37 367 m 0,18,19
 37 474 37 474 57.5 552.5 c 128,-1,20
 78 631 78 631 114 672.5 c 128,-1,21
 150 714 150 714 190 733 c 128,-1,22
 230 752 230 752 274 752 c 0,23,24
 388 752 388 752 450 651.5 c 128,-1,25
 512 551 512 551 512 367 c 0,26,27
 512 192 512 192 452 87.5 c 128,-1,28
 392 -17 392 -17 276 -17 c 0,29,30
 232 -17 232 -17 192 2 c 128,-1,31
 152 21 152 21 116 62.5 c 128,-1,32
 80 104 80 104 58.5 182.5 c 128,-1,33
 37 261 37 261 37 367 c 0,18,19
EndSplineSet
EndChar

StartChar: one
Encoding: 49 49 20
Width: 550
GlyphClass: 2
Flags: W
LayerCount: 2
Fore
SplineSet
83 533 m 1,0,-1
 83 615 l 1,1,-1
 115 615 l 2,2,3
 264 615 264 615 264 722 c 2,4,-1
 264 742 l 1,5,-1
 357 742 l 1,6,-1
 357 -9 l 1,7,-1
 247 -9 l 1,8,-1
 247 533 l 1,9,-1
 83 533 l 1,0,-1
EndSplineSet
Substitution2: "'subs' Subscript lookup 6 subtable" uni2081
Substitution2: "'sups' Superscript lookup 5 subtable" onesuperior
Substitution2: "'sinf' Scientific Inferiors lookup 4 subtable" uni2081
AlternateSubs2: "'aalt' Access All Alternates lookup 1 subtable" uni2081 onesuperior
EndChar

StartChar: two
Encoding: 50 50 21
Width: 550
GlyphClass: 2
Flags: W
LayerCount: 2
Fore
SplineSet
41 559 m 1,0,1
 62 649 62 649 120.5 700.5 c 128,-1,2
 179 752 179 752 271 752 c 0,3,4
 369 752 369 752 431.5 696 c 128,-1,5
 494 640 494 640 494 543 c 0,6,7
 494 433 494 433 380 324 c 0,8,9
 370 315 370 315 336.5 283 c 128,-1,10
 303 251 303 251 293.5 241 c 128,-1,11
 284 231 284 231 259.5 206 c 128,-1,12
 235 181 235 181 225 166 c 128,-1,13
 215 151 215 151 201 130.5 c 128,-1,14
 187 110 187 110 178 89 c 1,15,-1
 492 89 l 1,16,-1
 492 0 l 1,17,-1
 47 0 l 1,18,19
 47 42 47 42 61.5 83.5 c 128,-1,20
 76 125 76 125 95 157 c 128,-1,21
 114 189 114 189 150 230 c 128,-1,22
 186 271 186 271 211 296.5 c 128,-1,23
 236 322 236 322 281 363 c 0,24,25
 291 373 291 373 296 377 c 0,26,27
 382 459 382 459 382 545 c 0,28,29
 382 601 382 601 351.5 632 c 128,-1,30
 321 663 321 663 270 663 c 0,31,32
 217 663 217 663 182.5 628 c 128,-1,33
 148 593 148 593 133 532 c 1,34,-1
 41 559 l 1,0,1
EndSplineSet
Substitution2: "'subs' Subscript lookup 6 subtable" uni2082
Substitution2: "'sups' Superscript lookup 5 subtable" twosuperior
Substitution2: "'sinf' Scientific Inferiors lookup 4 subtable" uni2082
AlternateSubs2: "'aalt' Access All Alternates lookup 1 subtable" uni2082 twosuperior
EndChar

StartChar: three
Encoding: 51 51 22
Width: 550
GlyphClass: 2
Flags: W
LayerCount: 2
Fore
SplineSet
27 142 m 1,0,-1
 114 174 l 1,1,2
 162 72 162 72 263 72 c 0,3,4
 321 72 321 72 360.5 107.5 c 128,-1,5
 400 143 400 143 400 208 c 0,6,7
 400 269 400 269 357 305 c 128,-1,8
 314 341 314 341 249 341 c 0,9,10
 221 341 221 341 184 338 c 1,11,-1
 184 426 l 1,12,13
 207 424 207 424 245 424 c 0,14,15
 299 424 299 424 335.5 457 c 128,-1,16
 372 490 372 490 372 548 c 0,17,18
 372 598 372 598 340 630.5 c 128,-1,19
 308 663 308 663 258 663 c 0,20,21
 173 663 173 663 133 556 c 1,22,-1
 44 584 l 1,23,24
 65 658 65 658 122 705 c 128,-1,25
 179 752 179 752 265 752 c 0,26,27
 365 752 365 752 424.5 697 c 128,-1,28
 484 642 484 642 484 558 c 0,29,30
 484 498 484 498 453.5 454 c 128,-1,31
 423 410 423 410 378 389 c 1,32,33
 432 372 432 372 472 326 c 128,-1,34
 512 280 512 280 512 208 c 0,35,36
 512 102 512 102 444 42.5 c 128,-1,37
 376 -17 376 -17 264 -17 c 0,38,39
 175 -17 175 -17 112.5 29 c 128,-1,40
 50 75 50 75 27 142 c 1,0,-1
EndSplineSet
Substitution2: "'subs' Subscript lookup 6 subtable" uni2083
Substitution2: "'sups' Superscript lookup 5 subtable" threesuperior
Substitution2: "'sinf' Scientific Inferiors lookup 4 subtable" uni2083
AlternateSubs2: "'aalt' Access All Alternates lookup 1 subtable" uni2083 threesuperior
EndChar

StartChar: four
Encoding: 52 52 23
Width: 550
GlyphClass: 2
Flags: W
LayerCount: 2
Fore
SplineSet
18 244 m 1,0,-1
 346 743 l 1,1,-1
 440 743 l 1,2,-1
 440 246 l 1,3,-1
 535 246 l 1,4,-1
 535 157 l 1,5,-1
 440 157 l 1,6,-1
 440 -8 l 1,7,-1
 332 -8 l 1,8,-1
 332 157 l 1,9,-1
 18 157 l 1,10,-1
 18 244 l 1,0,-1
121 246 m 1,11,-1
 332 246 l 1,12,-1
 332 477 l 2,13,14
 332 531 332 531 336 581 c 1,15,-1
 332 581 l 1,16,17
 321 562 321 562 300 528 c 128,-1,18
 279 494 279 494 276 489 c 2,19,-1
 121 246 l 1,11,-1
EndSplineSet
Substitution2: "'subs' Subscript lookup 6 subtable" uni2084
Substitution2: "'sups' Superscript lookup 5 subtable" uni2074
Substitution2: "'sinf' Scientific Inferiors lookup 4 subtable" uni2084
AlternateSubs2: "'aalt' Access All Alternates lookup 1 subtable" uni2084 uni2074
EndChar

StartChar: five
Encoding: 53 53 24
Width: 550
GlyphClass: 2
Flags: W
LayerCount: 2
Fore
SplineSet
36 131 m 1,0,-1
 126 164 l 1,1,2
 144 123 144 123 179 97.5 c 128,-1,3
 214 72 214 72 256 72 c 0,4,5
 319 72 319 72 355 114.5 c 128,-1,6
 391 157 391 157 391 226 c 0,7,8
 391 294 391 294 352.5 337.5 c 128,-1,9
 314 381 314 381 253 381 c 0,10,11
 181 381 181 381 127 314 c 1,12,-1
 59 341 l 1,13,-1
 97 735 l 1,14,-1
 461 735 l 1,15,-1
 461 646 l 1,16,-1
 197 646 l 1,17,-1
 173 434 l 1,18,19
 223 469 223 469 291 469 c 0,20,21
 385 469 385 469 444 404 c 128,-1,22
 503 339 503 339 503 228 c 0,23,24
 503 181 503 181 489 138.5 c 128,-1,25
 475 96 475 96 446.5 60.5 c 128,-1,26
 418 25 418 25 369.5 4 c 128,-1,27
 321 -17 321 -17 259 -17 c 0,28,29
 178 -17 178 -17 121.5 23 c 128,-1,30
 65 63 65 63 36 131 c 1,0,-1
EndSplineSet
EndChar

StartChar: six
Encoding: 54 54 25
Width: 550
GlyphClass: 2
Flags: W
LayerCount: 2
Fore
SplineSet
154 233 m 0,0,1
 154 160 154 160 189 116 c 128,-1,2
 224 72 224 72 281 72 c 0,3,4
 336 72 336 72 371.5 115.5 c 128,-1,5
 407 159 407 159 407 233 c 256,6,7
 407 307 407 307 371.5 350 c 128,-1,8
 336 393 336 393 280 393 c 0,9,10
 225 393 225 393 189.5 348.5 c 128,-1,11
 154 304 154 304 154 233 c 0,0,1
40 332 m 0,12,13
 40 415 40 415 55 488 c 128,-1,14
 70 561 70 561 100 621.5 c 128,-1,15
 130 682 130 682 182.5 717 c 128,-1,16
 235 752 235 752 304 752 c 0,17,18
 446 752 446 752 511 606 c 1,19,-1
 425 577 l 1,20,21
 379 663 379 663 305 663 c 0,22,23
 195 663 195 663 162 481 c 0,24,25
 152 437 152 437 149 396 c 1,26,27
 167 434 167 434 205.5 458 c 128,-1,28
 244 482 244 482 295 482 c 0,29,30
 392 482 392 482 454 411.5 c 128,-1,31
 516 341 516 341 516 234 c 0,32,33
 516 126 516 126 454 54.5 c 128,-1,34
 392 -17 392 -17 284 -17 c 0,35,36
 174 -17 174 -17 110 61 c 0,37,38
 40 147 40 147 40 332 c 0,12,13
EndSplineSet
EndChar

StartChar: seven
Encoding: 55 55 26
Width: 550
GlyphClass: 2
Flags: W
LayerCount: 2
Fore
SplineSet
38 643 m 1,0,-1
 38 735 l 1,1,-1
 501 735 l 1,2,-1
 501 661 l 1,3,4
 320 371 320 371 235 -8 c 1,5,-1
 124 -8 l 1,6,7
 189 318 189 318 375 643 c 1,8,-1
 38 643 l 1,0,-1
EndSplineSet
EndChar

StartChar: eight
Encoding: 56 56 27
Width: 550
GlyphClass: 2
Flags: W
LayerCount: 2
Fore
SplineSet
165 548 m 0,0,1
 165 496 165 496 197 463.5 c 128,-1,2
 229 431 229 431 275 431 c 0,3,4
 322 431 322 431 353 464 c 128,-1,5
 384 497 384 497 384 548 c 0,6,7
 384 597 384 597 353.5 630 c 128,-1,8
 323 663 323 663 275 663 c 0,9,10
 226 663 226 663 195.5 630 c 128,-1,11
 165 597 165 597 165 548 c 0,0,1
32 201 m 0,12,13
 32 275 32 275 71 322.5 c 128,-1,14
 110 370 110 370 163 390 c 1,15,16
 55 442 55 442 55 552 c 0,17,18
 55 638 55 638 117.5 695 c 128,-1,19
 180 752 180 752 275 752 c 256,20,21
 370 752 370 752 432.5 695 c 128,-1,22
 495 638 495 638 495 552 c 0,23,24
 495 493 495 493 464 452 c 128,-1,25
 433 411 433 411 386 390 c 1,26,27
 442 370 442 370 480.5 321.5 c 128,-1,28
 519 273 519 273 519 200 c 0,29,30
 519 103 519 103 451 43 c 128,-1,31
 383 -17 383 -17 275 -17 c 0,32,33
 173 -17 173 -17 102.5 41 c 128,-1,34
 32 99 32 99 32 201 c 0,12,13
143 206 m 0,35,36
 143 149 143 149 180 110.5 c 128,-1,37
 217 72 217 72 275 72 c 256,38,39
 333 72 333 72 370 110.5 c 128,-1,40
 407 149 407 149 407 206 c 256,41,42
 407 263 407 263 370 303 c 128,-1,43
 333 343 333 343 275 343 c 0,44,45
 218 343 218 343 180.5 303.5 c 128,-1,46
 143 264 143 264 143 206 c 0,35,36
EndSplineSet
EndChar

StartChar: nine
Encoding: 57 57 28
Width: 550
GlyphClass: 2
Flags: W
LayerCount: 2
Fore
SplineSet
142 504 m 0,0,1
 142 432 142 432 178 388.5 c 128,-1,2
 214 345 214 345 267 345 c 256,3,4
 320 345 320 345 355 389.5 c 128,-1,5
 390 434 390 434 390 504 c 0,6,7
 390 571 390 571 356 617 c 128,-1,8
 322 663 322 663 267 663 c 0,9,10
 213 663 213 663 177.5 618 c 128,-1,11
 142 573 142 573 142 504 c 0,0,1
34 130 m 1,12,-1
 123 159 l 1,13,14
 167 72 167 72 245 72 c 0,15,16
 286 72 286 72 316.5 94 c 128,-1,17
 347 116 347 116 363.5 156 c 128,-1,18
 380 196 380 196 388 240.5 c 128,-1,19
 396 285 396 285 397 337 c 1,20,21
 377 304 377 304 340 280 c 128,-1,22
 303 256 303 256 251 256 c 0,23,24
 161 256 161 256 97 323.5 c 128,-1,25
 33 391 33 391 33 503 c 0,26,27
 33 613 33 613 98.5 682.5 c 128,-1,28
 164 752 164 752 266 752 c 0,29,30
 352 752 352 752 411 697 c 128,-1,31
 470 642 470 642 490 553 c 0,32,33
 503 495 503 495 503 403 c 0,34,35
 503 203 503 203 439.5 93 c 128,-1,36
 376 -17 376 -17 243 -17 c 0,37,38
 168 -17 168 -17 112.5 27.5 c 128,-1,39
 57 72 57 72 34 130 c 1,12,-1
EndSplineSet
EndChar

StartChar: colon
Encoding: 58 58 29
Width: 275
GlyphClass: 2
Flags: W
LayerCount: 2
Fore
SplineSet
65 0 m 1,0,-1
 65 135 l 1,1,-1
 211 135 l 1,2,-1
 211 0 l 1,3,-1
 65 0 l 1,0,-1
65 392 m 1,4,-1
 65 528 l 1,5,-1
 211 528 l 1,6,-1
 211 392 l 1,7,-1
 65 392 l 1,4,-1
EndSplineSet
EndChar

StartChar: semicolon
Encoding: 59 59 30
Width: 275
GlyphClass: 2
Flags: W
LayerCount: 2
Fore
SplineSet
7 -161 m 1,0,-1
 94 135 l 1,1,-1
 220 135 l 1,2,-1
 92 -161 l 1,3,-1
 7 -161 l 1,0,-1
69 392 m 1,4,-1
 69 528 l 1,5,-1
 215 528 l 1,6,-1
 215 392 l 1,7,-1
 69 392 l 1,4,-1
EndSplineSet
EndChar

StartChar: less
Encoding: 60 60 31
Width: 557
GlyphClass: 2
Flags: W
LayerCount: 2
Fore
SplineSet
44 307 m 1,0,-1
 44 404 l 1,1,-1
 452 709 l 1,2,-1
 509 631 l 1,3,-1
 147 356 l 1,4,-1
 509 81 l 1,5,-1
 452 3 l 1,6,-1
 44 307 l 1,0,-1
EndSplineSet
EndChar

StartChar: equal
Encoding: 61 61 32
Width: 557
GlyphClass: 2
Flags: W
LayerCount: 2
Fore
SplineSet
47 217 m 1,0,-1
 47 308 l 1,1,-1
 510 308 l 1,2,-1
 510 217 l 1,3,-1
 47 217 l 1,0,-1
47 418 m 1,4,-1
 47 510 l 1,5,-1
 510 510 l 1,6,-1
 510 418 l 1,7,-1
 47 418 l 1,4,-1
EndSplineSet
Substitution2: "'sups' Superscript lookup 5 subtable" uni207C
Substitution2: "'aalt' Access All Alternates lookup 0 subtable" uni207C
EndChar

StartChar: greater
Encoding: 62 62 33
Width: 557
GlyphClass: 2
Flags: W
LayerCount: 2
Fore
SplineSet
104 3 m 1,0,-1
 48 81 l 1,1,-1
 410 356 l 1,2,-1
 48 631 l 1,3,-1
 104 709 l 1,4,-1
 514 404 l 1,5,-1
 514 307 l 1,6,-1
 104 3 l 1,0,-1
EndSplineSet
EndChar

StartChar: question
Encoding: 63 63 34
Width: 566
GlyphClass: 2
Flags: W
LayerCount: 2
Fore
SplineSet
61 582 m 1,0,1
 84 657 84 657 142.5 706 c 128,-1,2
 201 755 201 755 286 755 c 0,3,4
 382 755 382 755 441 698.5 c 128,-1,5
 500 642 500 642 500 550 c 0,6,7
 500 505 500 505 482.5 469 c 128,-1,8
 465 433 465 433 440 409 c 128,-1,9
 415 385 415 385 390 361.5 c 128,-1,10
 365 338 365 338 347.5 305 c 128,-1,11
 330 272 330 272 330 233 c 2,12,-1
 330 202 l 1,13,-1
 221 202 l 1,14,-1
 221 241 l 2,15,16
 221 281 221 281 233.5 314 c 128,-1,17
 246 347 246 347 265 368.5 c 128,-1,18
 284 390 284 390 305 412.5 c 128,-1,19
 326 435 326 435 345 453 c 128,-1,20
 364 471 364 471 376.5 497.5 c 128,-1,21
 389 524 389 524 389 553 c 0,22,23
 389 603 389 603 361.5 633 c 128,-1,24
 334 663 334 663 287 663 c 0,25,26
 200 663 200 663 156 551 c 1,27,-1
 61 582 l 1,0,1
202 -7 m 1,28,-1
 202 126 l 1,29,-1
 349 126 l 1,30,-1
 349 -7 l 1,31,-1
 202 -7 l 1,28,-1
EndSplineSet
EndChar

StartChar: at
Encoding: 64 64 35
Width: 937
GlyphClass: 2
Flags: W
LayerCount: 2
Fore
SplineSet
52 345 m 256,0,1
 52 531 52 531 173.5 649 c 128,-1,2
 295 767 295 767 488 767 c 0,3,4
 663 767 663 767 774.5 663 c 128,-1,5
 886 559 886 559 886 398 c 0,6,7
 886 323 886 323 867 266 c 128,-1,8
 848 209 848 209 817 177.5 c 128,-1,9
 786 146 786 146 751.5 130 c 128,-1,10
 717 114 717 114 681 114 c 0,11,12
 639 114 639 114 607.5 140.5 c 128,-1,13
 576 167 576 167 570 207 c 1,14,-1
 569 207 l 1,15,16
 555 172 555 172 516.5 143.5 c 128,-1,17
 478 115 478 115 428 115 c 0,18,19
 357 115 357 115 308 170 c 128,-1,20
 259 225 259 225 259 314 c 0,21,22
 259 433 259 433 320.5 501 c 128,-1,23
 382 569 382 569 467 569 c 0,24,25
 505 569 505 569 532 552 c 128,-1,26
 559 535 559 535 572 516 c 1,27,-1
 576 562 l 1,28,-1
 656 562 l 1,29,-1
 641 271 l 2,30,31
 641 266 641 266 641 261 c 0,32,33
 641 231 641 231 653 212.5 c 128,-1,34
 665 194 665 194 688 194 c 0,35,36
 731 194 731 194 762.5 247.5 c 128,-1,37
 794 301 794 301 794 393 c 0,38,39
 794 525 794 525 710.5 608 c 128,-1,40
 627 691 627 691 488 691 c 0,41,42
 338 691 338 691 241.5 593.5 c 128,-1,43
 145 496 145 496 145 345 c 0,44,45
 145 186 145 186 237.5 94 c 128,-1,46
 330 2 330 2 478 2 c 0,47,48
 586 2 586 2 689 31 c 1,49,-1
 706 -40 l 1,50,51
 605 -75 605 -75 478 -75 c 0,52,53
 284 -75 284 -75 168 42 c 128,-1,54
 52 159 52 159 52 345 c 256,0,1
358 315 m 0,55,56
 358 267 358 267 380.5 233.5 c 128,-1,57
 403 200 403 200 441 200 c 0,58,59
 484 200 484 200 520.5 246 c 128,-1,60
 557 292 557 292 557 398 c 0,61,62
 557 438 557 438 536.5 464.5 c 128,-1,63
 516 491 516 491 475 491 c 0,64,65
 430 491 430 491 394 442.5 c 128,-1,66
 358 394 358 394 358 315 c 0,55,56
EndSplineSet
EndChar

StartChar: A
Encoding: 65 65 36
Width: 651
GlyphClass: 2
Flags: W
LayerCount: 2
Fore
SplineSet
206 279 m 1,0,-1
 445 279 l 1,1,-1
 375 487 l 2,2,3
 369 504 369 504 352.5 555.5 c 128,-1,4
 336 607 336 607 328 632 c 1,5,-1
 323 632 l 1,6,7
 311 595 311 595 277 487 c 2,8,-1
 206 279 l 1,0,-1
-4 0 m 1,9,-1
 265 735 l 1,10,-1
 387 735 l 1,11,-1
 656 0 l 1,12,-1
 539 0 l 1,13,-1
 474 192 l 1,14,-1
 178 192 l 1,15,-1
 113 0 l 1,16,-1
 -4 0 l 1,9,-1
EndSplineSet
Substitution2: "Single Substitution lookup 12 subtable" ordfeminine
EndChar

StartChar: B
Encoding: 66 66 37
Width: 664
GlyphClass: 2
Flags: W
LayerCount: 2
Fore
SplineSet
89 0 m 1,0,-1
 89 735 l 1,1,-1
 365 735 l 2,2,3
 480 735 480 735 537 683.5 c 128,-1,4
 594 632 594 632 594 543 c 0,5,6
 594 435 594 435 498 388 c 1,7,8
 549 371 549 371 585 324.5 c 128,-1,9
 621 278 621 278 621 211 c 0,10,11
 621 122 621 122 562.5 61 c 128,-1,12
 504 0 504 0 401 0 c 2,13,-1
 89 0 l 1,0,-1
197 93 m 1,14,-1
 380 93 l 2,15,16
 434 93 434 93 471.5 123.5 c 128,-1,17
 509 154 509 154 509 210 c 0,18,19
 509 262 509 262 474 297.5 c 128,-1,20
 439 333 439 333 377 333 c 2,21,-1
 197 333 l 1,22,-1
 197 93 l 1,14,-1
197 424 m 1,23,-1
 353 424 l 2,24,25
 410 424 410 424 446 452 c 128,-1,26
 482 480 482 480 482 534 c 0,27,28
 482 584 482 584 452 613 c 128,-1,29
 422 642 422 642 357 642 c 2,30,-1
 197 642 l 1,31,-1
 197 424 l 1,23,-1
EndSplineSet
EndChar

StartChar: C
Encoding: 67 67 38
Width: 658
GlyphClass: 2
Flags: W
LayerCount: 2
Fore
SplineSet
43 367 m 0,0,1
 43 545 43 545 132.5 648.5 c 128,-1,2
 222 752 222 752 365 752 c 0,3,4
 457 752 457 752 521.5 702 c 128,-1,5
 586 652 586 652 617 580 c 1,6,-1
 524 549 l 1,7,8
 462 659 462 659 363 659 c 0,9,10
 268 659 268 659 211 579 c 128,-1,11
 154 499 154 499 154 367 c 0,12,13
 154 233 154 233 212 154.5 c 128,-1,14
 270 76 270 76 363 76 c 0,15,16
 425 76 425 76 470.5 112 c 128,-1,17
 516 148 516 148 538 200 c 1,18,-1
 636 169 l 1,19,20
 621 135 621 135 599.5 105.5 c 128,-1,21
 578 76 578 76 546 46.5 c 128,-1,22
 514 17 514 17 467 0 c 128,-1,23
 420 -17 420 -17 365 -17 c 0,24,25
 225 -17 225 -17 134 85 c 128,-1,26
 43 187 43 187 43 367 c 0,0,1
EndSplineSet
EndChar

StartChar: D
Encoding: 68 68 39
Width: 686
GlyphClass: 2
Flags: W
LayerCount: 2
Fore
SplineSet
89 0 m 1,0,-1
 89 735 l 1,1,-1
 301 735 l 2,2,3
 465 735 465 735 555.5 640.5 c 128,-1,4
 646 546 646 546 646 367 c 0,5,6
 646 288 646 288 626 223.5 c 128,-1,7
 606 159 606 159 566 108 c 128,-1,8
 526 57 526 57 458 28.5 c 128,-1,9
 390 0 390 0 299 0 c 2,10,-1
 89 0 l 1,0,-1
197 92 m 1,11,-1
 287 92 l 2,12,13
 533 92 533 92 533 367 c 0,14,15
 533 643 533 643 288 643 c 2,16,-1
 197 643 l 1,17,-1
 197 92 l 1,11,-1
EndSplineSet
EndChar

StartChar: E
Encoding: 69 69 40
Width: 605
GlyphClass: 2
Flags: W
LayerCount: 2
Fore
SplineSet
89 0 m 1,0,-1
 89 735 l 1,1,-1
 564 735 l 1,2,-1
 564 642 l 1,3,-1
 197 642 l 1,4,-1
 197 426 l 1,5,-1
 528 426 l 1,6,-1
 528 335 l 1,7,-1
 197 335 l 1,8,-1
 197 93 l 1,9,-1
 572 93 l 1,10,-1
 572 0 l 1,11,-1
 89 0 l 1,0,-1
EndSplineSet
EndChar

StartChar: F
Encoding: 70 70 41
Width: 563
GlyphClass: 2
Flags: W
LayerCount: 2
Fore
SplineSet
89 0 m 1,0,-1
 89 735 l 1,1,-1
 550 735 l 1,2,-1
 550 642 l 1,3,-1
 197 642 l 1,4,-1
 197 414 l 1,5,-1
 514 414 l 1,6,-1
 514 323 l 1,7,-1
 197 323 l 1,8,-1
 197 0 l 1,9,-1
 89 0 l 1,0,-1
EndSplineSet
EndChar

StartChar: G
Encoding: 71 71 42
Width: 709
GlyphClass: 2
Flags: W
LayerCount: 2
Fore
SplineSet
43 367 m 0,0,1
 43 536 43 536 131.5 644 c 128,-1,2
 220 752 220 752 371 752 c 0,3,4
 425 752 425 752 471.5 734.5 c 128,-1,5
 518 717 518 717 549 689 c 128,-1,6
 580 661 580 661 599 635 c 128,-1,7
 618 609 618 609 630 583 c 1,8,-1
 537 552 l 1,9,10
 507 601 507 601 469 630 c 128,-1,11
 431 659 431 659 371 659 c 0,12,13
 269 659 269 659 211.5 578.5 c 128,-1,14
 154 498 154 498 154 367 c 0,15,16
 154 232 154 232 212.5 154 c 128,-1,17
 271 76 271 76 366 76 c 0,18,19
 449 76 449 76 496 126.5 c 128,-1,20
 543 177 543 177 547 251 c 0,21,22
 548 267 548 267 548 314 c 1,23,-1
 358 314 l 1,24,-1
 358 406 l 1,25,-1
 653 406 l 1,26,-1
 653 0 l 1,27,-1
 577 0 l 1,28,-1
 568 86 l 1,29,30
 508 -17 508 -17 363 -17 c 0,31,32
 223 -17 223 -17 133 86.5 c 128,-1,33
 43 190 43 190 43 367 c 0,0,1
EndSplineSet
EndChar

StartChar: H
Encoding: 72 72 43
Width: 710
GlyphClass: 2
Flags: W
LayerCount: 2
Fore
SplineSet
89 0 m 1,0,-1
 89 735 l 1,1,-1
 197 735 l 1,2,-1
 197 424 l 1,3,-1
 515 424 l 1,4,-1
 515 735 l 1,5,-1
 622 735 l 1,6,-1
 622 0 l 1,7,-1
 515 0 l 1,8,-1
 515 332 l 1,9,-1
 197 332 l 1,10,-1
 197 0 l 1,11,-1
 89 0 l 1,0,-1
EndSplineSet
EndChar

StartChar: I
Encoding: 73 73 44
Width: 285
GlyphClass: 2
Flags: W
LayerCount: 2
Fore
SplineSet
89 0 m 1,0,-1
 89 735 l 1,1,-1
 197 735 l 1,2,-1
 197 0 l 1,3,-1
 89 0 l 1,0,-1
EndSplineSet
EndChar

StartChar: J
Encoding: 74 74 45
Width: 508
GlyphClass: 2
Flags: W
LayerCount: 2
Fore
SplineSet
9 131 m 1,0,-1
 101 166 l 1,1,2
 114 127 114 127 141.5 101.5 c 128,-1,3
 169 76 169 76 208 76 c 0,4,5
 311 76 311 76 311 221 c 2,6,-1
 311 735 l 1,7,-1
 419 735 l 1,8,-1
 419 207 l 2,9,10
 419 98 419 98 365 40.5 c 128,-1,11
 311 -17 311 -17 211 -17 c 0,12,13
 130 -17 130 -17 79 25.5 c 128,-1,14
 28 68 28 68 9 131 c 1,0,-1
EndSplineSet
EndChar

StartChar: K
Encoding: 75 75 46
Width: 646
GlyphClass: 2
Flags: W
LayerCount: 2
Fore
SplineSet
89 0 m 1,0,-1
 89 735 l 1,1,-1
 197 735 l 1,2,-1
 197 385 l 1,3,-1
 200 385 l 1,4,-1
 500 735 l 1,5,-1
 638 735 l 1,6,-1
 357 415 l 1,7,-1
 649 0 l 1,8,-1
 517 0 l 1,9,-1
 288 338 l 1,10,-1
 197 235 l 1,11,-1
 197 0 l 1,12,-1
 89 0 l 1,0,-1
EndSplineSet
EndChar

StartChar: L
Encoding: 76 76 47
Width: 544
GlyphClass: 2
Flags: W
LayerCount: 2
Fore
SplineSet
89 0 m 1,0,-1
 89 735 l 1,1,-1
 197 735 l 1,2,-1
 197 93 l 1,3,-1
 535 93 l 1,4,-1
 535 0 l 1,5,-1
 89 0 l 1,0,-1
EndSplineSet
EndChar

StartChar: M
Encoding: 77 77 48
Width: 861
GlyphClass: 2
Flags: W
LayerCount: 2
Fore
SplineSet
89 0 m 1,0,-1
 89 735 l 1,1,-1
 223 735 l 1,2,-1
 362 376 l 2,3,4
 375 341 375 341 397 278 c 128,-1,5
 419 215 419 215 428 188 c 1,6,-1
 432 188 l 1,7,8
 438 203 438 203 500 376 c 1,9,-1
 638 735 l 1,10,-1
 774 735 l 1,11,-1
 774 0 l 1,12,-1
 666 0 l 1,13,-1
 666 359 l 2,14,15
 666 432 666 432 678 586 c 1,16,-1
 674 586 l 1,17,-1
 626 447 l 1,18,-1
 473 46 l 1,19,-1
 390 46 l 1,20,-1
 236 447 l 1,21,-1
 187 586 l 1,22,-1
 183 586 l 1,23,24
 197 432 197 432 197 359 c 2,25,-1
 197 0 l 1,26,-1
 89 0 l 1,0,-1
EndSplineSet
EndChar

StartChar: N
Encoding: 78 78 49
Width: 715
GlyphClass: 2
Flags: W
LayerCount: 2
Fore
SplineSet
89 0 m 1,0,-1
 89 735 l 1,1,-1
 205 735 l 1,2,-1
 443 310 l 1,3,-1
 526 159 l 1,4,-1
 532 159 l 1,5,6
 518 258 518 258 518 370 c 2,7,-1
 518 735 l 1,8,-1
 627 735 l 1,9,-1
 627 0 l 1,10,-1
 511 0 l 1,11,-1
 272 421 l 1,12,-1
 189 574 l 1,13,-1
 184 574 l 1,14,15
 197 476 197 476 197 363 c 2,16,-1
 197 0 l 1,17,-1
 89 0 l 1,0,-1
EndSplineSet
EndChar

StartChar: O
Encoding: 79 79 50
Width: 709
GlyphClass: 2
Flags: W
LayerCount: 2
Fore
SplineSet
43 367 m 0,0,1
 43 540 43 540 128.5 646 c 128,-1,2
 214 752 214 752 356 752 c 256,3,4
 498 752 498 752 582.5 646 c 128,-1,5
 667 540 667 540 667 366 c 0,6,7
 667 191 667 191 582 87 c 128,-1,8
 497 -17 497 -17 356 -17 c 0,9,10
 214 -17 214 -17 128.5 87.5 c 128,-1,11
 43 192 43 192 43 367 c 0,0,1
155 367 m 256,12,13
 155 233 155 233 208.5 154.5 c 128,-1,14
 262 76 262 76 356 76 c 0,15,16
 448 76 448 76 501.5 153.5 c 128,-1,17
 555 231 555 231 555 366 c 0,18,19
 555 499 555 499 502.5 579 c 128,-1,20
 450 659 450 659 356 659 c 256,21,22
 262 659 262 659 208.5 580 c 128,-1,23
 155 501 155 501 155 367 c 256,12,13
EndSplineSet
Substitution2: "Single Substitution lookup 12 subtable" ordmasculine
EndChar

StartChar: P
Encoding: 80 80 51
Width: 647
GlyphClass: 2
Flags: W
LayerCount: 2
Fore
SplineSet
89 0 m 1,0,-1
 89 735 l 1,1,-1
 373 735 l 2,2,3
 485 735 485 735 549 674.5 c 128,-1,4
 613 614 613 614 613 514 c 0,5,6
 613 411 613 411 547.5 351 c 128,-1,7
 482 291 482 291 375 291 c 2,8,-1
 197 291 l 1,9,-1
 197 0 l 1,10,-1
 89 0 l 1,0,-1
197 383 m 1,11,-1
 358 383 l 2,12,13
 427 383 427 383 464 416 c 128,-1,14
 501 449 501 449 501 514 c 0,15,16
 501 577 501 577 464.5 609.5 c 128,-1,17
 428 642 428 642 358 642 c 2,18,-1
 197 642 l 1,19,-1
 197 383 l 1,11,-1
EndSplineSet
EndChar

StartChar: Q
Encoding: 81 81 52
Width: 709
GlyphClass: 2
Flags: W
LayerCount: 2
Fore
SplineSet
43 366 m 0,0,1
 43 541 43 541 129 646.5 c 128,-1,2
 215 752 215 752 356 752 c 0,3,4
 498 752 498 752 582.5 646 c 128,-1,5
 667 540 667 540 667 366 c 0,6,7
 667 196 667 196 585 91 c 1,8,-1
 667 6 l 1,9,-1
 603 -51 l 1,10,-1
 523 32 l 1,11,12
 453 -17 453 -17 356 -17 c 0,13,14
 213 -17 213 -17 128 88.5 c 128,-1,15
 43 194 43 194 43 366 c 0,0,1
332 229 m 1,16,-1
 395 287 l 1,17,-1
 510 168 l 1,18,19
 555 244 555 244 555 366 c 0,20,21
 555 503 555 503 501 581 c 128,-1,22
 447 659 447 659 356 659 c 0,23,24
 263 659 263 659 209 580 c 128,-1,25
 155 501 155 501 155 366 c 0,26,27
 155 232 155 232 209 154 c 128,-1,28
 263 76 263 76 356 76 c 0,29,30
 411 76 411 76 453 104 c 1,31,-1
 332 229 l 1,16,-1
EndSplineSet
EndChar

StartChar: R
Encoding: 82 82 53
Width: 666
GlyphClass: 2
Flags: W
LayerCount: 2
Fore
SplineSet
197 393 m 1,0,-1
 366 393 l 2,1,2
 432 393 432 393 467.5 427 c 128,-1,3
 503 461 503 461 503 520 c 0,4,5
 503 575 503 575 466 608.5 c 128,-1,6
 429 642 429 642 361 642 c 2,7,-1
 197 642 l 1,8,-1
 197 393 l 1,0,-1
89 0 m 1,9,-1
 89 735 l 1,10,-1
 383 735 l 2,11,12
 495 735 495 735 555 676 c 128,-1,13
 615 617 615 617 615 529 c 0,14,15
 615 453 615 453 579 405 c 128,-1,16
 543 357 543 357 498 341 c 1,17,18
 535 318 535 318 551.5 289.5 c 128,-1,19
 568 261 568 261 579 206 c 0,20,21
 591 148 591 148 607 102.5 c 128,-1,22
 623 57 623 57 656 0 c 1,23,-1
 535 0 l 1,24,25
 494 70 494 70 465 199 c 0,26,27
 455 249 455 249 433 275.5 c 128,-1,28
 411 302 411 302 363 302 c 2,29,-1
 197 302 l 1,30,-1
 197 0 l 1,31,-1
 89 0 l 1,9,-1
EndSplineSet
EndChar

StartChar: S
Encoding: 83 83 54
Width: 608
GlyphClass: 2
Flags: W
LayerCount: 2
Fore
SplineSet
29 150 m 1,0,-1
 126 184 l 1,1,2
 153 135 153 135 203.5 105.5 c 128,-1,3
 254 76 254 76 316 76 c 0,4,5
 381 76 381 76 422 108 c 128,-1,6
 463 140 463 140 463 193 c 0,7,8
 463 221 463 221 451 243.5 c 128,-1,9
 439 266 439 266 413 282.5 c 128,-1,10
 387 299 387 299 363 309.5 c 128,-1,11
 339 320 339 320 300 333 c 0,12,13
 188 370 188 370 147 395 c 0,14,15
 56 451 56 451 56 552 c 0,16,17
 56 642 56 642 126 697 c 128,-1,18
 196 752 196 752 309 752 c 0,19,20
 401 752 401 752 467 709.5 c 128,-1,21
 533 667 533 667 563 602 c 1,22,-1
 472 570 l 1,23,24
 413 659 413 659 308 659 c 0,25,26
 243 659 243 659 205 630.5 c 128,-1,27
 167 602 167 602 167 553 c 0,28,29
 167 516 167 516 197.5 488 c 128,-1,30
 228 460 228 460 254.5 449.5 c 128,-1,31
 281 439 281 439 347 417 c 0,32,33
 361 412 361 412 369 410 c 0,34,35
 413 394 413 394 445.5 379 c 128,-1,36
 478 364 478 364 510 339.5 c 128,-1,37
 542 315 542 315 559 279 c 128,-1,38
 576 243 576 243 576 198 c 0,39,40
 576 96 576 96 503 39.5 c 128,-1,41
 430 -17 430 -17 314 -17 c 0,42,43
 213 -17 213 -17 139 28.5 c 128,-1,44
 65 74 65 74 29 150 c 1,0,-1
EndSplineSet
EndChar

StartChar: T
Encoding: 84 84 55
Width: 559
GlyphClass: 2
Flags: W
LayerCount: 2
Fore
SplineSet
10 642 m 1,0,-1
 10 735 l 1,1,-1
 551 735 l 1,2,-1
 551 642 l 1,3,-1
 335 642 l 1,4,-1
 335 0 l 1,5,-1
 227 0 l 1,6,-1
 227 642 l 1,7,-1
 10 642 l 1,0,-1
EndSplineSet
EndChar

StartChar: U
Encoding: 85 85 56
Width: 707
GlyphClass: 2
Flags: W
LayerCount: 2
Fore
SplineSet
86 271 m 2,0,-1
 86 735 l 1,1,-1
 195 735 l 1,2,-1
 195 272 l 2,3,4
 195 173 195 173 238 124.5 c 128,-1,5
 281 76 281 76 354 76 c 0,6,7
 428 76 428 76 471 126 c 128,-1,8
 514 176 514 176 514 272 c 2,9,-1
 514 735 l 1,10,-1
 622 735 l 1,11,-1
 622 271 l 2,12,13
 622 134 622 134 554 58.5 c 128,-1,14
 486 -17 486 -17 354 -17 c 0,15,16
 226 -17 226 -17 156 56.5 c 128,-1,17
 86 130 86 130 86 271 c 2,0,-1
EndSplineSet
EndChar

StartChar: V
Encoding: 86 86 57
Width: 603
GlyphClass: 2
Flags: W
LayerCount: 2
Fore
SplineSet
0 735 m 1,0,-1
 118 735 l 1,1,-1
 254 285 l 1,2,3
 290 149 290 149 300 112 c 1,4,-1
 304 112 l 1,5,6
 312 143 312 143 327 198.5 c 128,-1,7
 342 254 342 254 351 285 c 2,8,-1
 486 735 l 1,9,-1
 605 735 l 1,10,-1
 364 0 l 1,11,-1
 240 0 l 1,12,-1
 0 735 l 1,0,-1
EndSplineSet
EndChar

StartChar: W
Encoding: 87 87 58
Width: 866
GlyphClass: 2
Flags: W
LayerCount: 2
Fore
SplineSet
11 735 m 1,0,-1
 127 735 l 1,1,-1
 212 301 l 2,2,3
 225 227 225 227 241 118 c 1,4,-1
 246 118 l 1,5,6
 261 201 261 201 281 301 c 2,7,-1
 377 735 l 1,8,-1
 489 735 l 1,9,-1
 586 301 l 2,10,11
 606 205 606 205 621 118 c 1,12,-1
 626 118 l 1,13,14
 630 140 630 140 641 205.5 c 128,-1,15
 652 271 652 271 656 301 c 2,16,-1
 741 735 l 1,17,-1
 856 735 l 1,18,-1
 689 0 l 1,19,-1
 564 0 l 1,20,-1
 468 428 l 1,21,22
 441 568 441 568 436 602 c 1,23,-1
 431 602 l 1,24,25
 427 568 427 568 413.5 504 c 128,-1,26
 400 440 400 440 398 428 c 2,27,-1
 304 0 l 1,28,-1
 180 0 l 1,29,-1
 11 735 l 1,0,-1
EndSplineSet
EndChar

StartChar: X
Encoding: 88 88 59
Width: 604
GlyphClass: 2
Flags: W
LayerCount: 2
Fore
SplineSet
1 0 m 1,0,-1
 238 377 l 1,1,-1
 12 735 l 1,2,-1
 142 735 l 1,3,-1
 237 569 l 2,4,5
 248 551 248 551 269 514.5 c 128,-1,6
 290 478 290 478 301 459 c 1,7,-1
 305 459 l 1,8,9
 315 478 315 478 336.5 514.5 c 128,-1,10
 358 551 358 551 368 569 c 2,11,-1
 463 735 l 1,12,-1
 593 735 l 1,13,-1
 367 377 l 1,14,-1
 605 0 l 1,15,-1
 478 0 l 1,16,-1
 373 176 l 2,17,18
 360 196 360 196 336.5 237.5 c 128,-1,19
 313 279 313 279 305 293 c 1,20,-1
 301 293 l 1,21,22
 276 250 276 250 233 176 c 2,23,-1
 129 0 l 1,24,-1
 1 0 l 1,0,-1
EndSplineSet
EndChar

StartChar: Y
Encoding: 89 89 60
Width: 616
GlyphClass: 2
Flags: W
LayerCount: 2
Fore
SplineSet
-3 735 m 1,0,-1
 123 735 l 1,1,-1
 240 516 l 2,2,3
 280 443 280 443 306 390 c 1,4,-1
 309 390 l 1,5,6
 320 408 320 408 331 429 c 128,-1,7
 342 450 342 450 355.5 475.5 c 128,-1,8
 369 501 369 501 376 516 c 2,9,-1
 493 735 l 1,10,-1
 620 735 l 1,11,-1
 363 300 l 1,12,-1
 363 0 l 1,13,-1
 254 0 l 1,14,-1
 254 300 l 1,15,-1
 -3 735 l 1,0,-1
EndSplineSet
EndChar

StartChar: Z
Encoding: 90 90 61
Width: 604
GlyphClass: 2
Flags: W
LayerCount: 2
Fore
SplineSet
36 79 m 1,0,-1
 428 642 l 1,1,-1
 66 642 l 1,2,-1
 66 735 l 1,3,-1
 562 735 l 1,4,-1
 562 655 l 1,5,-1
 168 93 l 1,6,-1
 571 93 l 1,7,-1
 571 0 l 1,8,-1
 36 0 l 1,9,-1
 36 79 l 1,0,-1
EndSplineSet
EndChar

StartChar: bracketleft
Encoding: 91 91 62
Width: 444
GlyphClass: 2
Flags: W
LayerCount: 2
Fore
SplineSet
131 -122 m 1,0,-1
 131 828 l 1,1,-1
 358 828 l 1,2,-1
 358 743 l 1,3,-1
 236 743 l 1,4,-1
 236 -37 l 1,5,-1
 358 -37 l 1,6,-1
 358 -122 l 1,7,-1
 131 -122 l 1,0,-1
EndSplineSet
EndChar

StartChar: backslash
Encoding: 92 92 63
Width: 348
GlyphClass: 2
Flags: W
LayerCount: 2
Fore
SplineSet
-14 782 m 1,0,-1
 94 782 l 1,1,-1
 364 -54 l 1,2,-1
 255 -54 l 1,3,-1
 -14 782 l 1,0,-1
EndSplineSet
EndChar

StartChar: bracketright
Encoding: 93 93 64
Width: 444
GlyphClass: 2
Flags: W
LayerCount: 2
Fore
SplineSet
86 -37 m 1,0,-1
 208 -37 l 1,1,-1
 208 743 l 1,2,-1
 86 743 l 1,3,-1
 86 828 l 1,4,-1
 313 828 l 1,5,-1
 313 -122 l 1,6,-1
 86 -122 l 1,7,-1
 86 -37 l 1,0,-1
EndSplineSet
EndChar

StartChar: asciicircum
Encoding: 94 94 65
Width: 519
GlyphClass: 2
Flags: W
LayerCount: 2
Fore
SplineSet
12 465 m 1,0,-1
 211 809 l 1,1,-1
 309 809 l 1,2,-1
 508 465 l 1,3,-1
 399 465 l 1,4,-1
 293 662 l 1,5,-1
 260 726 l 1,6,-1
 120 465 l 1,7,-1
 12 465 l 1,0,-1
EndSplineSet
EndChar

StartChar: underscore
Encoding: 95 95 66
Width: 475
GlyphClass: 2
Flags: W
LayerCount: 2
Fore
SplineSet
6 -11 m 1,0,-1
 472 -11 l 1,1,-1
 472 -96 l 1,2,-1
 6 -96 l 1,3,-1
 6 -11 l 1,0,-1
EndSplineSet
EndChar

StartChar: grave
Encoding: 96 96 67
Width: 331
GlyphClass: 2
Flags: W
LayerCount: 2
Fore
SplineSet
166 523 m 1,0,-1
 37 819 l 1,1,-1
 164 819 l 1,2,-1
 251 523 l 1,3,-1
 166 523 l 1,0,-1
EndSplineSet
EndChar

StartChar: a
Encoding: 97 97 68
Width: 549
GlyphClass: 2
Flags: W
LayerCount: 2
Fore
SplineSet
141 146 m 0,0,1
 141 114 141 114 167 92 c 128,-1,2
 193 70 193 70 237 70 c 0,3,4
 298 70 298 70 340.5 109.5 c 128,-1,5
 383 149 383 149 383 212 c 2,6,-1
 383 270 l 1,7,8
 340 259 340 259 269 248 c 0,9,10
 204 237 204 237 172.5 212.5 c 128,-1,11
 141 188 141 188 141 146 c 0,0,1
35 137 m 0,12,13
 35 287 35 287 261 322 c 0,14,15
 355 336 355 336 383 345 c 1,16,-1
 383 375 l 2,17,18
 383 417 383 417 352.5 442 c 128,-1,19
 322 467 322 467 270 467 c 0,20,21
 178 467 178 467 114 393 c 1,22,-1
 49 447 l 1,23,24
 90 496 90 496 147 523.5 c 128,-1,25
 204 551 204 551 268 551 c 0,26,27
 487 551 487 551 487 335 c 2,28,-1
 487 0 l 1,29,-1
 386 0 l 1,30,-1
 386 74 l 1,31,32
 370 37 370 37 325.5 10 c 128,-1,33
 281 -17 281 -17 222 -17 c 0,34,35
 135 -17 135 -17 85 26 c 128,-1,36
 35 69 35 69 35 137 c 0,12,13
EndSplineSet
Substitution2: "Single Substitution lookup 12 subtable" ordfeminine
EndChar

StartChar: b
Encoding: 98 98 69
Width: 585
GlyphClass: 2
Flags: W
LayerCount: 2
Fore
SplineSet
75 0 m 1,0,-1
 75 761 l 1,1,-1
 178 761 l 1,2,-1
 178 463 l 1,3,4
 197 498 197 498 234.5 524.5 c 128,-1,5
 272 551 272 551 323 551 c 0,6,7
 421 551 421 551 485 475 c 128,-1,8
 549 399 549 399 549 268 c 0,9,10
 549 194 549 194 528 136.5 c 128,-1,11
 507 79 507 79 473.5 47 c 128,-1,12
 440 15 440 15 401.5 -1 c 128,-1,13
 363 -17 363 -17 323 -17 c 0,14,15
 273 -17 273 -17 233.5 10.5 c 128,-1,16
 194 38 194 38 176 77 c 1,17,-1
 176 0 l 1,18,-1
 75 0 l 1,0,-1
176 268 m 0,19,20
 176 177 176 177 213.5 124 c 128,-1,21
 251 71 251 71 308 71 c 0,22,23
 367 71 367 71 404.5 122.5 c 128,-1,24
 442 174 442 174 442 268 c 0,25,26
 442 358 442 358 405.5 410 c 128,-1,27
 369 462 369 462 308 462 c 0,28,29
 250 462 250 462 213 409 c 128,-1,30
 176 356 176 356 176 268 c 0,19,20
EndSplineSet
EndChar

StartChar: c
Encoding: 99 99 70
Width: 512
GlyphClass: 2
Flags: W
LayerCount: 2
Fore
SplineSet
37 267 m 0,0,1
 37 395 37 395 103.5 473 c 128,-1,2
 170 551 170 551 280 551 c 0,3,4
 358 551 358 551 410.5 505 c 128,-1,5
 463 459 463 459 479 398 c 1,6,-1
 391 374 l 1,7,8
 378 411 378 411 349.5 436.5 c 128,-1,9
 321 462 321 462 281 462 c 0,10,11
 217 462 217 462 180.5 406.5 c 128,-1,12
 144 351 144 351 144 267 c 0,13,14
 144 175 144 175 182.5 123 c 128,-1,15
 221 71 221 71 281 71 c 0,16,17
 323 71 323 71 357 100 c 128,-1,18
 391 129 391 129 404 166 c 1,19,-1
 492 141 l 1,20,21
 474 78 474 78 416 30.5 c 128,-1,22
 358 -17 358 -17 280 -17 c 0,23,24
 171 -17 171 -17 104 60 c 128,-1,25
 37 137 37 137 37 267 c 0,0,1
EndSplineSet
EndChar

StartChar: d
Encoding: 100 100 71
Width: 585
GlyphClass: 2
Flags: W
LayerCount: 2
Fore
SplineSet
37 268 m 0,0,1
 37 399 37 399 101 475 c 128,-1,2
 165 551 165 551 263 551 c 0,3,4
 313 551 313 551 351 524.5 c 128,-1,5
 389 498 389 498 407 463 c 1,6,-1
 407 761 l 1,7,-1
 511 761 l 1,8,-1
 511 0 l 1,9,-1
 410 0 l 1,10,-1
 410 78 l 1,11,12
 392 38 392 38 352.5 10.5 c 128,-1,13
 313 -17 313 -17 263 -17 c 0,14,15
 221 -17 221 -17 183 -1 c 128,-1,16
 145 15 145 15 111.5 47 c 128,-1,17
 78 79 78 79 57.5 136.5 c 128,-1,18
 37 194 37 194 37 268 c 0,0,1
143 268 m 0,19,20
 143 176 143 176 180.5 123.5 c 128,-1,21
 218 71 218 71 277 71 c 0,22,23
 334 71 334 71 371.5 124 c 128,-1,24
 409 177 409 177 409 268 c 0,25,26
 409 356 409 356 372 409 c 128,-1,27
 335 462 335 462 277 462 c 0,28,29
 215 462 215 462 179 409 c 128,-1,30
 143 356 143 356 143 268 c 0,19,20
EndSplineSet
EndChar

StartChar: e
Encoding: 101 101 72
Width: 557
GlyphClass: 2
Flags: W
LayerCount: 2
Fore
SplineSet
37 270 m 0,0,1
 37 396 37 396 106.5 473.5 c 128,-1,2
 176 551 176 551 283 551 c 256,3,4
 390 551 390 551 456.5 474 c 128,-1,5
 523 397 523 397 523 276 c 0,6,7
 523 274 523 274 520 232 c 1,8,-1
 142 232 l 1,9,10
 142 165 142 165 180.5 116.5 c 128,-1,11
 219 68 219 68 288 68 c 0,12,13
 335 68 335 68 371 91 c 128,-1,14
 407 114 407 114 426 149 c 1,15,-1
 513 120 l 1,16,17
 487 61 487 61 430 22 c 128,-1,18
 373 -17 373 -17 288 -17 c 0,19,20
 176 -17 176 -17 106.5 61 c 128,-1,21
 37 139 37 139 37 270 c 0,0,1
144 306 m 1,22,-1
 417 306 l 1,23,24
 417 374 417 374 381 420 c 128,-1,25
 345 466 345 466 283 466 c 0,26,27
 219 466 219 466 182.5 419 c 128,-1,28
 146 372 146 372 144 306 c 1,22,-1
EndSplineSet
EndChar

StartChar: f
Encoding: 102 102 73
Width: 343
GlyphClass: 2
Flags: W
LayerCount: 2
Fore
SplineSet
23 445 m 1,0,-1
 23 533 l 1,1,-1
 108 533 l 1,2,-1
 108 599 l 2,3,4
 108 680 108 680 148 720.5 c 128,-1,5
 188 761 188 761 261 761 c 2,6,-1
 341 761 l 1,7,-1
 341 673 l 1,8,-1
 276 673 l 2,9,10
 212 673 212 673 212 591 c 2,11,-1
 212 533 l 1,12,-1
 328 533 l 1,13,-1
 328 445 l 1,14,-1
 212 445 l 1,15,-1
 212 0 l 1,16,-1
 108 0 l 1,17,-1
 108 445 l 1,18,-1
 23 445 l 1,0,-1
EndSplineSet
EndChar

StartChar: g
Encoding: 103 103 74
Width: 569
GlyphClass: 2
Flags: W
LayerCount: 2
Fore
SplineSet
145 277 m 0,0,1
 145 191 145 191 179.5 142 c 128,-1,2
 214 93 214 93 271 93 c 0,3,4
 329 93 329 93 363 140.5 c 128,-1,5
 397 188 397 188 397 277 c 0,6,7
 397 364 397 364 362.5 413 c 128,-1,8
 328 462 328 462 273 462 c 0,9,10
 215 462 215 462 180 411 c 128,-1,11
 145 360 145 360 145 277 c 0,0,1
39 276 m 0,12,13
 39 401 39 401 101 476 c 128,-1,14
 163 551 163 551 259 551 c 0,15,16
 312 551 312 551 347.5 524 c 128,-1,17
 383 497 383 497 398 463 c 1,18,-1
 398 533 l 1,19,-1
 501 533 l 1,20,-1
 501 70 l 2,21,22
 501 -81 501 -81 444 -153.5 c 128,-1,23
 387 -226 387 -226 266 -226 c 0,24,25
 132 -226 132 -226 61 -126 c 1,26,-1
 131 -78 l 1,27,28
 188 -143 188 -143 269 -143 c 0,29,30
 325 -143 325 -143 360 -98.5 c 128,-1,31
 395 -54 395 -54 397 18 c 0,32,33
 397 29 397 29 397.5 52 c 128,-1,34
 398 75 398 75 398 83 c 1,35,36
 379 48 379 48 343 26 c 128,-1,37
 307 4 307 4 263 4 c 0,38,39
 162 4 162 4 100.5 79 c 128,-1,40
 39 154 39 154 39 276 c 0,12,13
EndSplineSet
EndChar

StartChar: h
Encoding: 104 104 75
Width: 565
GlyphClass: 2
Flags: W
LayerCount: 2
Fore
SplineSet
75 0 m 1,0,-1
 75 761 l 1,1,-1
 178 761 l 1,2,-1
 178 469 l 1,3,-1
 180 469 l 1,4,5
 200 504 200 504 239.5 527.5 c 128,-1,6
 279 551 279 551 326 551 c 0,7,8
 405 551 405 551 453.5 502 c 128,-1,9
 502 453 502 453 502 343 c 2,10,-1
 502 0 l 1,11,-1
 399 0 l 1,12,-1
 399 329 l 2,13,14
 399 462 399 462 307 462 c 0,15,16
 254 462 254 462 216 416.5 c 128,-1,17
 178 371 178 371 178 308 c 2,18,-1
 178 0 l 1,19,-1
 75 0 l 1,0,-1
EndSplineSet
Substitution2: "'sups' Superscript lookup 5 subtable" uni02B0
Substitution2: "'aalt' Access All Alternates lookup 0 subtable" uni02B0
EndChar

StartChar: i
Encoding: 105 105 76
Width: 268
GlyphClass: 2
Flags: W
LayerCount: 2
Fore
SplineSet
76 626 m 1,0,-1
 76 745 l 1,1,-1
 192 745 l 1,2,-1
 192 626 l 1,3,-1
 76 626 l 1,0,-1
83 0 m 1,4,-1
 83 533 l 1,5,-1
 186 533 l 1,6,-1
 186 0 l 1,7,-1
 83 0 l 1,4,-1
EndSplineSet
EndChar

StartChar: j
Encoding: 106 106 77
Width: 274
GlyphClass: 2
Flags: W
LayerCount: 2
Fore
SplineSet
80 626 m 1,0,-1
 80 745 l 1,1,-1
 199 745 l 1,2,-1
 199 626 l 1,3,-1
 80 626 l 1,0,-1
-10 -126 m 1,4,-1
 9 -126 l 2,5,6
 88 -126 88 -126 88 -16 c 2,7,-1
 88 533 l 1,8,-1
 191 533 l 1,9,-1
 191 -21 l 2,10,11
 191 -116 191 -116 148.5 -165.5 c 128,-1,12
 106 -215 106 -215 26 -215 c 2,13,-1
 -10 -215 l 1,14,-1
 -10 -126 l 1,4,-1
EndSplineSet
Substitution2: "'sups' Superscript lookup 5 subtable" uni02B2
Substitution2: "'aalt' Access All Alternates lookup 0 subtable" uni02B2
EndChar

StartChar: k
Encoding: 107 107 78
Width: 521
GlyphClass: 2
Flags: W
LayerCount: 2
Fore
SplineSet
76 0 m 1,0,-1
 76 761 l 1,1,-1
 180 761 l 1,2,-1
 180 304 l 1,3,-1
 382 533 l 1,4,-1
 515 533 l 1,5,-1
 321 318 l 1,6,-1
 531 0 l 1,7,-1
 407 0 l 1,8,-1
 254 245 l 1,9,-1
 180 163 l 1,10,-1
 180 0 l 1,11,-1
 76 0 l 1,0,-1
EndSplineSet
EndChar

StartChar: l
Encoding: 108 108 79
Width: 262
GlyphClass: 2
Flags: W
LayerCount: 2
Fore
SplineSet
79 0 m 1,0,-1
 79 761 l 1,1,-1
 184 761 l 1,2,-1
 184 0 l 1,3,-1
 79 0 l 1,0,-1
EndSplineSet
Substitution2: "'sups' Superscript lookup 5 subtable" uni02E1
Substitution2: "'aalt' Access All Alternates lookup 0 subtable" uni02E1
EndChar

StartChar: m
Encoding: 109 109 80
Width: 831
GlyphClass: 2
Flags: W
LayerCount: 2
Fore
SplineSet
69 0 m 1,0,-1
 69 533 l 1,1,-1
 170 533 l 1,2,-1
 170 465 l 1,3,4
 184 496 184 496 221 523.5 c 128,-1,5
 258 551 258 551 311 551 c 0,6,7
 402 551 402 551 443 447 c 1,8,9
 448 460 448 460 459 474.5 c 128,-1,10
 470 489 470 489 489.5 507.5 c 128,-1,11
 509 526 509 526 539.5 538.5 c 128,-1,12
 570 551 570 551 607 551 c 0,13,14
 769 551 769 551 769 343 c 2,15,-1
 769 0 l 1,16,-1
 663 0 l 1,17,-1
 663 339 l 2,18,19
 663 400 663 400 646.5 431 c 128,-1,20
 630 462 630 462 585 462 c 0,21,22
 534 462 534 462 502 420 c 128,-1,23
 470 378 470 378 470 316 c 2,24,-1
 470 0 l 1,25,-1
 367 0 l 1,26,-1
 367 341 l 2,27,28
 367 462 367 462 287 462 c 0,29,30
 234 462 234 462 204 422.5 c 128,-1,31
 174 383 174 383 174 319 c 2,32,-1
 174 0 l 1,33,-1
 69 0 l 1,0,-1
EndSplineSet
EndChar

StartChar: n
Encoding: 110 110 81
Width: 561
GlyphClass: 2
Flags: W
LayerCount: 2
Fore
SplineSet
69 0 m 1,0,-1
 69 533 l 1,1,-1
 170 533 l 1,2,-1
 170 459 l 1,3,-1
 171 459 l 1,4,5
 184 491 184 491 225 521 c 128,-1,6
 266 551 266 551 326 551 c 0,7,8
 404 551 404 551 451 502.5 c 128,-1,9
 498 454 498 454 498 343 c 2,10,-1
 498 0 l 1,11,-1
 394 0 l 1,12,-1
 394 329 l 2,13,14
 394 462 394 462 303 462 c 0,15,16
 249 462 249 462 211.5 418 c 128,-1,17
 174 374 174 374 174 311 c 2,18,-1
 174 0 l 1,19,-1
 69 0 l 1,0,-1
EndSplineSet
Substitution2: "'sups' Superscript lookup 5 subtable" uni207F
Substitution2: "'aalt' Access All Alternates lookup 0 subtable" uni207F
EndChar

StartChar: o
Encoding: 111 111 82
Width: 561
GlyphClass: 2
Flags: W
LayerCount: 2
Fore
SplineSet
143 267 m 256,0,1
 143 171 143 171 183.5 121 c 128,-1,2
 224 71 224 71 281 71 c 0,3,4
 337 71 337 71 378 121 c 128,-1,5
 419 171 419 171 419 267 c 256,6,7
 419 363 419 363 378 412.5 c 128,-1,8
 337 462 337 462 281 462 c 256,9,10
 225 462 225 462 184 412.5 c 128,-1,11
 143 363 143 363 143 267 c 256,0,1
37 267 m 0,12,13
 37 344 37 344 62 406.5 c 128,-1,14
 87 469 87 469 144 510 c 128,-1,15
 201 551 201 551 281 551 c 0,16,17
 399 551 399 551 462 469 c 128,-1,18
 525 387 525 387 525 267 c 0,19,20
 525 218 525 218 512.5 171 c 128,-1,21
 500 124 500 124 473 80.5 c 128,-1,22
 446 37 446 37 396.5 10 c 128,-1,23
 347 -17 347 -17 281 -17 c 256,24,25
 215 -17 215 -17 165.5 9 c 128,-1,26
 116 35 116 35 89 78 c 128,-1,27
 62 121 62 121 49.5 168.5 c 128,-1,28
 37 216 37 216 37 267 c 0,12,13
EndSplineSet
Substitution2: "Single Substitution lookup 12 subtable" ordmasculine
EndChar

StartChar: p
Encoding: 112 112 83
Width: 585
GlyphClass: 2
Flags: W
LayerCount: 2
Fore
SplineSet
177 268 m 0,0,1
 177 179 177 179 212 125 c 128,-1,2
 247 71 247 71 308 71 c 0,3,4
 367 71 367 71 404.5 123.5 c 128,-1,5
 442 176 442 176 442 268 c 0,6,7
 442 356 442 356 406.5 409 c 128,-1,8
 371 462 371 462 308 462 c 0,9,10
 248 462 248 462 212.5 408 c 128,-1,11
 177 354 177 354 177 268 c 0,0,1
75 -222 m 1,12,-1
 75 533 l 1,13,-1
 174 533 l 1,14,-1
 174 456 l 1,15,16
 195 498 195 498 233.5 524.5 c 128,-1,17
 272 551 272 551 323 551 c 0,18,19
 420 551 420 551 484.5 474 c 128,-1,20
 549 397 549 397 549 268 c 0,21,22
 549 196 549 196 528.5 139 c 128,-1,23
 508 82 508 82 475 49 c 128,-1,24
 442 16 442 16 403 -0.5 c 128,-1,25
 364 -17 364 -17 323 -17 c 0,26,27
 269 -17 269 -17 232 9 c 128,-1,28
 195 35 195 35 178 72 c 1,29,-1
 178 -222 l 1,30,-1
 75 -222 l 1,12,-1
EndSplineSet
EndChar

StartChar: q
Encoding: 113 113 84
Width: 583
GlyphClass: 2
Flags: W
LayerCount: 2
Fore
SplineSet
143 268 m 0,0,1
 143 176 143 176 180.5 123.5 c 128,-1,2
 218 71 218 71 276 71 c 0,3,4
 336 71 336 71 372 125 c 128,-1,5
 408 179 408 179 408 268 c 0,6,7
 408 354 408 354 372.5 408 c 128,-1,8
 337 462 337 462 276 462 c 0,9,10
 212 462 212 462 177.5 408 c 128,-1,11
 143 354 143 354 143 268 c 0,0,1
37 268 m 0,12,13
 37 397 37 397 100.5 474 c 128,-1,14
 164 551 164 551 262 551 c 0,15,16
 311 551 311 551 350 524.5 c 128,-1,17
 389 498 389 498 411 456 c 1,18,-1
 411 533 l 1,19,-1
 511 533 l 1,20,-1
 511 -222 l 1,21,-1
 407 -222 l 1,22,-1
 407 72 l 1,23,24
 389 34 389 34 351 8.5 c 128,-1,25
 313 -17 313 -17 262 -17 c 0,26,27
 220 -17 220 -17 181.5 -0.5 c 128,-1,28
 143 16 143 16 110 48.5 c 128,-1,29
 77 81 77 81 57 138 c 128,-1,30
 37 195 37 195 37 268 c 0,12,13
EndSplineSet
EndChar

StartChar: r
Encoding: 114 114 85
Width: 372
GlyphClass: 2
Flags: W
LayerCount: 2
Fore
SplineSet
69 0 m 1,0,-1
 69 533 l 1,1,-1
 168 533 l 1,2,-1
 168 469 l 1,3,4
 184 500 184 500 219 525.5 c 128,-1,5
 254 551 254 551 304 551 c 0,6,7
 347 551 347 551 375 538 c 1,8,-1
 375 443 l 1,9,10
 343 455 343 455 304 455 c 0,11,12
 241 455 241 455 207.5 407 c 128,-1,13
 174 359 174 359 174 280 c 2,14,-1
 174 0 l 1,15,-1
 69 0 l 1,0,-1
EndSplineSet
Substitution2: "'sups' Superscript lookup 5 subtable" uni02B3
Substitution2: "'aalt' Access All Alternates lookup 0 subtable" uni02B3
EndChar

StartChar: s
Encoding: 115 115 86
Width: 495
GlyphClass: 2
Flags: W
LayerCount: 2
Fore
SplineSet
27 110 m 1,0,-1
 103 153 l 1,1,2
 161 68 161 68 252 68 c 0,3,4
 300 68 300 68 329 87.5 c 128,-1,5
 358 107 358 107 358 139 c 0,6,7
 358 181 358 181 296 207 c 0,8,9
 276 217 276 217 206 238 c 0,10,11
 173 249 173 249 149 260 c 128,-1,12
 125 271 125 271 100 289 c 128,-1,13
 75 307 75 307 61.5 334.5 c 128,-1,14
 48 362 48 362 48 397 c 0,15,16
 48 466 48 466 106 508.5 c 128,-1,17
 164 551 164 551 253 551 c 0,18,19
 318 551 318 551 374.5 516 c 128,-1,20
 431 481 431 481 459 429 c 1,21,-1
 390 387 l 1,22,23
 336 465 336 465 253 465 c 0,24,25
 204 465 204 465 178.5 446 c 128,-1,26
 153 427 153 427 153 395 c 0,27,28
 153 378 153 378 162.5 364 c 128,-1,29
 172 350 172 350 182 341.5 c 128,-1,30
 192 333 192 333 216 323 c 128,-1,31
 240 313 240 313 252 309.5 c 128,-1,32
 264 306 264 306 293 296 c 0,33,34
 465 243 465 243 465 138 c 0,35,36
 465 73 465 73 409.5 28 c 128,-1,37
 354 -17 354 -17 254 -17 c 0,38,39
 179 -17 179 -17 119.5 17 c 128,-1,40
 60 51 60 51 27 110 c 1,0,-1
EndSplineSet
Substitution2: "'hist' Historical Forms lookup 11 subtable" longs
Substitution2: "'sups' Superscript lookup 5 subtable" uni02E2
AlternateSubs2: "'aalt' Access All Alternates lookup 1 subtable" uni02E2 longs
EndChar

StartChar: t
Encoding: 116 116 87
Width: 364
GlyphClass: 2
Flags: W
LayerCount: 2
Fore
SplineSet
18 445 m 1,0,-1
 18 533 l 1,1,-1
 104 533 l 1,2,-1
 104 695 l 1,3,-1
 208 695 l 1,4,-1
 208 533 l 1,5,-1
 336 533 l 1,6,-1
 336 445 l 1,7,-1
 208 445 l 1,8,-1
 208 166 l 2,9,10
 208 125 208 125 224.5 107 c 128,-1,11
 241 89 241 89 275 89 c 2,12,-1
 336 89 l 1,13,-1
 336 0 l 1,14,-1
 262 0 l 2,15,16
 104 0 104 0 104 159 c 2,17,-1
 104 445 l 1,18,-1
 18 445 l 1,0,-1
EndSplineSet
EndChar

StartChar: u
Encoding: 117 117 88
Width: 558
GlyphClass: 2
Flags: W
LayerCount: 2
Fore
SplineSet
62 191 m 2,0,-1
 62 533 l 1,1,-1
 167 533 l 1,2,-1
 167 207 l 2,3,4
 167 71 167 71 264 71 c 0,5,6
 323 71 323 71 354.5 118.5 c 128,-1,7
 386 166 386 166 386 233 c 2,8,-1
 386 533 l 1,9,-1
 489 533 l 1,10,-1
 489 0 l 1,11,-1
 390 0 l 1,12,-1
 390 70 l 1,13,-1
 388 70 l 1,14,15
 375 39 375 39 338 11 c 128,-1,16
 301 -17 301 -17 240 -17 c 0,17,18
 167 -17 167 -17 114.5 32 c 128,-1,19
 62 81 62 81 62 191 c 2,0,-1
EndSplineSet
EndChar

StartChar: v
Encoding: 118 118 89
Width: 513
GlyphClass: 2
Flags: W
LayerCount: 2
Fore
SplineSet
8 533 m 1,0,-1
 122 533 l 1,1,-1
 214 240 l 1,2,3
 245 127 245 127 255 89 c 1,4,-1
 257 89 l 1,5,6
 264 114 264 114 279.5 166.5 c 128,-1,7
 295 219 295 219 301 240 c 2,8,-1
 392 533 l 1,9,-1
 506 533 l 1,10,-1
 317 0 l 1,11,-1
 197 0 l 1,12,-1
 8 533 l 1,0,-1
EndSplineSet
EndChar

StartChar: w
Encoding: 119 119 90
Width: 731
GlyphClass: 2
Flags: W
LayerCount: 2
Fore
SplineSet
9 533 m 1,0,-1
 121 533 l 1,1,-1
 184 245 l 2,2,3
 197 181 197 181 212 100 c 1,4,-1
 216 100 l 1,5,6
 227 158 227 158 245 245 c 2,7,-1
 310 533 l 1,8,-1
 423 533 l 1,9,-1
 488 242 l 2,10,11
 491 229 491 229 501.5 179.5 c 128,-1,12
 512 130 512 130 517 100 c 1,13,-1
 521 100 l 1,14,15
 533 160 533 160 550 245 c 2,16,-1
 612 533 l 1,17,-1
 725 533 l 1,18,-1
 580 0 l 1,19,-1
 460 0 l 1,20,-1
 396 279 l 2,21,22
 372 400 372 400 368 421 c 1,23,-1
 364 421 l 1,24,25
 341 302 341 302 337 279 c 2,26,-1
 273 0 l 1,27,-1
 153 0 l 1,28,-1
 9 533 l 1,0,-1
EndSplineSet
Substitution2: "'sups' Superscript lookup 5 subtable" uni02B7
Substitution2: "'aalt' Access All Alternates lookup 0 subtable" uni02B7
EndChar

StartChar: x
Encoding: 120 120 91
Width: 516
GlyphClass: 2
Flags: W
LayerCount: 2
Fore
SplineSet
5 0 m 1,0,-1
 196 274 l 1,1,-1
 14 533 l 1,2,-1
 140 533 l 1,3,-1
 217 411 l 2,4,5
 223 399 223 399 236.5 378 c 128,-1,6
 250 357 250 357 255 347 c 1,7,-1
 258 347 l 1,8,9
 263 356 263 356 296 411 c 2,10,-1
 372 533 l 1,11,-1
 498 533 l 1,12,-1
 318 274 l 1,13,-1
 509 0 l 1,14,-1
 385 0 l 1,15,-1
 299 138 l 2,16,17
 279 169 279 169 258 202 c 1,18,-1
 255 202 l 1,19,20
 236 167 236 167 216 138 c 2,21,-1
 129 0 l 1,22,-1
 5 0 l 1,0,-1
EndSplineSet
Substitution2: "'sups' Superscript lookup 5 subtable" uni02E3
Substitution2: "'aalt' Access All Alternates lookup 0 subtable" uni02E3
EndChar

StartChar: y
Encoding: 121 121 92
Width: 512
GlyphClass: 2
Flags: W
LayerCount: 2
Fore
SplineSet
7 533 m 1,0,-1
 123 533 l 1,1,-1
 220 247 l 2,2,3
 246 168 246 168 259 120 c 1,4,-1
 262 120 l 1,5,6
 270 146 270 146 283 191 c 128,-1,7
 296 236 296 236 300 247 c 2,8,-1
 391 533 l 1,9,-1
 505 533 l 1,10,-1
 281 -76 l 2,11,12
 251 -157 251 -157 207 -189.5 c 128,-1,13
 163 -222 163 -222 97 -222 c 2,14,-1
 63 -222 l 1,15,-1
 63 -136 l 1,16,-1
 81 -136 l 2,17,18
 121 -136 121 -136 147 -116.5 c 128,-1,19
 173 -97 173 -97 191 -49 c 2,20,-1
 209 7 l 1,21,-1
 7 533 l 1,0,-1
EndSplineSet
Substitution2: "'sups' Superscript lookup 5 subtable" uni02B8
Substitution2: "'aalt' Access All Alternates lookup 0 subtable" uni02B8
EndChar

StartChar: z
Encoding: 122 122 93
Width: 484
GlyphClass: 2
Flags: W
LayerCount: 2
Fore
SplineSet
26 0 m 1,0,-1
 26 69 l 1,1,-1
 313 445 l 1,2,-1
 50 445 l 1,3,-1
 50 533 l 1,4,-1
 449 533 l 1,5,-1
 449 468 l 1,6,-1
 160 88 l 1,7,-1
 459 88 l 1,8,-1
 459 0 l 1,9,-1
 26 0 l 1,0,-1
EndSplineSet
EndChar

StartChar: braceleft
Encoding: 123 123 94
Width: 444
GlyphClass: 2
Flags: W
LayerCount: 2
Fore
SplineSet
61 310 m 1,0,-1
 61 391 l 1,1,-1
 91 391 l 2,2,3
 118 391 118 391 133.5 421 c 128,-1,4
 149 451 149 451 149 507 c 2,5,-1
 149 691 l 2,6,7
 149 757 149 757 186 792.5 c 128,-1,8
 223 828 223 828 282 828 c 2,9,-1
 363 828 l 1,10,-1
 363 743 l 1,11,-1
 301 743 l 2,12,13
 280 743 280 743 267 725.5 c 128,-1,14
 254 708 254 708 254 679 c 2,15,-1
 254 493 l 2,16,17
 254 397 254 397 182 351 c 1,18,19
 254 312 254 312 254 217 c 2,20,-1
 254 30 l 2,21,22
 254 -4 254 -4 267.5 -20.5 c 128,-1,23
 281 -37 281 -37 303 -37 c 2,24,-1
 363 -37 l 1,25,-1
 363 -122 l 1,26,-1
 282 -122 l 2,27,28
 224 -122 224 -122 186.5 -88.5 c 128,-1,29
 149 -55 149 -55 149 13 c 2,30,-1
 149 202 l 2,31,32
 149 250 149 250 133.5 280 c 128,-1,33
 118 310 118 310 91 310 c 2,34,-1
 61 310 l 1,0,-1
EndSplineSet
EndChar

StartChar: bar
Encoding: 124 124 95
Width: 285
GlyphClass: 2
Flags: W
LayerCount: 2
Fore
SplineSet
91 -159 m 1,0,-1
 91 862 l 1,1,-1
 196 862 l 1,2,-1
 196 -159 l 1,3,-1
 91 -159 l 1,0,-1
EndSplineSet
EndChar

StartChar: braceright
Encoding: 125 125 96
Width: 444
GlyphClass: 2
Flags: W
LayerCount: 2
Fore
SplineSet
80 -37 m 1,0,-1
 142 -37 l 2,1,2
 190 -37 190 -37 190 30 c 2,3,-1
 190 217 l 2,4,5
 190 308 190 308 262 351 c 1,6,7
 229 373 229 373 209.5 404 c 128,-1,8
 190 435 190 435 190 493 c 2,9,-1
 190 679 l 2,10,11
 190 709 190 709 177.5 726 c 128,-1,12
 165 743 165 743 144 743 c 2,13,-1
 80 743 l 1,14,-1
 80 828 l 1,15,-1
 163 828 l 2,16,17
 221 828 221 828 258 792.5 c 128,-1,18
 295 757 295 757 295 691 c 2,19,-1
 295 507 l 2,20,21
 295 451 295 451 310.5 421 c 128,-1,22
 326 391 326 391 354 391 c 2,23,-1
 384 391 l 1,24,-1
 384 310 l 1,25,-1
 354 310 l 2,26,27
 325 310 325 310 310 279.5 c 128,-1,28
 295 249 295 249 295 202 c 2,29,-1
 295 13 l 2,30,31
 295 -55 295 -55 257.5 -88.5 c 128,-1,32
 220 -122 220 -122 163 -122 c 2,33,-1
 80 -122 l 1,34,-1
 80 -37 l 1,0,-1
EndSplineSet
EndChar

StartChar: asciitilde
Encoding: 126 126 97
Width: 779
GlyphClass: 2
Flags: W
LayerCount: 2
Fore
SplineSet
65 303 m 1,0,1
 132 465 132 465 271 465 c 0,2,3
 310 465 310 465 346.5 445 c 128,-1,4
 383 425 383 425 405.5 401 c 128,-1,5
 428 377 428 377 455.5 357 c 128,-1,6
 483 337 483 337 509 337 c 0,7,8
 534 337 534 337 554.5 347 c 128,-1,9
 575 357 575 357 589 377.5 c 128,-1,10
 603 398 603 398 609 410 c 128,-1,11
 615 422 615 422 625 446 c 1,12,-1
 714 406 l 1,13,14
 649 243 649 243 512 243 c 0,15,16
 472 243 472 243 435 263 c 128,-1,17
 398 283 398 283 375 307 c 128,-1,18
 352 331 352 331 324 351 c 128,-1,19
 296 371 296 371 271 371 c 0,20,21
 200 371 200 371 154 262 c 1,22,-1
 65 303 l 1,0,1
EndSplineSet
EndChar

StartChar: exclamdown
Encoding: 161 161 99
Width: 310
GlyphClass: 2
Flags: W
LayerCount: 2
Fore
SplineSet
96 -205 m 1,0,-1
 106 323 l 1,1,-1
 205 323 l 1,2,-1
 214 -205 l 1,3,-1
 96 -205 l 1,0,-1
82 406 m 1,4,-1
 82 537 l 1,5,-1
 228 537 l 1,6,-1
 228 406 l 1,7,-1
 82 406 l 1,4,-1
EndSplineSet
EndChar

StartChar: cent
Encoding: 162 162 100
Width: 511
GlyphClass: 2
Flags: W
LayerCount: 2
Fore
SplineSet
37 267 m 0,0,1
 37 374 37 374 88 451.5 c 128,-1,2
 139 529 139 529 230 544 c 1,3,-1
 230 621 l 1,4,-1
 324 621 l 1,5,-1
 324 545 l 1,6,7
 385 532 385 532 425 489.5 c 128,-1,8
 465 447 465 447 479 398 c 1,9,-1
 391 374 l 1,10,11
 376 411 376 411 349.5 436.5 c 128,-1,12
 323 462 323 462 284 462 c 0,13,14
 218 462 218 462 181 406.5 c 128,-1,15
 144 351 144 351 144 267 c 0,16,17
 144 178 144 178 181.5 125 c 128,-1,18
 219 72 219 72 282 72 c 0,19,20
 323 72 323 72 356 100 c 128,-1,21
 389 128 389 128 403 166 c 1,22,-1
 492 141 l 1,23,24
 476 89 476 89 433 46 c 128,-1,25
 390 3 390 3 324 -12 c 1,26,-1
 324 -95 l 1,27,-1
 230 -95 l 1,28,-1
 230 -11 l 1,29,30
 144 3 144 3 90.5 77 c 128,-1,31
 37 151 37 151 37 267 c 0,0,1
EndSplineSet
EndChar

StartChar: sterling
Encoding: 163 163 101
Width: 596
GlyphClass: 2
Flags: W
LayerCount: 2
Fore
SplineSet
39 317 m 1,0,-1
 39 410 l 1,1,-1
 145 410 l 1,2,-1
 145 564 l 2,3,4
 145 655 145 655 204.5 703.5 c 128,-1,5
 264 752 264 752 364 752 c 0,6,7
 431 752 431 752 481 717.5 c 128,-1,8
 531 683 531 683 554 638 c 1,9,-1
 476 596 l 1,10,11
 433 658 433 658 365 658 c 0,12,13
 315 658 315 658 284 631.5 c 128,-1,14
 253 605 253 605 253 553 c 2,15,-1
 253 410 l 1,16,-1
 462 410 l 1,17,-1
 462 317 l 1,18,-1
 253 317 l 1,19,-1
 253 217 l 2,20,21
 253 134 253 134 219 100 c 1,22,23
 260 108 260 108 283 108 c 0,24,25
 312 108 312 108 360 92 c 128,-1,26
 408 76 408 76 442 76 c 0,27,28
 507 76 507 76 559 105 c 1,29,-1
 588 17 l 1,30,31
 512 -17 512 -17 441 -17 c 0,32,33
 408 -17 408 -17 344.5 -0.5 c 128,-1,34
 281 16 281 16 250 16 c 0,35,36
 216 16 216 16 169 9.5 c 128,-1,37
 122 3 122 3 93 -5 c 2,38,-1
 62 -11 l 1,39,-1
 36 65 l 1,40,41
 145 92 145 92 145 211 c 2,42,-1
 145 317 l 1,43,-1
 39 317 l 1,0,-1
EndSplineSet
EndChar

StartChar: currency
Encoding: 164 164 102
Width: 649
GlyphClass: 2
Flags: W
LayerCount: 2
Fore
SplineSet
24 148 m 1,0,-1
 132 249 l 1,1,2
 96 296 96 296 96 365 c 0,3,4
 96 436 96 436 131 482 c 1,5,-1
 24 583 l 1,6,-1
 95 652 l 1,7,-1
 199 551 l 1,8,9
 259 589 259 589 325 589 c 256,10,11
 391 589 391 589 451 551 c 1,12,-1
 554 651 l 1,13,-1
 626 583 l 1,14,-1
 518 482 l 1,15,16
 554 434 554 434 554 365 c 256,17,18
 554 296 554 296 518 249 c 1,19,-1
 626 148 l 1,20,-1
 555 79 l 1,21,-1
 451 180 l 1,22,23
 393 141 393 141 325 141 c 0,24,25
 256 141 256 141 199 180 c 1,26,-1
 95 80 l 1,27,-1
 24 148 l 1,0,-1
191 365 m 256,28,29
 191 311 191 311 229 272 c 128,-1,30
 267 233 267 233 325 233 c 0,31,32
 384 233 384 233 421.5 271.5 c 128,-1,33
 459 310 459 310 459 365 c 0,34,35
 459 421 459 421 421 459.5 c 128,-1,36
 383 498 383 498 325 498 c 256,37,38
 267 498 267 498 229 458.5 c 128,-1,39
 191 419 191 419 191 365 c 256,28,29
EndSplineSet
EndChar

StartChar: yen
Encoding: 165 165 103
Width: 615
GlyphClass: 2
Flags: W
LayerCount: 2
Fore
SplineSet
-3 735 m 1,0,-1
 123 735 l 1,1,-1
 234 559 l 2,2,3
 295 456 295 456 306 435 c 1,4,-1
 309 435 l 1,5,-1
 383 559 l 1,6,-1
 493 735 l 1,7,-1
 620 735 l 1,8,-1
 408 415 l 1,9,-1
 554 415 l 1,10,-1
 554 338 l 1,11,-1
 362 338 l 1,12,-1
 362 236 l 1,13,-1
 554 236 l 1,14,-1
 554 158 l 1,15,-1
 362 158 l 1,16,-1
 362 0 l 1,17,-1
 254 0 l 1,18,-1
 254 158 l 1,19,-1
 61 158 l 1,20,-1
 61 236 l 1,21,-1
 254 236 l 1,22,-1
 254 338 l 1,23,-1
 61 338 l 1,24,-1
 61 415 l 1,25,-1
 208 415 l 1,26,-1
 -3 735 l 1,0,-1
EndSplineSet
EndChar

StartChar: brokenbar
Encoding: 166 166 104
Width: 285
GlyphClass: 2
Flags: W
LayerCount: 2
Fore
SplineSet
91 457 m 1,0,-1
 91 862 l 1,1,-1
 196 862 l 1,2,-1
 196 457 l 1,3,-1
 91 457 l 1,0,-1
91 -159 m 1,4,-1
 91 245 l 1,5,-1
 196 245 l 1,6,-1
 196 -159 l 1,7,-1
 91 -159 l 1,4,-1
EndSplineSet
EndChar

StartChar: section
Encoding: 167 167 105
Width: 552
GlyphClass: 2
Flags: W
LayerCount: 2
Fore
SplineSet
44 51 m 1,0,-1
 115 104 l 1,1,2
 166 37 166 37 256 37 c 0,3,4
 357 37 357 37 357 95 c 0,5,6
 357 115 357 115 343 128.5 c 128,-1,7
 329 142 329 142 298 156 c 2,8,-1
 192 204 l 2,9,10
 61 263 61 263 61 358 c 0,11,12
 61 434 61 434 148 498 c 1,13,14
 88 545 88 545 88 603 c 0,15,16
 88 670 88 670 141 711 c 128,-1,17
 194 752 194 752 300 752 c 0,18,19
 433 752 433 752 508 650 c 1,20,-1
 440 596 l 1,21,22
 381 661 381 661 298 661 c 0,23,24
 248 661 248 661 223 645 c 128,-1,25
 198 629 198 629 198 603 c 0,26,27
 198 592 198 592 201 583.5 c 128,-1,28
 204 575 204 575 212.5 567 c 128,-1,29
 221 559 221 559 228.5 553 c 128,-1,30
 236 547 236 547 251.5 539 c 128,-1,31
 267 531 267 531 277 526.5 c 128,-1,32
 287 522 287 522 307 513 c 128,-1,33
 327 504 327 504 338 499 c 0,34,35
 422 460 422 460 449 437 c 0,36,37
 506 392 506 392 506 324 c 0,38,39
 506 246 506 246 429 185 c 1,40,41
 465 149 465 149 465 95 c 0,42,43
 465 26 465 26 413.5 -14 c 128,-1,44
 362 -54 362 -54 256 -54 c 0,45,46
 186 -54 186 -54 129 -23 c 128,-1,47
 72 8 72 8 44 51 c 1,0,-1
171 361 m 0,48,49
 171 330 171 330 189 313.5 c 128,-1,50
 207 297 207 297 253 275 c 2,51,-1
 345 233 l 1,52,53
 397 278 397 278 397 324 c 0,54,55
 397 352 397 352 376 370.5 c 128,-1,56
 355 389 355 389 310 411 c 2,57,-1
 229 451 l 1,58,59
 171 408 171 408 171 361 c 0,48,49
EndSplineSet
EndChar

StartChar: dieresis
Encoding: 168 168 106
Width: 502
GlyphClass: 2
Flags: W
LayerCount: 2
Fore
SplineSet
96 614 m 1,0,-1
 96 735 l 1,1,-1
 216 735 l 1,2,-1
 216 614 l 1,3,-1
 96 614 l 1,0,-1
288 614 m 1,4,-1
 288 735 l 1,5,-1
 407 735 l 1,6,-1
 407 614 l 1,7,-1
 288 614 l 1,4,-1
EndSplineSet
EndChar

StartChar: copyright
Encoding: 169 169 107
Width: 860
GlyphClass: 2
Flags: W
LayerCount: 2
Fore
SplineSet
240 372 m 0,0,1
 240 481 240 481 296 543.5 c 128,-1,2
 352 606 352 606 443 606 c 0,3,4
 507 606 507 606 547.5 570.5 c 128,-1,5
 588 535 588 535 606 482 c 1,6,-1
 532 459 l 1,7,8
 498 529 498 529 443 529 c 0,9,10
 389 529 389 529 359.5 487.5 c 128,-1,11
 330 446 330 446 330 372 c 0,12,13
 330 295 330 295 360.5 255.5 c 128,-1,14
 391 216 391 216 443 216 c 0,15,16
 479 216 479 216 504 238 c 128,-1,17
 529 260 529 260 540 291 c 1,18,-1
 617 269 l 1,19,20
 601 215 601 215 555.5 177 c 128,-1,21
 510 139 510 139 442 139 c 0,22,23
 352 139 352 139 296 200.5 c 128,-1,24
 240 262 240 262 240 372 c 0,0,1
40 373 m 256,25,26
 40 551 40 551 151 660 c 128,-1,27
 262 769 262 769 430 769 c 0,28,29
 601 769 601 769 711 659 c 128,-1,30
 821 549 821 549 821 373 c 0,31,32
 821 199 821 199 711 87.5 c 128,-1,33
 601 -24 601 -24 430 -24 c 0,34,35
 262 -24 262 -24 151 85.5 c 128,-1,36
 40 195 40 195 40 373 c 256,25,26
117 373 m 256,37,38
 117 226 117 226 203.5 135.5 c 128,-1,39
 290 45 290 45 430 45 c 0,40,41
 567 45 567 45 655.5 133.5 c 128,-1,42
 744 222 744 222 744 373 c 0,43,44
 744 521 744 521 656.5 610.5 c 128,-1,45
 569 700 569 700 430 700 c 256,46,47
 291 700 291 700 204 610 c 128,-1,48
 117 520 117 520 117 373 c 256,37,38
EndSplineSet
EndChar

StartChar: ordfeminine
Encoding: 170 170 108
Width: 386
GlyphClass: 2
Flags: W
LayerCount: 2
Fore
SplineSet
32 300 m 1,0,-1
 32 367 l 1,1,-1
 354 367 l 1,2,-1
 354 300 l 1,3,-1
 32 300 l 1,0,-1
103 540 m 0,4,5
 103 518 103 518 120.5 503 c 128,-1,6
 138 488 138 488 167 488 c 0,7,8
 209 488 209 488 238.5 515 c 128,-1,9
 268 542 268 542 268 586 c 2,10,-1
 268 624 l 1,11,12
 253 621 253 621 223 616 c 128,-1,13
 193 611 193 611 176.5 607 c 128,-1,14
 160 603 160 603 140.5 595 c 128,-1,15
 121 587 121 587 112 573.5 c 128,-1,16
 103 560 103 560 103 540 c 0,4,5
26 533 m 0,17,18
 26 570 26 570 43.5 595.5 c 128,-1,19
 61 621 61 621 92 635 c 128,-1,20
 123 649 123 649 151.5 656 c 128,-1,21
 180 663 180 663 217 668.5 c 128,-1,22
 254 674 254 674 268 679 c 1,23,-1
 268 699 l 2,24,25
 268 728 268 728 246.5 745 c 128,-1,26
 225 762 225 762 190 762 c 0,27,28
 156 762 156 762 127 745 c 128,-1,29
 98 728 98 728 82 709 c 1,30,-1
 36 749 l 1,31,32
 58 777 58 777 99.5 799.5 c 128,-1,33
 141 822 141 822 189 822 c 0,34,35
 342 822 342 822 342 671 c 2,36,-1
 342 437 l 1,37,-1
 270 437 l 1,38,-1
 270 483 l 1,39,40
 234 426 234 426 158 426 c 0,41,42
 96 426 96 426 61 455.5 c 128,-1,43
 26 485 26 485 26 533 c 0,17,18
EndSplineSet
EndChar

StartChar: guillemotleft
Encoding: 171 171 109
Width: 500
GlyphClass: 2
Flags: W
LayerCount: 2
Fore
SplineSet
38 260 m 1,0,-1
 201 498 l 1,1,-1
 276 448 l 1,2,-1
 149 260 l 1,3,-1
 275 74 l 1,4,-1
 201 21 l 1,5,-1
 38 260 l 1,0,-1
229 260 m 1,6,-1
 392 489 l 1,7,-1
 465 433 l 1,8,-1
 341 260 l 1,9,-1
 465 85 l 1,10,-1
 392 31 l 1,11,-1
 229 260 l 1,6,-1
EndSplineSet
EndChar

StartChar: logicalnot
Encoding: 172 172 110
Width: 552
GlyphClass: 2
Flags: W
LayerCount: 2
Fore
SplineSet
47 302 m 1,0,-1
 47 394 l 1,1,-1
 507 394 l 1,2,-1
 507 120 l 1,3,-1
 408 120 l 1,4,-1
 408 302 l 1,5,-1
 47 302 l 1,0,-1
EndSplineSet
EndChar

StartChar: uni00AD
Encoding: 173 173 111
Width: 562
GlyphClass: 2
Flags: W
LayerCount: 2
Fore
SplineSet
56 320 m 1,0,-1
 56 411 l 1,1,-1
 505 411 l 1,2,-1
 505 320 l 1,3,-1
 56 320 l 1,0,-1
EndSplineSet
EndChar

StartChar: registered
Encoding: 174 174 112
Width: 860
GlyphClass: 2
Flags: W
LayerCount: 2
Fore
SplineSet
281 145 m 1,0,-1
 281 595 l 1,1,-1
 463 595 l 2,2,3
 530 595 530 595 566.5 556.5 c 128,-1,4
 603 518 603 518 603 463 c 0,5,6
 603 388 603 388 542 355 c 1,7,8
 560 340 560 340 568.5 322 c 128,-1,9
 577 304 577 304 584 274 c 0,10,11
 596 218 596 218 636 145 c 1,12,-1
 537 145 l 1,13,14
 509 188 509 188 494 266 c 0,15,16
 490 283 490 283 488 289.5 c 128,-1,17
 486 296 486 296 481.5 306.5 c 128,-1,18
 477 317 477 317 469.5 321 c 128,-1,19
 462 325 462 325 449 325 c 2,20,-1
 370 325 l 1,21,-1
 370 145 l 1,22,-1
 281 145 l 1,0,-1
370 394 m 1,23,-1
 450 394 l 2,24,25
 481 394 481 394 497.5 411 c 128,-1,26
 514 428 514 428 514 456 c 0,27,28
 514 481 514 481 497 498.5 c 128,-1,29
 480 516 480 516 450 516 c 2,30,-1
 370 516 l 1,31,-1
 370 394 l 1,23,-1
40 374 m 0,32,33
 40 551 40 551 151 660 c 128,-1,34
 262 769 262 769 430 769 c 0,35,36
 602 769 602 769 711.5 659.5 c 128,-1,37
 821 550 821 550 821 374 c 0,38,39
 821 200 821 200 711.5 88 c 128,-1,40
 602 -24 602 -24 430 -24 c 0,41,42
 263 -24 263 -24 151.5 86 c 128,-1,43
 40 196 40 196 40 374 c 0,32,33
117 374 m 0,44,45
 117 225 117 225 202.5 136.5 c 128,-1,46
 288 48 288 48 430 48 c 0,47,48
 569 48 569 48 656.5 136 c 128,-1,49
 744 224 744 224 744 374 c 0,50,51
 744 523 744 523 656 610 c 128,-1,52
 568 697 568 697 430 697 c 0,53,54
 290 697 290 697 203.5 609 c 128,-1,55
 117 521 117 521 117 374 c 0,44,45
EndSplineSet
EndChar

StartChar: macron
Encoding: 175 175 113
Width: 498
GlyphClass: 2
Flags: W
LayerCount: 2
Fore
SplineSet
2 708 m 1,0,-1
 2 799 l 1,1,-1
 497 799 l 1,2,-1
 497 708 l 1,3,-1
 2 708 l 1,0,-1
EndSplineSet
EndChar

StartChar: degree
Encoding: 176 176 114
Width: 427
GlyphClass: 2
Flags: W
LayerCount: 2
Fore
SplineSet
82 613 m 0,0,1
 82 666 82 666 119.5 704 c 128,-1,2
 157 742 157 742 214 742 c 0,3,4
 269 742 269 742 306.5 705.5 c 128,-1,5
 344 669 344 669 344 613 c 0,6,7
 344 558 344 558 306 521 c 128,-1,8
 268 484 268 484 214 484 c 0,9,10
 159 484 159 484 120.5 521.5 c 128,-1,11
 82 559 82 559 82 613 c 0,0,1
150 613 m 0,12,13
 150 586 150 586 168 567.5 c 128,-1,14
 186 549 186 549 214 549 c 0,15,16
 240 549 240 549 258 567.5 c 128,-1,17
 276 586 276 586 276 613 c 0,18,19
 276 639 276 639 258.5 657.5 c 128,-1,20
 241 676 241 676 214 676 c 0,21,22
 185 676 185 676 167.5 657 c 128,-1,23
 150 638 150 638 150 613 c 0,12,13
EndSplineSet
EndChar

StartChar: plusminus
Encoding: 177 177 115
Width: 562
GlyphClass: 2
Flags: W
LayerCount: 2
Fore
SplineSet
41 400 m 1,0,-1
 41 491 l 1,1,-1
 229 491 l 1,2,-1
 229 656 l 1,3,-1
 333 656 l 1,4,-1
 333 491 l 1,5,-1
 521 491 l 1,6,-1
 521 400 l 1,7,-1
 333 400 l 1,8,-1
 333 236 l 1,9,-1
 229 236 l 1,10,-1
 229 400 l 1,11,-1
 41 400 l 1,0,-1
42 85 m 1,12,-1
 42 175 l 1,13,-1
 520 175 l 1,14,-1
 520 85 l 1,15,-1
 42 85 l 1,12,-1
EndSplineSet
EndChar

StartChar: twosuperior
Encoding: 178 178 116
Width: 327
GlyphClass: 2
Flags: W
LayerCount: 2
Fore
SplineSet
26 701 m 1,0,1
 53 821 53 821 164 821 c 0,2,3
 222 821 222 821 258.5 788 c 128,-1,4
 295 755 295 755 295 697 c 0,5,6
 295 636 295 636 229 568 c 0,7,8
 219 558 219 558 200.5 539.5 c 128,-1,9
 182 521 182 521 170 509.5 c 128,-1,10
 158 498 158 498 144.5 480.5 c 128,-1,11
 131 463 131 463 122 447 c 1,12,-1
 294 447 l 1,13,-1
 294 384 l 1,14,-1
 30 384 l 1,15,16
 30 442 30 442 59 485.5 c 128,-1,17
 88 529 88 529 171 608 c 0,18,19
 219 653 219 653 219 697 c 0,20,21
 219 726 219 726 203.5 741.5 c 128,-1,22
 188 757 188 757 163 757 c 256,23,24
 138 757 138 757 121 741.5 c 128,-1,25
 104 726 104 726 100 713.5 c 128,-1,26
 96 701 96 701 91 682 c 1,27,-1
 26 701 l 1,0,1
EndSplineSet
EndChar

StartChar: threesuperior
Encoding: 179 179 117
Width: 327
GlyphClass: 2
Flags: W
LayerCount: 2
Fore
SplineSet
17 475 m 1,0,-1
 78 498 l 1,1,2
 106 438 106 438 158 438 c 0,3,4
 188 438 188 438 208.5 456 c 128,-1,5
 229 474 229 474 229 508 c 0,6,7
 229 538 229 538 206.5 556.5 c 128,-1,8
 184 575 184 575 149 575 c 0,9,10
 135 575 135 575 107 573 c 1,11,-1
 107 638 l 1,12,13
 139 637 139 637 148 637 c 0,14,15
 176 637 176 637 195 653 c 128,-1,16
 214 669 214 669 214 699 c 0,17,18
 214 725 214 725 198 741.5 c 128,-1,19
 182 758 182 758 156 758 c 0,20,21
 112 758 112 758 90 695 c 1,22,-1
 27 715 l 1,23,24
 57 821 57 821 159 821 c 0,25,26
 219 821 219 821 254.5 788.5 c 128,-1,27
 290 756 290 756 290 706 c 0,28,29
 290 644 290 644 239 611 c 1,30,31
 306 581 306 581 306 508 c 0,32,33
 306 446 306 446 266 410 c 128,-1,34
 226 374 226 374 159 374 c 0,35,36
 108 374 108 374 70 401 c 128,-1,37
 32 428 32 428 17 475 c 1,0,-1
EndSplineSet
EndChar

StartChar: acute
Encoding: 180 180 118
Width: 366
GlyphClass: 2
Flags: W
LayerCount: 2
Fore
SplineSet
79 649 m 1,0,-1
 186 823 l 1,1,-1
 315 823 l 1,2,-1
 168 649 l 1,3,-1
 79 649 l 1,0,-1
EndSplineSet
EndChar

StartChar: uni00B5
Encoding: 181 181 119
Width: 568
GlyphClass: 2
Flags: W
LayerCount: 2
Fore
SplineSet
75 -223 m 1,0,-1
 75 533 l 1,1,-1
 179 533 l 1,2,-1
 179 207 l 2,3,4
 179 72 179 72 274 72 c 0,5,6
 334 72 334 72 365 120 c 128,-1,7
 396 168 396 168 396 234 c 2,8,-1
 396 533 l 1,9,-1
 501 533 l 1,10,-1
 501 0 l 1,11,-1
 401 0 l 1,12,-1
 401 68 l 1,13,-1
 400 68 l 1,14,15
 388 34 388 34 348.5 8.5 c 128,-1,16
 309 -17 309 -17 255 -17 c 0,17,18
 207 -17 207 -17 179 18 c 1,19,-1
 179 -223 l 1,20,-1
 75 -223 l 1,0,-1
EndSplineSet
EndChar

StartChar: paragraph
Encoding: 182 182 120
Width: 632
GlyphClass: 2
Flags: W
LayerCount: 2
Fore
SplineSet
53 547 m 0,0,1
 53 647 53 647 106 708.5 c 128,-1,2
 159 770 159 770 258 770 c 2,3,-1
 550 770 l 1,4,-1
 550 -72 l 1,5,-1
 463 -72 l 1,6,-1
 463 674 l 1,7,-1
 380 674 l 1,8,-1
 380 -72 l 1,9,-1
 294 -72 l 1,10,-1
 294 323 l 1,11,12
 269 316 269 316 244 316 c 0,13,14
 163 316 163 316 108 375.5 c 128,-1,15
 53 435 53 435 53 547 c 0,0,1
EndSplineSet
EndChar

StartChar: periodcentered
Encoding: 183 183 121
Width: 345
GlyphClass: 2
Flags: W
LayerCount: 2
Fore
SplineSet
100 286 m 1,0,-1
 100 420 l 1,1,-1
 245 420 l 1,2,-1
 245 286 l 1,3,-1
 100 286 l 1,0,-1
EndSplineSet
EndChar

StartChar: cedilla
Encoding: 184 184 122
Width: 305
GlyphClass: 2
Flags: W
LayerCount: 2
Fore
SplineSet
44 -144 m 1,0,1
 79 -152 79 -152 106 -152 c 0,2,3
 162 -152 162 -152 162 -121 c 0,4,5
 162 -83 162 -83 71 -77 c 1,6,-1
 124 31 l 1,7,-1
 217 31 l 1,8,-1
 187 -29 l 1,9,10
 259 -52 259 -52 259 -122 c 0,11,12
 259 -166 259 -166 225.5 -196.5 c 128,-1,13
 192 -227 192 -227 114 -227 c 0,14,15
 73 -227 73 -227 44 -219 c 1,16,-1
 44 -144 l 1,0,1
EndSplineSet
EndChar

StartChar: onesuperior
Encoding: 185 185 123
Width: 327
GlyphClass: 2
Flags: W
LayerCount: 2
Fore
SplineSet
46 686 m 1,0,-1
 46 745 l 1,1,-1
 72 745 l 2,2,3
 149 745 149 745 149 800 c 2,4,-1
 149 818 l 1,5,-1
 216 818 l 1,6,-1
 216 384 l 1,7,-1
 140 384 l 1,8,-1
 140 686 l 1,9,-1
 46 686 l 1,0,-1
EndSplineSet
EndChar

StartChar: ordmasculine
Encoding: 186 186 124
Width: 391
GlyphClass: 2
Flags: W
LayerCount: 2
Fore
SplineSet
101 623 m 0,0,1
 101 557 101 557 129 523.5 c 128,-1,2
 157 490 157 490 195 490 c 256,3,4
 233 490 233 490 261 524 c 128,-1,5
 289 558 289 558 289 623 c 0,6,7
 289 690 289 690 261 724 c 128,-1,8
 233 758 233 758 195 758 c 256,9,10
 157 758 157 758 129 724 c 128,-1,11
 101 690 101 690 101 623 c 0,0,1
25 623 m 0,12,13
 25 708 25 708 68.5 765 c 128,-1,14
 112 822 112 822 195 822 c 0,15,16
 277 822 277 822 321.5 765 c 128,-1,17
 366 708 366 708 366 623 c 0,18,19
 366 589 366 589 357.5 556.5 c 128,-1,20
 349 524 349 524 330 493.5 c 128,-1,21
 311 463 311 463 276 444.5 c 128,-1,22
 241 426 241 426 195 426 c 256,23,24
 149 426 149 426 114 444 c 128,-1,25
 79 462 79 462 61 492 c 128,-1,26
 43 522 43 522 34 554.5 c 128,-1,27
 25 587 25 587 25 623 c 0,12,13
32 304 m 1,28,-1
 32 371 l 1,29,-1
 358 371 l 1,30,-1
 358 304 l 1,31,-1
 32 304 l 1,28,-1
EndSplineSet
EndChar

StartChar: guillemotright
Encoding: 187 187 125
Width: 500
GlyphClass: 2
Flags: W
LayerCount: 2
Fore
SplineSet
36 433 m 1,0,-1
 110 489 l 1,1,-1
 272 260 l 1,2,-1
 110 31 l 1,3,-1
 37 85 l 1,4,-1
 161 260 l 1,5,-1
 36 433 l 1,0,-1
227 75 m 1,6,-1
 352 260 l 1,7,-1
 225 448 l 1,8,-1
 302 498 l 1,9,-1
 464 260 l 1,10,-1
 302 21 l 1,11,-1
 227 75 l 1,6,-1
EndSplineSet
EndChar

StartChar: onequarter
Encoding: 188 188 126
Width: 971
GlyphClass: 3
Flags: W
LayerCount: 2
Fore
SplineSet
650 137 m 1,0,-1
 756 137 l 1,1,-1
 756 256 l 2,2,3
 756 265 756 265 756.5 284.5 c 128,-1,4
 757 304 757 304 757 308 c 1,5,-1
 650 137 l 1,0,-1
69 637 m 1,6,-1
 69 711 l 1,7,-1
 100 711 l 2,8,9
 185 711 185 711 185 769 c 2,10,-1
 185 793 l 1,11,-1
 268 793 l 1,12,-1
 268 292 l 1,13,-1
 174 292 l 1,14,-1
 174 637 l 1,15,-1
 69 637 l 1,6,-1
164 -51 m 1,16,-1
 637 782 l 1,17,-1
 735 782 l 1,18,-1
 265 -51 l 1,19,-1
 164 -51 l 1,16,-1
554 129 m 1,20,-1
 769 456 l 1,21,-1
 847 456 l 1,22,-1
 847 137 l 1,23,-1
 908 137 l 1,24,-1
 908 58 l 1,25,-1
 847 58 l 1,26,-1
 847 -47 l 1,27,-1
 756 -47 l 1,28,-1
 756 58 l 1,29,-1
 554 58 l 1,30,-1
 554 129 l 1,20,-1
EndSplineSet
Ligature2: "'frac' Diagonal Fractions lookup 7 subtable" one fraction four
Ligature2: "'frac' Diagonal Fractions lookup 7 subtable" one slash four
EndChar

StartChar: onehalf
Encoding: 189 189 127
Width: 971
GlyphClass: 3
Flags: W
LayerCount: 2
Fore
SplineSet
573 316 m 1,0,1
 577 333 577 333 580.5 343.5 c 128,-1,2
 584 354 584 354 596 378.5 c 128,-1,3
 608 403 608 403 623 417.5 c 128,-1,4
 638 432 638 432 667.5 445 c 128,-1,5
 697 458 697 458 733 458 c 0,6,7
 800 458 800 458 843.5 418.5 c 128,-1,8
 887 379 887 379 887 313 c 0,9,10
 887 268 887 268 865 232 c 128,-1,11
 843 196 843 196 800 154 c 0,12,13
 765 121 765 121 749.5 106 c 128,-1,14
 734 91 734 91 717.5 70.5 c 128,-1,15
 701 50 701 50 691 33 c 1,16,-1
 885 33 l 1,17,-1
 885 -45 l 1,18,-1
 579 -45 l 1,19,20
 579 20 579 20 610 70 c 128,-1,21
 641 120 641 120 742 215 c 0,22,23
 793 262 793 262 793 314 c 0,24,25
 793 345 793 345 777 362 c 128,-1,26
 761 379 761 379 732 379 c 0,27,28
 715 379 715 379 701.5 371.5 c 128,-1,29
 688 364 688 364 680.5 356 c 128,-1,30
 673 348 673 348 666 332 c 128,-1,31
 659 316 659 316 658 311 c 128,-1,32
 657 306 657 306 654 292 c 1,33,-1
 573 316 l 1,0,1
69 637 m 1,34,-1
 69 711 l 1,35,-1
 100 711 l 2,36,37
 185 711 185 711 185 769 c 2,38,-1
 185 793 l 1,39,-1
 268 793 l 1,40,-1
 268 292 l 1,41,-1
 174 292 l 1,42,-1
 174 637 l 1,43,-1
 69 637 l 1,34,-1
154 -51 m 1,44,-1
 630 782 l 1,45,-1
 728 782 l 1,46,-1
 255 -51 l 1,47,-1
 154 -51 l 1,44,-1
EndSplineSet
Ligature2: "'frac' Diagonal Fractions lookup 7 subtable" one fraction two
Ligature2: "'frac' Diagonal Fractions lookup 7 subtable" one slash two
EndChar

StartChar: threequarters
Encoding: 190 190 128
Width: 971
GlyphClass: 3
Flags: W
LayerCount: 2
Fore
SplineSet
56 408 m 1,0,-1
 131 436 l 1,1,2
 138 423 138 423 143.5 414 c 128,-1,3
 149 405 149 405 159 392.5 c 128,-1,4
 169 380 169 380 185 374 c 128,-1,5
 201 368 201 368 220 368 c 0,6,7
 253 368 253 368 275 387 c 128,-1,8
 297 406 297 406 297 444 c 0,9,10
 297 477 297 477 273 497 c 128,-1,11
 249 517 249 517 211 517 c 0,12,13
 196 517 196 517 159 515 c 1,14,-1
 159 596 l 1,15,16
 179 594 179 594 209 594 c 256,17,18
 239 594 239 594 259.5 611.5 c 128,-1,19
 280 629 280 629 280 661 c 0,20,21
 280 689 280 689 262.5 707 c 128,-1,22
 245 725 245 725 218 725 c 0,23,24
 197 725 197 725 181.5 713 c 128,-1,25
 166 701 166 701 159 688 c 128,-1,26
 152 675 152 675 145 654 c 1,27,-1
 67 677 l 1,28,29
 83 739 83 739 125 771 c 128,-1,30
 167 803 167 803 221 803 c 0,31,32
 290 803 290 803 332 764.5 c 128,-1,33
 374 726 374 726 374 668 c 0,34,35
 374 602 374 602 319 562 c 1,36,37
 392 523 392 523 392 444 c 0,38,39
 392 372 392 372 345 330 c 128,-1,40
 298 288 298 288 221 288 c 0,41,42
 169 288 169 288 123.5 315.5 c 128,-1,43
 78 343 78 343 56 408 c 1,0,-1
561 128 m 1,44,-1
 776 456 l 1,45,-1
 853 456 l 1,46,-1
 853 137 l 1,47,-1
 914 137 l 1,48,-1
 914 58 l 1,49,-1
 853 58 l 1,50,-1
 853 -47 l 1,51,-1
 761 -47 l 1,52,-1
 761 58 l 1,53,-1
 561 58 l 1,54,-1
 561 128 l 1,44,-1
656 137 m 1,55,-1
 761 137 l 1,56,-1
 761 254 l 2,57,58
 761 262 761 262 761.5 283 c 128,-1,59
 762 304 762 304 762 308 c 1,60,-1
 734 259 l 1,61,-1
 656 137 l 1,55,-1
224 -51 m 1,62,-1
 703 782 l 1,63,-1
 802 782 l 1,64,-1
 325 -51 l 1,65,-1
 224 -51 l 1,62,-1
EndSplineSet
Ligature2: "'frac' Diagonal Fractions lookup 7 subtable" three fraction four
Ligature2: "'frac' Diagonal Fractions lookup 7 subtable" three slash four
EndChar

StartChar: questiondown
Encoding: 191 191 129
Width: 566
GlyphClass: 2
Flags: W
LayerCount: 2
Fore
SplineSet
65 -17 m 0,0,1
 65 28 65 28 82.5 63.5 c 128,-1,2
 100 99 100 99 125 123.5 c 128,-1,3
 150 148 150 148 175.5 171.5 c 128,-1,4
 201 195 201 195 218.5 227.5 c 128,-1,5
 236 260 236 260 236 301 c 2,6,-1
 236 328 l 1,7,-1
 344 328 l 1,8,-1
 344 292 l 2,9,10
 344 245 344 245 327 207 c 128,-1,11
 310 169 310 169 285.5 144.5 c 128,-1,12
 261 120 261 120 236 97.5 c 128,-1,13
 211 75 211 75 194 45 c 128,-1,14
 177 15 177 15 177 -21 c 0,15,16
 177 -71 177 -71 204 -100.5 c 128,-1,17
 231 -130 231 -130 278 -130 c 0,18,19
 366 -130 366 -130 410 -18 c 1,20,-1
 505 -50 l 1,21,22
 481 -126 481 -126 422 -174 c 128,-1,23
 363 -222 363 -222 279 -222 c 0,24,25
 184 -222 184 -222 124.5 -166 c 128,-1,26
 65 -110 65 -110 65 -17 c 0,0,1
217 406 m 1,27,-1
 217 537 l 1,28,-1
 363 537 l 1,29,-1
 363 406 l 1,30,-1
 217 406 l 1,27,-1
EndSplineSet
EndChar

StartChar: AE
Encoding: 198 198 136
Width: 951
GlyphClass: 2
Flags: W
LayerCount: 2
Fore
SplineSet
261 279 m 1,0,-1
 465 279 l 1,1,-1
 465 633 l 1,2,-1
 456 633 l 1,3,-1
 261 279 l 1,0,-1
-4 0 m 1,4,-1
 401 735 l 1,5,-1
 908 735 l 1,6,-1
 908 643 l 1,7,-1
 572 643 l 1,8,-1
 572 426 l 1,9,-1
 873 426 l 1,10,-1
 873 334 l 1,11,-1
 567 334 l 1,12,-1
 567 92 l 1,13,-1
 918 92 l 1,14,-1
 918 0 l 1,15,-1
 465 0 l 1,16,-1
 465 191 l 1,17,-1
 215 191 l 1,18,-1
 112 0 l 1,19,-1
 -4 0 l 1,4,-1
EndSplineSet
EndChar

StartChar: Eth
Encoding: 208 208 146
Width: 686
GlyphClass: 2
Flags: W
LayerCount: 2
Fore
SplineSet
89 0 m 1,0,-1
 89 329 l 1,1,-1
 10 329 l 1,2,-1
 10 416 l 1,3,-1
 89 416 l 1,4,-1
 89 735 l 1,5,-1
 301 735 l 2,6,7
 465 735 465 735 555.5 640.5 c 128,-1,8
 646 546 646 546 646 367 c 0,9,10
 646 288 646 288 626 223.5 c 128,-1,11
 606 159 606 159 566 108 c 128,-1,12
 526 57 526 57 458 28.5 c 128,-1,13
 390 0 390 0 299 0 c 2,14,-1
 89 0 l 1,0,-1
197 92 m 1,15,-1
 287 92 l 2,16,17
 533 92 533 92 533 367 c 0,18,19
 533 643 533 643 288 643 c 2,20,-1
 197 643 l 1,21,-1
 197 416 l 1,22,-1
 385 416 l 1,23,-1
 385 329 l 1,24,-1
 197 329 l 1,25,-1
 197 92 l 1,15,-1
EndSplineSet
EndChar

StartChar: multiply
Encoding: 215 215 153
Width: 557
GlyphClass: 2
Flags: W
LayerCount: 2
Fore
SplineSet
39 199 m 1,0,-1
 215 364 l 1,1,-1
 39 531 l 1,2,-1
 106 596 l 1,3,-1
 278 427 l 1,4,-1
 452 596 l 1,5,-1
 519 531 l 1,6,-1
 343 364 l 1,7,-1
 519 199 l 1,8,-1
 451 133 l 1,9,-1
 278 302 l 1,10,-1
 106 133 l 1,11,-1
 39 199 l 1,0,-1
EndSplineSet
EndChar

StartChar: Oslash
Encoding: 216 216 154
Width: 710
GlyphClass: 2
Flags: W
LayerCount: 2
Fore
SplineSet
43 367 m 0,0,1
 43 540 43 540 129 646 c 128,-1,2
 215 752 215 752 356 752 c 0,3,4
 435 752 435 752 499 716 c 1,5,-1
 539 790 l 1,6,-1
 632 790 l 1,7,-1
 566 666 l 1,8,9
 668 559 668 559 668 367 c 0,10,11
 668 192 668 192 582.5 87.5 c 128,-1,12
 497 -17 497 -17 356 -17 c 0,13,14
 282 -17 282 -17 223 12 c 1,15,-1
 184 -61 l 1,16,-1
 92 -61 l 1,17,-1
 156 59 l 1,18,19
 43 166 43 166 43 367 c 0,0,1
511 565 m 1,20,-1
 270 97 l 1,21,22
 306 76 306 76 356 76 c 0,23,24
 448 76 448 76 502 154 c 128,-1,25
 556 232 556 232 556 367 c 0,26,27
 556 489 556 489 511 565 c 1,20,-1
454 630 m 1,28,29
 411 659 411 659 356 659 c 0,30,31
 262 659 262 659 208.5 580 c 128,-1,32
 155 501 155 501 155 367 c 0,33,34
 155 235 155 235 209 157 c 1,35,-1
 454 630 l 1,28,29
EndSplineSet
EndChar

StartChar: Thorn
Encoding: 222 222 160
Width: 589
GlyphClass: 2
Flags: W
LayerCount: 2
Fore
SplineSet
89 0 m 1,0,-1
 89 735 l 1,1,-1
 197 735 l 1,2,-1
 197 615 l 1,3,-1
 286 615 l 2,4,5
 358 615 358 615 411.5 595.5 c 128,-1,6
 465 576 465 576 495 541.5 c 128,-1,7
 525 507 525 507 539 466.5 c 128,-1,8
 553 426 553 426 553 377 c 0,9,10
 553 257 553 257 480.5 197 c 128,-1,11
 408 137 408 137 284 137 c 2,12,-1
 197 137 l 1,13,-1
 197 0 l 1,14,-1
 89 0 l 1,0,-1
197 229 m 1,15,-1
 273 229 l 2,16,17
 440 229 440 229 440 378 c 0,18,19
 440 523 440 523 277 523 c 2,20,-1
 197 523 l 1,21,-1
 197 229 l 1,15,-1
EndSplineSet
EndChar

StartChar: germandbls
Encoding: 223 223 161
Width: 646
GlyphClass: 2
Flags: W
LayerCount: 2
Fore
SplineSet
89 0 m 1,0,-1
 89 541 l 2,1,2
 89 643 89 643 153.5 697.5 c 128,-1,3
 218 752 218 752 314 752 c 0,4,5
 419 752 419 752 483 698 c 128,-1,6
 547 644 547 644 547 552 c 0,7,8
 547 445 547 445 462 395 c 1,9,-1
 462 393 l 1,10,11
 525 374 525 374 564 325 c 128,-1,12
 603 276 603 276 603 198 c 0,13,14
 603 99 603 99 542 41 c 128,-1,15
 481 -17 481 -17 376 -17 c 0,16,17
 304 -17 304 -17 247 2 c 1,18,-1
 250 97 l 1,19,20
 307 76 307 76 372 76 c 0,21,22
 422 76 422 76 457 110 c 128,-1,23
 492 144 492 144 492 198 c 0,24,25
 492 265 492 265 452.5 301 c 128,-1,26
 413 337 413 337 346 337 c 2,27,-1
 280 337 l 1,28,-1
 280 428 l 1,29,-1
 337 428 l 2,30,31
 380 428 380 428 407.5 460.5 c 128,-1,32
 435 493 435 493 435 547 c 0,33,34
 435 597 435 597 403.5 628 c 128,-1,35
 372 659 372 659 317 659 c 0,36,37
 261 659 261 659 229 625 c 128,-1,38
 197 591 197 591 197 533 c 2,39,-1
 197 0 l 1,40,-1
 89 0 l 1,0,-1
EndSplineSet
EndChar

StartChar: ae
Encoding: 230 230 168
Width: 894
GlyphClass: 2
Flags: W
LayerCount: 2
Fore
SplineSet
35 139 m 0,0,1
 35 288 35 288 268 323 c 0,2,3
 358 337 358 337 383 344 c 0,4,5
 383 347 383 347 382.5 359.5 c 128,-1,6
 382 372 382 372 382 376 c 0,7,8
 382 414 382 414 352 440.5 c 128,-1,9
 322 467 322 467 272 467 c 0,10,11
 179 467 179 467 113 392 c 1,12,-1
 48 446 l 1,13,14
 88 495 88 495 146 523 c 128,-1,15
 204 551 204 551 273 551 c 0,16,17
 397 551 397 551 449 460 c 1,18,19
 513 551 513 551 624 551 c 0,20,21
 726 551 726 551 793 473 c 128,-1,22
 860 395 860 395 860 275 c 0,23,24
 860 268 860 268 859.5 254.5 c 128,-1,25
 859 241 859 241 859 232 c 1,26,-1
 485 232 l 1,27,-1
 485 216 l 1,28,29
 489 158 489 158 526 113 c 128,-1,30
 563 68 563 68 627 68 c 0,31,32
 718 68 718 68 762 149 c 1,33,-1
 849 120 l 1,34,35
 823 61 823 61 765.5 22 c 128,-1,36
 708 -17 708 -17 625 -17 c 0,37,38
 492 -17 492 -17 426 101 c 1,39,40
 349 -17 349 -17 222 -17 c 0,41,42
 136 -17 136 -17 85.5 25.5 c 128,-1,43
 35 68 35 68 35 139 c 0,0,1
141 146 m 0,44,45
 141 114 141 114 166.5 92 c 128,-1,46
 192 70 192 70 235 70 c 0,47,48
 296 70 296 70 339 109.5 c 128,-1,49
 382 149 382 149 382 211 c 2,50,-1
 382 270 l 1,51,52
 334 258 334 258 275 249 c 0,53,54
 210 239 210 239 175.5 215 c 128,-1,55
 141 191 141 191 141 146 c 0,44,45
485 306 m 1,56,-1
 754 306 l 1,57,58
 754 308 754 308 754 310 c 0,59,60
 754 374 754 374 717.5 420 c 128,-1,61
 681 466 681 466 625 466 c 0,62,63
 568 466 568 466 533 426 c 128,-1,64
 498 386 498 386 487 326 c 1,65,-1
 485 306 l 1,56,-1
EndSplineSet
EndChar

StartChar: eth
Encoding: 240 240 178
Width: 559
GlyphClass: 2
Flags: W
LayerCount: 2
Fore
SplineSet
37 234 m 0,0,1
 37 352 37 352 102 422 c 128,-1,2
 167 492 167 492 272 492 c 0,3,4
 318 492 318 492 353.5 474 c 128,-1,5
 389 456 389 456 404 432 c 1,6,7
 382 532 382 532 315 597 c 1,8,-1
 208 518 l 1,9,-1
 147 585 l 1,10,-1
 239 652 l 1,11,12
 192 677 192 677 136 686 c 1,13,-1
 172 770 l 1,14,15
 226 761 226 761 274 743 c 0,16,17
 300 732 300 732 326 716 c 1,18,-1
 428 791 l 1,19,-1
 486 724 l 1,20,-1
 397 658 l 1,21,22
 425 629 425 629 448 594 c 0,23,24
 481 540 481 540 502 457.5 c 128,-1,25
 523 375 523 375 523 272 c 0,26,27
 523 143 523 143 457.5 63 c 128,-1,28
 392 -17 392 -17 274 -17 c 0,29,30
 166 -17 166 -17 101.5 53.5 c 128,-1,31
 37 124 37 124 37 234 c 0,0,1
143 237 m 0,32,33
 143 165 143 165 179.5 118.5 c 128,-1,34
 216 72 216 72 278 72 c 0,35,36
 337 72 337 72 373 117 c 128,-1,37
 409 162 409 162 409 238 c 0,38,39
 409 311 409 311 373 356.5 c 128,-1,40
 337 402 337 402 278 402 c 256,41,42
 219 402 219 402 181 357.5 c 128,-1,43
 143 313 143 313 143 237 c 0,32,33
EndSplineSet
EndChar

StartChar: divide
Encoding: 247 247 185
Width: 557
GlyphClass: 2
Flags: W
LayerCount: 2
Fore
SplineSet
213 491 m 1,0,-1
 213 618 l 1,1,-1
 343 618 l 1,2,-1
 343 491 l 1,3,-1
 213 491 l 1,0,-1
26 317 m 1,4,-1
 26 409 l 1,5,-1
 530 409 l 1,6,-1
 530 317 l 1,7,-1
 26 317 l 1,4,-1
213 108 m 1,8,-1
 213 236 l 1,9,-1
 343 236 l 1,10,-1
 343 108 l 1,11,-1
 213 108 l 1,8,-1
EndSplineSet
EndChar

StartChar: oslash
Encoding: 248 248 186
Width: 561
GlyphClass: 2
Flags: W
LayerCount: 2
Fore
SplineSet
37 266 m 0,0,1
 37 343 37 343 62 405.5 c 128,-1,2
 87 468 87 468 144 509.5 c 128,-1,3
 201 551 201 551 281 551 c 0,4,5
 339 551 339 551 386 528 c 1,6,-1
 422 597 l 1,7,-1
 504 597 l 1,8,-1
 446 486 l 1,9,10
 525 408 525 408 525 266 c 0,11,12
 525 217 525 217 512.5 170.5 c 128,-1,13
 500 124 500 124 473 80 c 128,-1,14
 446 36 446 36 396.5 9.5 c 128,-1,15
 347 -17 347 -17 281 -17 c 0,16,17
 225 -17 225 -17 182 2 c 1,18,-1
 149 -58 l 1,19,-1
 68 -58 l 1,20,-1
 120 41 l 1,21,22
 37 118 37 118 37 266 c 0,0,1
391 386 m 1,23,-1
 226 85 l 1,24,25
 253 72 253 72 281 72 c 0,26,27
 337 72 337 72 377.5 121 c 128,-1,28
 418 170 418 170 418 266 c 0,29,30
 418 339 418 339 391 386 c 1,23,-1
342 445 m 1,31,32
 316 462 316 462 281 462 c 0,33,34
 225 462 225 462 184 412 c 128,-1,35
 143 362 143 362 143 266 c 0,36,37
 143 190 143 190 176 139 c 1,38,-1
 342 445 l 1,31,32
EndSplineSet
EndChar

StartChar: thorn
Encoding: 254 254 192
Width: 589
GlyphClass: 2
Flags: W
LayerCount: 2
Fore
SplineSet
182 267 m 0,0,1
 182 178 182 178 218.5 125 c 128,-1,2
 255 72 255 72 312 72 c 0,3,4
 375 72 375 72 411 123.5 c 128,-1,5
 447 175 447 175 447 267 c 0,6,7
 447 357 447 357 411.5 409.5 c 128,-1,8
 376 462 376 462 312 462 c 0,9,10
 256 462 256 462 219 408.5 c 128,-1,11
 182 355 182 355 182 267 c 0,0,1
79 -223 m 1,12,-1
 79 761 l 1,13,-1
 184 761 l 1,14,-1
 184 459 l 1,15,16
 199 498 199 498 240 524.5 c 128,-1,17
 281 551 281 551 326 551 c 0,18,19
 428 551 428 551 490.5 474.5 c 128,-1,20
 553 398 553 398 553 267 c 0,21,22
 553 193 553 193 533 136.5 c 128,-1,23
 513 80 513 80 479.5 47.5 c 128,-1,24
 446 15 446 15 407 -1 c 128,-1,25
 368 -17 368 -17 325 -17 c 0,26,27
 272 -17 272 -17 235.5 10.5 c 128,-1,28
 199 38 199 38 184 72 c 1,29,-1
 184 -223 l 1,30,-1
 79 -223 l 1,12,-1
EndSplineSet
EndChar

StartChar: Dcroat
Encoding: 272 272 210
Width: 686
GlyphClass: 2
Flags: W
LayerCount: 2
Fore
SplineSet
89 0 m 1,0,-1
 89 329 l 1,1,-1
 -9 329 l 1,2,-1
 -9 416 l 1,3,-1
 89 416 l 1,4,-1
 89 735 l 1,5,-1
 301 735 l 2,6,7
 465 735 465 735 555.5 640.5 c 128,-1,8
 646 546 646 546 646 367 c 0,9,10
 646 288 646 288 626 223.5 c 128,-1,11
 606 159 606 159 566 108 c 128,-1,12
 526 57 526 57 458 28.5 c 128,-1,13
 390 0 390 0 299 0 c 2,14,-1
 89 0 l 1,0,-1
197 92 m 1,15,-1
 287 92 l 2,16,17
 533 92 533 92 533 367 c 0,18,19
 533 643 533 643 288 643 c 2,20,-1
 197 643 l 1,21,-1
 197 416 l 1,22,-1
 365 416 l 1,23,-1
 365 329 l 1,24,-1
 197 329 l 1,25,-1
 197 92 l 1,15,-1
EndSplineSet
EndChar

StartChar: dcroat
Encoding: 273 273 211
Width: 585
GlyphClass: 2
Flags: W
LayerCount: 2
Fore
SplineSet
37 264 m 0,0,1
 37 396 37 396 101.5 470 c 128,-1,2
 166 544 166 544 262 544 c 0,3,4
 313 544 313 544 351.5 518.5 c 128,-1,5
 390 493 390 493 407 459 c 1,6,-1
 407 603 l 1,7,-1
 198 603 l 1,8,-1
 198 681 l 1,9,-1
 407 681 l 1,10,-1
 407 761 l 1,11,-1
 511 761 l 1,12,-1
 511 681 l 1,13,-1
 571 681 l 1,14,-1
 571 603 l 1,15,-1
 511 603 l 1,16,-1
 511 0 l 1,17,-1
 410 0 l 1,18,-1
 410 78 l 1,19,20
 389 35 389 35 350.5 9 c 128,-1,21
 312 -17 312 -17 262 -17 c 0,22,23
 170 -17 170 -17 103.5 54.5 c 128,-1,24
 37 126 37 126 37 264 c 0,0,1
144 264 m 0,25,26
 144 173 144 173 181 122.5 c 128,-1,27
 218 72 218 72 276 72 c 256,28,29
 334 72 334 72 371.5 124.5 c 128,-1,30
 409 177 409 177 409 264 c 0,31,32
 409 348 409 348 372 401.5 c 128,-1,33
 335 455 335 455 276 455 c 256,34,35
 217 455 217 455 180.5 403 c 128,-1,36
 144 351 144 351 144 264 c 0,25,26
EndSplineSet
EndChar

StartChar: uni0123
Encoding: 291 291 229
Width: 571
GlyphClass: 2
Flags: W
LayerCount: 2
Fore
SplineSet
213 625 m 1,0,-1
 300 812 l 1,1,-1
 372 812 l 1,2,-1
 327 625 l 1,3,-1
 213 625 l 1,0,-1
145 277 m 0,4,5
 145 190 145 190 180.5 141 c 128,-1,6
 216 92 216 92 271 92 c 0,7,8
 329 92 329 92 363 140 c 128,-1,9
 397 188 397 188 397 277 c 0,10,11
 397 364 397 364 362.5 413 c 128,-1,12
 328 462 328 462 271 462 c 0,13,14
 215 462 215 462 180 411.5 c 128,-1,15
 145 361 145 361 145 277 c 0,4,5
39 276 m 0,16,17
 39 400 39 400 101 475.5 c 128,-1,18
 163 551 163 551 258 551 c 0,19,20
 313 551 313 551 348 524.5 c 128,-1,21
 383 498 383 498 398 463 c 1,22,-1
 398 533 l 1,23,-1
 501 533 l 1,24,-1
 501 70 l 2,25,26
 501 -81 501 -81 444 -154 c 128,-1,27
 387 -227 387 -227 265 -227 c 0,28,29
 203 -227 203 -227 149 -201 c 128,-1,30
 95 -175 95 -175 61 -126 c 1,31,-1
 131 -78 l 1,32,33
 185 -143 185 -143 267 -143 c 0,34,35
 326 -143 326 -143 359.5 -99 c 128,-1,36
 393 -55 393 -55 396 16 c 0,37,38
 398 61 398 61 398 83 c 1,39,40
 380 48 380 48 343 26 c 128,-1,41
 306 4 306 4 261 4 c 0,42,43
 162 4 162 4 100.5 79 c 128,-1,44
 39 154 39 154 39 276 c 0,16,17
EndSplineSet
EndChar

StartChar: Hbar
Encoding: 294 294 232
Width: 710
GlyphClass: 2
Flags: W
LayerCount: 2
Fore
SplineSet
12 552 m 1,0,-1
 12 638 l 1,1,-1
 89 638 l 1,2,-1
 89 735 l 1,3,-1
 197 735 l 1,4,-1
 197 638 l 1,5,-1
 515 638 l 1,6,-1
 515 735 l 1,7,-1
 622 735 l 1,8,-1
 622 638 l 1,9,-1
 699 638 l 1,10,-1
 699 552 l 1,11,-1
 622 552 l 1,12,-1
 622 0 l 1,13,-1
 515 0 l 1,14,-1
 515 332 l 1,15,-1
 197 332 l 1,16,-1
 197 0 l 1,17,-1
 89 0 l 1,18,-1
 89 552 l 1,19,-1
 12 552 l 1,0,-1
515 552 m 1,20,-1
 197 552 l 1,21,-1
 197 424 l 1,22,-1
 515 424 l 1,23,-1
 515 552 l 1,20,-1
EndSplineSet
EndChar

StartChar: hbar
Encoding: 295 295 233
Width: 565
GlyphClass: 2
Flags: W
LayerCount: 2
Fore
SplineSet
6 603 m 1,0,-1
 6 683 l 1,1,-1
 74 683 l 1,2,-1
 74 761 l 1,3,-1
 178 761 l 1,4,-1
 178 683 l 1,5,-1
 376 683 l 1,6,-1
 376 603 l 1,7,-1
 178 603 l 1,8,-1
 178 448 l 1,9,-1
 179 448 l 1,10,11
 198 481 198 481 237 505.5 c 128,-1,12
 276 530 276 530 324 530 c 0,13,14
 356 530 356 530 383.5 521 c 128,-1,15
 411 512 411 512 439.5 491 c 128,-1,16
 468 470 468 470 485 426.5 c 128,-1,17
 502 383 502 383 502 323 c 2,18,-1
 502 0 l 1,19,-1
 398 0 l 1,20,-1
 398 310 l 2,21,22
 398 441 398 441 306 441 c 0,23,24
 253 441 253 441 215.5 395 c 128,-1,25
 178 349 178 349 178 288 c 2,26,-1
 178 0 l 1,27,-1
 74 0 l 1,28,-1
 74 603 l 1,29,-1
 6 603 l 1,0,-1
EndSplineSet
EndChar

StartChar: dotlessi
Encoding: 305 305 243
Width: 254
GlyphClass: 2
Flags: W
LayerCount: 2
Fore
SplineSet
76 0 m 1,0,-1
 76 533 l 1,1,-1
 180 533 l 1,2,-1
 180 0 l 1,3,-1
 76 0 l 1,0,-1
EndSplineSet
EndChar

StartChar: kgreenlandic
Encoding: 312 312 250
Width: 528
GlyphClass: 2
Flags: W
LayerCount: 2
Fore
SplineSet
74 0 m 1,0,-1
 74 533 l 1,1,-1
 178 533 l 1,2,-1
 178 324 l 1,3,-1
 180 324 l 1,4,-1
 399 533 l 1,5,-1
 532 533 l 1,6,-1
 276 288 l 1,7,-1
 536 0 l 1,8,-1
 411 0 l 1,9,-1
 208 214 l 1,10,-1
 178 182 l 1,11,-1
 178 0 l 1,12,-1
 74 0 l 1,0,-1
EndSplineSet
EndChar

StartChar: Lslash
Encoding: 321 321 259
Width: 544
GlyphClass: 2
Flags: W
LayerCount: 2
Fore
SplineSet
197 340 m 1,0,-1
 197 92 l 1,1,-1
 535 92 l 1,2,-1
 535 0 l 1,3,-1
 89 0 l 1,4,-1
 89 272 l 1,5,-1
 -1 214 l 1,6,-1
 -51 293 l 1,7,-1
 89 382 l 1,8,-1
 89 735 l 1,9,-1
 197 735 l 1,10,-1
 197 449 l 1,11,-1
 299 515 l 1,12,-1
 349 437 l 1,13,-1
 197 340 l 1,0,-1
EndSplineSet
EndChar

StartChar: lslash
Encoding: 322 322 260
Width: 262
GlyphClass: 2
Flags: W
LayerCount: 2
Fore
SplineSet
184 356 m 1,0,-1
 184 0 l 1,1,-1
 79 0 l 1,2,-1
 79 293 l 1,3,-1
 -8 238 l 1,4,-1
 -58 318 l 1,5,-1
 79 403 l 1,6,-1
 79 761 l 1,7,-1
 184 761 l 1,8,-1
 184 466 l 1,9,-1
 271 519 l 1,10,-1
 319 440 l 1,11,-1
 184 356 l 1,0,-1
EndSplineSet
EndChar

StartChar: Eng
Encoding: 330 330 268
Width: 715
GlyphClass: 2
Flags: W
LayerCount: 2
Fore
SplineSet
89 0 m 1,0,-1
 89 735 l 1,1,-1
 205 735 l 1,2,-1
 463 274 l 1,3,-1
 526 159 l 1,4,-1
 532 159 l 1,5,6
 519 254 519 254 519 365 c 2,7,-1
 519 735 l 1,8,-1
 627 735 l 1,9,-1
 627 13 l 2,10,11
 627 -98 627 -98 579 -160 c 128,-1,12
 531 -222 531 -222 438 -222 c 0,13,14
 408 -222 408 -222 335 -213 c 1,15,-1
 335 -122 l 1,16,17
 383 -130 383 -130 417 -130 c 0,18,19
 469 -130 469 -130 489.5 -100 c 128,-1,20
 510 -70 510 -70 512 -1 c 1,21,-1
 250 461 l 1,22,-1
 189 574 l 1,23,-1
 184 574 l 1,24,25
 197 466 197 466 197 381 c 2,26,-1
 197 0 l 1,27,-1
 89 0 l 1,0,-1
EndSplineSet
EndChar

StartChar: eng
Encoding: 331 331 269
Width: 560
GlyphClass: 2
Flags: W
LayerCount: 2
Fore
SplineSet
69 0 m 1,0,-1
 69 533 l 1,1,-1
 169 533 l 1,2,-1
 169 459 l 1,3,-1
 170 459 l 1,4,5
 187 495 187 495 228 523 c 128,-1,6
 269 551 269 551 325 551 c 0,7,8
 403 551 403 551 450.5 502 c 128,-1,9
 498 453 498 453 498 343 c 2,10,-1
 498 9 l 2,11,12
 498 -114 498 -114 445.5 -170.5 c 128,-1,13
 393 -227 393 -227 316 -227 c 0,14,15
 297 -227 297 -227 280 -225 c 128,-1,16
 263 -223 263 -223 245.5 -220.5 c 128,-1,17
 228 -218 228 -218 223 -217 c 1,18,-1
 223 -127 l 1,19,20
 277 -135 277 -135 299 -135 c 0,21,22
 349 -135 349 -135 371.5 -103 c 128,-1,23
 394 -71 394 -71 394 -5 c 2,24,-1
 394 329 l 2,25,26
 394 462 394 462 303 462 c 0,27,28
 249 462 249 462 211 418.5 c 128,-1,29
 173 375 173 375 173 312 c 2,30,-1
 173 0 l 1,31,-1
 69 0 l 1,0,-1
EndSplineSet
EndChar

StartChar: OE
Encoding: 338 338 276
Width: 967
GlyphClass: 2
Flags: W
LayerCount: 2
Fore
SplineSet
43 367 m 0,0,1
 43 541 43 541 131.5 646.5 c 128,-1,2
 220 752 220 752 362 752 c 0,3,4
 423 752 423 752 465 735 c 1,5,-1
 925 735 l 1,6,-1
 925 642 l 1,7,-1
 569 642 l 1,8,-1
 569 426 l 1,9,-1
 889 426 l 1,10,-1
 889 334 l 1,11,-1
 569 334 l 1,12,-1
 569 92 l 1,13,-1
 935 92 l 1,14,-1
 935 0 l 1,15,-1
 467 0 l 1,16,17
 419 -17 419 -17 362 -17 c 0,18,19
 219 -17 219 -17 131 87.5 c 128,-1,20
 43 192 43 192 43 367 c 0,0,1
155 367 m 256,21,22
 155 234 155 234 212 155 c 128,-1,23
 269 76 269 76 362 76 c 0,24,25
 418 76 418 76 461 107 c 1,26,-1
 461 626 l 1,27,28
 421 659 421 659 362 659 c 0,29,30
 267 659 267 659 211 579.5 c 128,-1,31
 155 500 155 500 155 367 c 256,21,22
EndSplineSet
EndChar

StartChar: uni0163
Encoding: 355 355 293
Width: 364
GlyphClass: 2
Flags: W
LayerCount: 2
Fore
SplineSet
18 446 m 1,0,-1
 18 533 l 1,1,-1
 104 533 l 1,2,-1
 104 695 l 1,3,-1
 207 695 l 1,4,-1
 207 533 l 1,5,-1
 335 533 l 1,6,-1
 335 446 l 1,7,-1
 207 446 l 1,8,-1
 207 166 l 2,9,10
 207 125 207 125 224 107 c 128,-1,11
 241 89 241 89 275 89 c 2,12,-1
 336 89 l 1,13,-1
 336 0 l 1,14,-1
 273 0 l 1,15,-1
 264 -34 l 1,16,17
 305 -41 305 -41 327.5 -64 c 128,-1,18
 350 -87 350 -87 350 -120 c 0,19,20
 350 -161 350 -161 315.5 -190 c 128,-1,21
 281 -219 281 -219 207 -219 c 0,22,23
 162 -219 162 -219 120 -208 c 1,24,-1
 120 -143 l 1,25,26
 163 -152 163 -152 204 -152 c 0,27,28
 267 -152 267 -152 267 -114 c 0,29,30
 267 -77 267 -77 163 -71 c 1,31,-1
 183 14 l 1,32,33
 104 47 104 47 104 159 c 2,34,-1
 104 446 l 1,35,-1
 18 446 l 1,0,-1
EndSplineSet
Substitution2: "'locl' Localized Forms in Latin lookup 3 subtable" uni021B
Substitution2: "'locl' Localized Forms in Latin lookup 2 subtable" uni021B
Substitution2: "'aalt' Access All Alternates lookup 0 subtable" uni021B
EndChar

StartChar: Tbar
Encoding: 358 358 296
Width: 559
GlyphClass: 2
Flags: W
LayerCount: 2
Fore
SplineSet
10 642 m 1,0,-1
 10 735 l 1,1,-1
 551 735 l 1,2,-1
 551 642 l 1,3,-1
 335 642 l 1,4,-1
 335 416 l 1,5,-1
 464 416 l 1,6,-1
 464 329 l 1,7,-1
 335 329 l 1,8,-1
 335 0 l 1,9,-1
 227 0 l 1,10,-1
 227 329 l 1,11,-1
 90 329 l 1,12,-1
 90 416 l 1,13,-1
 227 416 l 1,14,-1
 227 642 l 1,15,-1
 10 642 l 1,0,-1
EndSplineSet
EndChar

StartChar: tbar
Encoding: 359 359 297
Width: 364
GlyphClass: 2
Flags: W
LayerCount: 2
Fore
SplineSet
18 446 m 1,0,-1
 18 533 l 1,1,-1
 104 533 l 1,2,-1
 104 695 l 1,3,-1
 207 695 l 1,4,-1
 207 533 l 1,5,-1
 335 533 l 1,6,-1
 335 446 l 1,7,-1
 207 446 l 1,8,-1
 207 358 l 1,9,-1
 338 358 l 1,10,-1
 338 272 l 1,11,-1
 207 272 l 1,12,-1
 207 166 l 2,13,14
 207 125 207 125 224 107 c 128,-1,15
 241 89 241 89 275 89 c 2,16,-1
 336 89 l 1,17,-1
 336 0 l 1,18,-1
 262 0 l 2,19,20
 104 0 104 0 104 159 c 2,21,-1
 104 272 l 1,22,-1
 7 272 l 1,23,-1
 7 358 l 1,24,-1
 104 358 l 1,25,-1
 104 446 l 1,26,-1
 18 446 l 1,0,-1
EndSplineSet
EndChar

StartChar: longs
Encoding: 383 383 321
Width: 309
GlyphClass: 2
Flags: W
LayerCount: 2
Fore
SplineSet
79 0 m 1,0,-1
 79 599 l 2,1,2
 79 680 79 680 119.5 720.5 c 128,-1,3
 160 761 160 761 233 761 c 2,4,-1
 308 761 l 1,5,-1
 308 672 l 1,6,-1
 253 672 l 2,7,8
 183 672 183 672 183 587 c 2,9,-1
 183 0 l 1,10,-1
 79 0 l 1,0,-1
EndSplineSet
EndChar

StartChar: uni0180
Encoding: 384 384 322
Width: 585
GlyphClass: 2
Flags: W
LayerCount: 2
Fore
SplineSet
177 265 m 0,0,1
 177 177 177 177 214.5 124.5 c 128,-1,2
 252 72 252 72 308 72 c 0,3,4
 368 72 368 72 405 123 c 128,-1,5
 442 174 442 174 442 265 c 0,6,7
 442 352 442 352 406 404.5 c 128,-1,8
 370 457 370 457 309 457 c 0,9,10
 252 457 252 457 214.5 404.5 c 128,-1,11
 177 352 177 352 177 265 c 0,0,1
8 603 m 1,12,-1
 8 683 l 1,13,-1
 75 683 l 1,14,-1
 75 761 l 1,15,-1
 178 761 l 1,16,-1
 178 683 l 1,17,-1
 375 683 l 1,18,-1
 375 603 l 1,19,-1
 178 603 l 1,20,-1
 178 457 l 1,21,22
 196 491 196 491 234 518.5 c 128,-1,23
 272 546 272 546 323 546 c 0,24,25
 423 546 423 546 486 470.5 c 128,-1,26
 549 395 549 395 549 265 c 0,27,28
 549 192 549 192 528 135.5 c 128,-1,29
 507 79 507 79 473 47 c 128,-1,30
 439 15 439 15 401 -1 c 128,-1,31
 363 -17 363 -17 324 -17 c 0,32,33
 272 -17 272 -17 232.5 11 c 128,-1,34
 193 39 193 39 176 77 c 1,35,-1
 176 0 l 1,36,-1
 75 0 l 1,37,-1
 75 603 l 1,38,-1
 8 603 l 1,12,-1
EndSplineSet
EndChar

StartChar: uni0182
Encoding: 386 386 324
Width: 656
GlyphClass: 2
Flags: W
LayerCount: 2
Fore
SplineSet
197 92 m 1,0,-1
 375 92 l 2,1,2
 431 92 431 92 468.5 122 c 128,-1,3
 506 152 506 152 506 211 c 0,4,5
 506 263 506 263 470 299 c 128,-1,6
 434 335 434 335 372 335 c 2,7,-1
 197 335 l 1,8,-1
 197 92 l 1,0,-1
89 0 m 1,9,-1
 89 735 l 1,10,-1
 533 735 l 1,11,-1
 533 642 l 1,12,-1
 197 642 l 1,13,-1
 197 426 l 1,14,-1
 381 426 l 2,15,16
 493 426 493 426 555.5 365.5 c 128,-1,17
 618 305 618 305 618 211 c 0,18,19
 618 120 618 120 557 60 c 128,-1,20
 496 0 496 0 391 0 c 2,21,-1
 89 0 l 1,9,-1
EndSplineSet
EndChar

StartChar: uni0183
Encoding: 387 387 325
Width: 585
GlyphClass: 2
Flags: W
LayerCount: 2
Fore
SplineSet
177 267 m 0,0,1
 177 176 177 176 213.5 124 c 128,-1,2
 250 72 250 72 308 72 c 0,3,4
 368 72 368 72 405 123 c 128,-1,5
 442 174 442 174 442 267 c 0,6,7
 442 357 442 357 405.5 409.5 c 128,-1,8
 369 462 369 462 309 462 c 0,9,10
 251 462 251 462 214 408.5 c 128,-1,11
 177 355 177 355 177 267 c 0,0,1
75 0 m 1,12,-1
 75 756 l 1,13,-1
 452 756 l 1,14,-1
 452 667 l 1,15,-1
 178 667 l 1,16,-1
 178 463 l 1,17,18
 189 491 189 491 229 521 c 128,-1,19
 269 551 269 551 323 551 c 0,20,21
 423 551 423 551 486 474.5 c 128,-1,22
 549 398 549 398 549 267 c 0,23,24
 549 193 549 193 528.5 136 c 128,-1,25
 508 79 508 79 474.5 47 c 128,-1,26
 441 15 441 15 403 -1 c 128,-1,27
 365 -17 365 -17 324 -17 c 0,28,29
 273 -17 273 -17 233 11.5 c 128,-1,30
 193 40 193 40 176 77 c 1,31,-1
 176 0 l 1,32,-1
 75 0 l 1,12,-1
EndSplineSet
EndChar

StartChar: uni0184
Encoding: 388 388 326
Width: 661
GlyphClass: 2
Flags: W
LayerCount: 2
Fore
SplineSet
4 667 m 1,0,-1
 135 735 l 1,1,-1
 197 735 l 1,2,-1
 197 424 l 1,3,-1
 384 424 l 2,4,5
 496 424 496 424 559 364 c 128,-1,6
 622 304 622 304 622 211 c 0,7,8
 622 124 622 124 562 62 c 128,-1,9
 502 0 502 0 399 0 c 2,10,-1
 89 0 l 1,11,-1
 89 601 l 1,12,-1
 4 667 l 1,0,-1
197 92 m 1,13,-1
 379 92 l 2,14,15
 434 92 434 92 472 122.5 c 128,-1,16
 510 153 510 153 510 211 c 0,17,18
 510 262 510 262 475 297.5 c 128,-1,19
 440 333 440 333 377 333 c 2,20,-1
 197 333 l 1,21,-1
 197 92 l 1,13,-1
EndSplineSet
EndChar

StartChar: uni0185
Encoding: 389 389 327
Width: 585
GlyphClass: 2
Flags: W
LayerCount: 2
Fore
SplineSet
-5 690 m 1,0,-1
 121 761 l 1,1,-1
 178 761 l 1,2,-1
 178 463 l 1,3,4
 196 502 196 502 237.5 526.5 c 128,-1,5
 279 551 279 551 323 551 c 0,6,7
 423 551 423 551 486 474.5 c 128,-1,8
 549 398 549 398 549 267 c 0,9,10
 549 194 549 194 529 137.5 c 128,-1,11
 509 81 509 81 476 48.5 c 128,-1,12
 443 16 443 16 404.5 -0.5 c 128,-1,13
 366 -17 366 -17 324 -17 c 0,14,15
 273 -17 273 -17 234 10.5 c 128,-1,16
 195 38 195 38 176 77 c 1,17,-1
 176 0 l 1,18,-1
 75 0 l 1,19,-1
 75 624 l 1,20,-1
 -5 690 l 1,0,-1
177 267 m 0,21,22
 177 176 177 176 214 124 c 128,-1,23
 251 72 251 72 308 72 c 0,24,25
 368 72 368 72 405 123.5 c 128,-1,26
 442 175 442 175 442 267 c 0,27,28
 442 355 442 355 406.5 408.5 c 128,-1,29
 371 462 371 462 309 462 c 0,30,31
 251 462 251 462 214 409 c 128,-1,32
 177 356 177 356 177 267 c 0,21,22
EndSplineSet
EndChar

StartChar: uni0186
Encoding: 390 390 328
Width: 658
GlyphClass: 2
Flags: W
LayerCount: 2
Fore
SplineSet
23 169 m 1,0,-1
 120 200 l 1,1,2
 142 148 142 148 188 112 c 128,-1,3
 234 76 234 76 295 76 c 0,4,5
 389 76 389 76 446.5 155 c 128,-1,6
 504 234 504 234 504 368 c 0,7,8
 504 500 504 500 447.5 579.5 c 128,-1,9
 391 659 391 659 295 659 c 0,10,11
 197 659 197 659 134 549 c 1,12,-1
 42 580 l 1,13,14
 73 652 73 652 137.5 702 c 128,-1,15
 202 752 202 752 294 752 c 0,16,17
 437 752 437 752 526.5 649 c 128,-1,18
 616 546 616 546 616 368 c 0,19,20
 616 188 616 188 525 85.5 c 128,-1,21
 434 -17 434 -17 294 -17 c 0,22,23
 239 -17 239 -17 192.5 0 c 128,-1,24
 146 17 146 17 113 46.5 c 128,-1,25
 80 76 80 76 58.5 106 c 128,-1,26
 37 136 37 136 23 169 c 1,0,-1
EndSplineSet
EndChar

StartChar: uni0189
Encoding: 393 393 331
Width: 686
GlyphClass: 2
Flags: W
LayerCount: 2
Fore
SplineSet
89 0 m 1,0,-1
 89 329 l 1,1,-1
 10 329 l 1,2,-1
 10 416 l 1,3,-1
 89 416 l 1,4,-1
 89 735 l 1,5,-1
 301 735 l 2,6,7
 465 735 465 735 555.5 640.5 c 128,-1,8
 646 546 646 546 646 367 c 0,9,10
 646 288 646 288 626 223.5 c 128,-1,11
 606 159 606 159 566 108 c 128,-1,12
 526 57 526 57 458 28.5 c 128,-1,13
 390 0 390 0 299 0 c 2,14,-1
 89 0 l 1,0,-1
197 92 m 1,15,-1
 287 92 l 2,16,17
 533 92 533 92 533 367 c 0,18,19
 533 643 533 643 288 643 c 2,20,-1
 197 643 l 1,21,-1
 197 416 l 1,22,-1
 385 416 l 1,23,-1
 385 329 l 1,24,-1
 197 329 l 1,25,-1
 197 92 l 1,15,-1
EndSplineSet
EndChar

StartChar: uni018B
Encoding: 395 395 333
Width: 656
GlyphClass: 2
Flags: W
LayerCount: 2
Fore
SplineSet
151 211 m 0,0,1
 151 153 151 153 188 122.5 c 128,-1,2
 225 92 225 92 282 92 c 2,3,-1
 460 92 l 1,4,-1
 460 335 l 1,5,-1
 287 335 l 2,6,7
 224 335 224 335 187.5 299.5 c 128,-1,8
 151 264 151 264 151 211 c 0,0,1
40 211 m 0,9,10
 40 305 40 305 102.5 365.5 c 128,-1,11
 165 426 165 426 277 426 c 2,12,-1
 460 426 l 1,13,-1
 460 642 l 1,14,-1
 124 642 l 1,15,-1
 124 735 l 1,16,-1
 568 735 l 1,17,-1
 568 0 l 1,18,-1
 266 0 l 2,19,20
 162 0 162 0 101 60 c 128,-1,21
 40 120 40 120 40 211 c 0,9,10
EndSplineSet
EndChar

StartChar: uni018C
Encoding: 396 396 334
Width: 585
GlyphClass: 2
Flags: W
LayerCount: 2
Fore
SplineSet
143 267 m 0,0,1
 143 174 143 174 180.5 123 c 128,-1,2
 218 72 218 72 276 72 c 0,3,4
 335 72 335 72 371.5 125 c 128,-1,5
 408 178 408 178 408 267 c 0,6,7
 408 355 408 355 371.5 408.5 c 128,-1,8
 335 462 335 462 276 462 c 0,9,10
 216 462 216 462 179.5 409.5 c 128,-1,11
 143 357 143 357 143 267 c 0,0,1
37 267 m 0,12,13
 37 397 37 397 100.5 474 c 128,-1,14
 164 551 164 551 262 551 c 0,15,16
 318 551 318 551 355.5 522 c 128,-1,17
 393 493 393 493 407 463 c 1,18,-1
 407 673 l 1,19,-1
 130 673 l 1,20,-1
 130 761 l 1,21,-1
 511 761 l 1,22,-1
 511 0 l 1,23,-1
 410 0 l 1,24,-1
 410 78 l 1,25,26
 392 40 392 40 353 11.5 c 128,-1,27
 314 -17 314 -17 261 -17 c 0,28,29
 220 -17 220 -17 182 -1 c 128,-1,30
 144 15 144 15 110.5 47 c 128,-1,31
 77 79 77 79 57 136 c 128,-1,32
 37 193 37 193 37 267 c 0,12,13
EndSplineSet
EndChar

StartChar: uni018D
Encoding: 397 397 335
Width: 609
GlyphClass: 2
Flags: W
LayerCount: 2
Fore
SplineSet
144 320 m 0,0,1
 144 260 144 260 193.5 210.5 c 128,-1,2
 243 161 243 161 312 131 c 1,3,4
 380 163 380 163 423 212.5 c 128,-1,5
 466 262 466 262 466 318 c 0,6,7
 466 379 466 379 425 420.5 c 128,-1,8
 384 462 384 462 309 462 c 0,9,10
 235 462 235 462 189.5 422 c 128,-1,11
 144 382 144 382 144 320 c 0,0,1
37 316 m 0,12,13
 37 427 37 427 110.5 488.5 c 128,-1,14
 184 550 184 550 310 550 c 0,15,16
 433 550 433 550 503.5 485.5 c 128,-1,17
 574 421 574 421 574 322 c 0,18,19
 574 256 574 256 527.5 192 c 128,-1,20
 481 128 481 128 399 86 c 1,21,22
 502 25 502 25 502 -56 c 0,23,24
 502 -131 502 -131 442 -175 c 128,-1,25
 382 -219 382 -219 285 -219 c 0,26,27
 201 -219 201 -219 143.5 -185 c 128,-1,28
 86 -151 86 -151 55 -97 c 1,29,-1
 131 -53 l 1,30,31
 154 -84 154 -84 193.5 -107.5 c 128,-1,32
 233 -131 233 -131 284 -131 c 0,33,34
 333 -131 333 -131 364.5 -111 c 128,-1,35
 396 -91 396 -91 396 -58 c 0,36,37
 396 -43 396 -43 385.5 -27.5 c 128,-1,38
 375 -12 375 -12 348.5 5 c 128,-1,39
 322 22 322 22 302.5 32 c 128,-1,40
 283 42 283 42 242 62 c 0,41,42
 37 166 37 166 37 316 c 0,12,13
EndSplineSet
EndChar

StartChar: uni018E
Encoding: 398 398 336
Width: 604
GlyphClass: 2
Flags: W
LayerCount: 2
Fore
SplineSet
37 0 m 1,0,-1
 37 92 l 1,1,-1
 410 92 l 1,2,-1
 410 334 l 1,3,-1
 79 334 l 1,4,-1
 79 426 l 1,5,-1
 410 426 l 1,6,-1
 410 642 l 1,7,-1
 39 642 l 1,8,-1
 39 735 l 1,9,-1
 517 735 l 1,10,-1
 517 0 l 1,11,-1
 37 0 l 1,0,-1
EndSplineSet
EndChar

StartChar: uni018F
Encoding: 399 399 337
Width: 705
GlyphClass: 2
Flags: W
LayerCount: 2
Fore
SplineSet
41 353 m 0,0,1
 41 378 41 378 43 414 c 1,2,-1
 549 414 l 1,3,4
 541 530 541 530 486.5 594.5 c 128,-1,5
 432 659 432 659 342 659 c 0,6,7
 225 659 225 659 153 552 c 1,8,-1
 61 589 l 1,9,10
 101 668 101 668 175 710 c 128,-1,11
 249 752 249 752 344 752 c 0,12,13
 498 752 498 752 580.5 644.5 c 128,-1,14
 663 537 663 537 663 366 c 0,15,16
 663 192 663 192 574.5 87.5 c 128,-1,17
 486 -17 486 -17 346 -17 c 0,18,19
 203 -17 203 -17 122 86.5 c 128,-1,20
 41 190 41 190 41 353 c 0,0,1
154 322 m 1,21,22
 154 318 154 318 154.5 312 c 128,-1,23
 155 306 155 306 155 303 c 0,24,25
 158 259 158 259 170 221 c 128,-1,26
 182 183 182 183 203.5 149 c 128,-1,27
 225 115 225 115 262.5 95.5 c 128,-1,28
 300 76 300 76 348 76 c 0,29,30
 428 76 428 76 487 140 c 128,-1,31
 546 204 546 204 550 322 c 1,32,-1
 154 322 l 1,21,22
EndSplineSet
EndChar

StartChar: uni0190
Encoding: 400 400 338
Width: 608
GlyphClass: 2
Flags: W
LayerCount: 2
Fore
SplineSet
44 206 m 0,0,1
 44 279 44 279 87 325.5 c 128,-1,2
 130 372 130 372 185 389 c 1,3,4
 139 410 139 410 106 455 c 128,-1,5
 73 500 73 500 73 559 c 0,6,7
 73 645 73 645 137 698.5 c 128,-1,8
 201 752 201 752 308 752 c 0,9,10
 364 752 364 752 410 735.5 c 128,-1,11
 456 719 456 719 484.5 691.5 c 128,-1,12
 513 664 513 664 530.5 638 c 128,-1,13
 548 612 548 612 557 585 c 1,14,-1
 466 556 l 1,15,16
 411 663 411 663 315 663 c 0,17,18
 257 663 257 663 220.5 631 c 128,-1,19
 184 599 184 599 184 549 c 0,20,21
 184 493 184 493 230 459 c 128,-1,22
 276 425 276 425 334 425 c 0,23,24
 384 425 384 425 407 427 c 1,25,-1
 407 338 l 1,26,27
 370 341 370 341 332 341 c 0,28,29
 259 341 259 341 207 305 c 128,-1,30
 155 269 155 269 155 207 c 0,31,32
 155 141 155 141 203 106.5 c 128,-1,33
 251 72 251 72 319 72 c 0,34,35
 369 72 369 72 417 101.5 c 128,-1,36
 465 131 465 131 488 173 c 1,37,-1
 576 141 l 1,38,39
 545 67 545 67 475.5 25 c 128,-1,40
 406 -17 406 -17 314 -17 c 0,41,42
 194 -17 194 -17 119 43 c 128,-1,43
 44 103 44 103 44 206 c 0,0,1
EndSplineSet
EndChar

StartChar: uni0191
Encoding: 401 401 339
Width: 566
GlyphClass: 2
Flags: W
LayerCount: 2
Fore
SplineSet
-41 -130 m 1,0,1
 -10 -135 -10 -135 10 -135 c 0,2,3
 52 -135 52 -135 70.5 -106.5 c 128,-1,4
 89 -78 89 -78 89 -17 c 2,5,-1
 89 735 l 1,6,-1
 550 735 l 1,7,-1
 550 642 l 1,8,-1
 197 642 l 1,9,-1
 197 414 l 1,10,-1
 514 414 l 1,11,-1
 514 323 l 1,12,-1
 197 323 l 1,13,-1
 197 -17 l 2,14,15
 197 -76 197 -76 182.5 -118.5 c 128,-1,16
 168 -161 168 -161 143 -183.5 c 128,-1,17
 118 -206 118 -206 90.5 -216.5 c 128,-1,18
 63 -227 63 -227 31 -227 c 0,19,20
 8 -227 8 -227 -41 -219 c 1,21,-1
 -41 -130 l 1,0,1
EndSplineSet
EndChar

StartChar: florin
Encoding: 402 402 340
Width: 343
GlyphClass: 2
Flags: W
LayerCount: 2
Fore
SplineSet
-26 -130 m 1,0,1
 5 -135 5 -135 26 -135 c 0,2,3
 108 -135 108 -135 108 -13 c 2,4,-1
 108 446 l 1,5,-1
 22 446 l 1,6,-1
 22 533 l 1,7,-1
 108 533 l 1,8,-1
 108 599 l 2,9,10
 108 680 108 680 148 720.5 c 128,-1,11
 188 761 188 761 261 761 c 2,12,-1
 341 761 l 1,13,-1
 341 673 l 1,14,-1
 276 673 l 2,15,16
 212 673 212 673 212 590 c 2,17,-1
 212 533 l 1,18,-1
 328 533 l 1,19,-1
 328 446 l 1,20,-1
 212 446 l 1,21,-1
 212 -14 l 2,22,23
 212 -127 212 -127 164 -177 c 128,-1,24
 116 -227 116 -227 46 -227 c 0,25,26
 23 -227 23 -227 -26 -219 c 1,27,-1
 -26 -130 l 1,0,1
EndSplineSet
EndChar

StartChar: uni0194
Encoding: 404 404 342
Width: 626
GlyphClass: 2
Flags: W
LayerCount: 2
Fore
SplineSet
0 735 m 1,0,-1
 117 735 l 1,1,-1
 300 217 l 1,2,-1
 313 175 l 1,3,-1
 315 175 l 1,4,-1
 328 217 l 1,5,-1
 509 735 l 1,6,-1
 626 735 l 1,7,-1
 396 124 l 1,8,9
 484 15 484 15 484 -66 c 0,10,11
 484 -135 484 -135 435.5 -181 c 128,-1,12
 387 -227 387 -227 313 -227 c 0,13,14
 237 -227 237 -227 189 -183 c 128,-1,15
 141 -139 141 -139 141 -66 c 0,16,17
 141 -32 141 -32 158.5 8 c 128,-1,18
 176 48 176 48 190.5 69 c 128,-1,19
 205 90 205 90 232 124 c 1,20,-1
 0 735 l 1,0,-1
249 -62 m 0,21,22
 249 -96 249 -96 267 -118 c 128,-1,23
 285 -140 285 -140 313 -140 c 0,24,25
 342 -140 342 -140 359 -118 c 128,-1,26
 376 -96 376 -96 376 -62 c 0,27,28
 376 -4 376 -4 312 68 c 1,29,30
 249 0 249 0 249 -62 c 0,21,22
EndSplineSet
EndChar

StartChar: uni0195
Encoding: 405 405 343
Width: 886
GlyphClass: 2
Flags: W
LayerCount: 2
Fore
SplineSet
75 0 m 1,0,-1
 75 761 l 1,1,-1
 178 761 l 1,2,-1
 178 469 l 1,3,-1
 179 469 l 1,4,5
 201 505 201 505 240.5 528 c 128,-1,6
 280 551 280 551 326 551 c 0,7,8
 353 551 353 551 376 545.5 c 128,-1,9
 399 540 399 540 423 526 c 128,-1,10
 447 512 447 512 464 489.5 c 128,-1,11
 481 467 481 467 492 430 c 128,-1,12
 503 393 503 393 503 343 c 2,13,-1
 503 188 l 2,14,15
 503 72 503 72 612 72 c 0,16,17
 719 72 719 72 719 190 c 2,18,-1
 719 533 l 1,19,-1
 824 533 l 1,20,-1
 824 174 l 2,21,22
 824 79 824 79 765 31 c 128,-1,23
 706 -17 706 -17 612 -17 c 0,24,25
 569 -17 569 -17 533.5 -8 c 128,-1,26
 498 1 498 1 466.5 21 c 128,-1,27
 435 41 435 41 417 78.5 c 128,-1,28
 399 116 399 116 399 169 c 2,29,-1
 399 329 l 2,30,31
 399 462 399 462 307 462 c 0,32,33
 254 462 254 462 216 417 c 128,-1,34
 178 372 178 372 178 312 c 0,35,36
 178 311 178 311 178 309 c 2,37,-1
 178 0 l 1,38,-1
 75 0 l 1,0,-1
EndSplineSet
EndChar

StartChar: uni0196
Encoding: 406 406 344
Width: 354
GlyphClass: 2
Flags: W
LayerCount: 2
Fore
SplineSet
90 163 m 2,0,-1
 90 735 l 1,1,-1
 198 735 l 1,2,-1
 198 167 l 2,3,4
 198 119 198 119 214 97.5 c 128,-1,5
 230 76 230 76 267 76 c 0,6,7
 303 76 303 76 341 81 c 1,8,-1
 341 -9 l 1,9,10
 267 -17 267 -17 246 -17 c 0,11,12
 177 -17 177 -17 133.5 25.5 c 128,-1,13
 90 68 90 68 90 163 c 2,0,-1
EndSplineSet
EndChar

StartChar: uni0197
Encoding: 407 407 345
Width: 285
GlyphClass: 2
Flags: W
LayerCount: 2
Fore
SplineSet
17 328 m 1,0,-1
 17 413 l 1,1,-1
 89 413 l 1,2,-1
 89 735 l 1,3,-1
 197 735 l 1,4,-1
 197 413 l 1,5,-1
 269 413 l 1,6,-1
 269 328 l 1,7,-1
 197 328 l 1,8,-1
 197 0 l 1,9,-1
 89 0 l 1,10,-1
 89 328 l 1,11,-1
 17 328 l 1,0,-1
EndSplineSet
EndChar

StartChar: uni0198
Encoding: 408 408 346
Width: 646
GlyphClass: 2
Flags: W
LayerCount: 2
Fore
SplineSet
89 0 m 1,0,-1
 89 735 l 1,1,-1
 197 735 l 1,2,-1
 197 384 l 1,3,-1
 199 384 l 1,4,-1
 459 686 l 2,5,6
 517 752 517 752 608 752 c 0,7,8
 656 752 656 752 692 742 c 1,9,-1
 692 649 l 1,10,11
 656 659 656 659 612 659 c 0,12,13
 572 659 572 659 551 635 c 2,14,-1
 357 415 l 1,15,-1
 650 0 l 1,16,-1
 517 0 l 1,17,-1
 288 338 l 1,18,-1
 197 235 l 1,19,-1
 197 0 l 1,20,-1
 89 0 l 1,0,-1
EndSplineSet
EndChar

StartChar: uni0199
Encoding: 409 409 347
Width: 521
GlyphClass: 2
Flags: W
LayerCount: 2
Fore
SplineSet
76 0 m 1,0,-1
 76 615 l 2,1,2
 76 695 76 695 124 737.5 c 128,-1,3
 172 780 172 780 252 780 c 0,4,5
 282 780 282 780 337 777 c 1,6,-1
 337 685 l 1,7,8
 289 690 289 690 271 690 c 0,9,10
 232 690 232 690 205.5 664 c 128,-1,11
 179 638 179 638 179 595 c 2,12,-1
 179 303 l 1,13,-1
 382 533 l 1,14,-1
 515 533 l 1,15,-1
 320 318 l 1,16,-1
 531 0 l 1,17,-1
 407 0 l 1,18,-1
 254 245 l 1,19,-1
 179 163 l 1,20,-1
 179 0 l 1,21,-1
 76 0 l 1,0,-1
EndSplineSet
EndChar

StartChar: uni019A
Encoding: 410 410 348
Width: 262
GlyphClass: 2
Flags: W
LayerCount: 2
Fore
SplineSet
-1 372 m 1,0,-1
 -1 457 l 1,1,-1
 79 457 l 1,2,-1
 79 761 l 1,3,-1
 184 761 l 1,4,-1
 184 457 l 1,5,-1
 264 457 l 1,6,-1
 264 372 l 1,7,-1
 184 372 l 1,8,-1
 184 0 l 1,9,-1
 79 0 l 1,10,-1
 79 372 l 1,11,-1
 -1 372 l 1,0,-1
EndSplineSet
EndChar

StartChar: uni019B
Encoding: 411 411 349
Width: 511
GlyphClass: 2
Flags: W
LayerCount: 2
Fore
SplineSet
7 0 m 1,0,-1
 208 527 l 1,1,-1
 198 559 l 1,2,-1
 84 475 l 1,3,-1
 35 540 l 1,4,-1
 159 629 l 1,5,6
 134 669 134 669 79 669 c 2,7,-1
 60 669 l 1,8,-1
 60 756 l 1,9,-1
 96 756 l 2,10,11
 187 756 187 756 239 686 c 1,12,-1
 336 758 l 1,13,-1
 386 692 l 1,14,-1
 278 616 l 1,15,-1
 505 0 l 1,16,-1
 390 0 l 1,17,-1
 299 286 l 2,18,19
 272 372 272 372 261 412 c 1,20,-1
 257 412 l 1,21,22
 246 368 246 368 219 286 c 2,23,-1
 122 0 l 1,24,-1
 7 0 l 1,0,-1
EndSplineSet
EndChar

StartChar: uni019C
Encoding: 412 412 350
Width: 960
GlyphClass: 2
Flags: W
LayerCount: 2
Fore
SplineSet
88 239 m 2,0,-1
 88 735 l 1,1,-1
 196 735 l 1,2,-1
 196 229 l 2,3,4
 196 75 196 75 290 75 c 0,5,6
 348 75 348 75 387 129 c 128,-1,7
 426 183 426 183 426 259 c 2,8,-1
 426 735 l 1,9,-1
 534 735 l 1,10,-1
 534 225 l 2,11,12
 534 148 534 148 560.5 112 c 128,-1,13
 587 76 587 76 631 76 c 0,14,15
 691 76 691 76 727.5 126.5 c 128,-1,16
 764 177 764 177 764 256 c 2,17,-1
 764 735 l 1,18,-1
 871 735 l 1,19,-1
 871 0 l 1,20,-1
 768 0 l 1,21,-1
 768 77 l 1,22,-1
 767 77 l 1,23,24
 748 37 748 37 703.5 10 c 128,-1,25
 659 -17 659 -17 607 -17 c 0,26,27
 487 -17 487 -17 452 93 c 1,28,29
 434 48 434 48 386 15.5 c 128,-1,30
 338 -17 338 -17 267 -17 c 0,31,32
 88 -17 88 -17 88 239 c 2,0,-1
EndSplineSet
EndChar

StartChar: uni019D
Encoding: 413 413 351
Width: 715
GlyphClass: 2
Flags: W
LayerCount: 2
Fore
SplineSet
89 735 m 1,0,-1
 205 735 l 1,1,-1
 463 274 l 1,2,-1
 525 159 l 1,3,-1
 531 159 l 1,4,5
 518 270 518 270 518 370 c 2,6,-1
 518 735 l 1,7,-1
 627 735 l 1,8,-1
 627 0 l 1,9,-1
 511 0 l 1,10,-1
 253 456 l 1,11,-1
 189 574 l 1,12,-1
 184 574 l 1,13,14
 197 470 197 470 197 364 c 2,15,-1
 197 -7 l 2,16,17
 197 -122 197 -122 149 -174 c 128,-1,18
 101 -226 101 -226 28 -226 c 0,19,20
 -2 -226 -2 -226 -37 -219 c 1,21,-1
 -37 -130 l 1,22,23
 -16 -134 -16 -134 8 -134 c 0,24,25
 53 -134 53 -134 71 -102.5 c 128,-1,26
 89 -71 89 -71 89 -5 c 2,27,-1
 89 735 l 1,0,-1
EndSplineSet
EndChar

StartChar: uni019E
Encoding: 414 414 352
Width: 572
GlyphClass: 2
Flags: W
LayerCount: 2
Fore
SplineSet
69 0 m 1,0,-1
 69 533 l 1,1,-1
 169 533 l 1,2,-1
 169 460 l 1,3,-1
 170 460 l 1,4,5
 188 497 188 497 228 524 c 128,-1,6
 268 551 268 551 325 551 c 0,7,8
 403 551 403 551 450.5 502 c 128,-1,9
 498 453 498 453 498 343 c 2,10,-1
 498 -223 l 1,11,-1
 394 -223 l 1,12,-1
 394 329 l 2,13,14
 394 462 394 462 303 462 c 0,15,16
 249 462 249 462 211 418.5 c 128,-1,17
 173 375 173 375 173 312 c 2,18,-1
 173 0 l 1,19,-1
 69 0 l 1,0,-1
EndSplineSet
EndChar

StartChar: uni019F
Encoding: 415 415 353
Width: 710
GlyphClass: 2
Flags: W
LayerCount: 2
Fore
SplineSet
43 367 m 0,0,1
 43 540 43 540 128.5 646 c 128,-1,2
 214 752 214 752 356 752 c 256,3,4
 498 752 498 752 583 646.5 c 128,-1,5
 668 541 668 541 668 367 c 0,6,7
 668 192 668 192 582.5 87.5 c 128,-1,8
 497 -17 497 -17 356 -17 c 0,9,10
 214 -17 214 -17 128.5 87.5 c 128,-1,11
 43 192 43 192 43 367 c 0,0,1
554 322 m 1,12,-1
 157 322 l 1,13,14
 166 207 166 207 218.5 141.5 c 128,-1,15
 271 76 271 76 356 76 c 0,16,17
 440 76 440 76 493 141 c 128,-1,18
 546 206 546 206 554 322 c 1,12,-1
156 407 m 1,19,-1
 554 407 l 1,20,21
 547 523 547 523 495.5 591 c 128,-1,22
 444 659 444 659 356 659 c 0,23,24
 269 659 269 659 216.5 592 c 128,-1,25
 164 525 164 525 156 407 c 1,19,-1
EndSplineSet
EndChar

StartChar: uni01A2
Encoding: 418 418 356
Width: 968
GlyphClass: 2
Flags: W
LayerCount: 2
Fore
SplineSet
43 364 m 0,0,1
 43 542 43 542 129 647 c 128,-1,2
 215 752 215 752 351 752 c 0,3,4
 393 752 393 752 492.5 732 c 128,-1,5
 592 712 592 712 656 712 c 0,6,7
 756 712 756 712 881 735 c 1,8,-1
 881 0 l 1,9,-1
 773 0 l 1,10,-1
 773 630 l 1,11,12
 725 620 725 620 656 620 c 0,13,14
 602 620 602 620 551 628 c 1,15,-1
 551 60 l 1,16,17
 469 -17 469 -17 351 -17 c 0,18,19
 214 -17 214 -17 128.5 88 c 128,-1,20
 43 193 43 193 43 364 c 0,0,1
155 364 m 0,21,22
 155 231 155 231 209.5 153.5 c 128,-1,23
 264 76 264 76 351 76 c 0,24,25
 397 76 397 76 443 102 c 1,26,-1
 443 644 l 1,27,28
 439 645 439 645 427.5 649 c 128,-1,29
 416 653 416 653 411.5 654 c 128,-1,30
 407 655 407 655 397 657 c 128,-1,31
 387 659 387 659 376 659.5 c 128,-1,32
 365 660 365 660 351 660 c 0,33,34
 265 660 265 660 210 581.5 c 128,-1,35
 155 503 155 503 155 364 c 0,21,22
EndSplineSet
EndChar

StartChar: uni01A3
Encoding: 419 419 357
Width: 775
GlyphClass: 2
Flags: W
LayerCount: 2
Fore
SplineSet
37 266 m 256,0,1
 37 400 37 400 103 475.5 c 128,-1,2
 169 551 169 551 282 551 c 0,3,4
 324 551 324 551 402.5 536 c 128,-1,5
 481 521 481 521 529 521 c 0,6,7
 619 521 619 521 707 538 c 1,8,-1
 707 0 l 1,9,-1
 603 0 l 1,10,-1
 603 437 l 1,11,12
 568 432 568 432 528 432 c 0,13,14
 477 432 477 432 455 436 c 1,15,-1
 455 60 l 1,16,17
 391 -17 391 -17 282 -17 c 0,18,19
 170 -17 170 -17 103.5 57.5 c 128,-1,20
 37 132 37 132 37 266 c 256,0,1
143 266 m 0,21,22
 143 175 143 175 181 123.5 c 128,-1,23
 219 72 219 72 282 72 c 0,24,25
 317 72 317 72 351 109 c 1,26,-1
 351 452 l 1,27,28
 309 462 309 462 282 462 c 0,29,30
 216 462 216 462 179.5 409 c 128,-1,31
 143 356 143 356 143 266 c 0,21,22
EndSplineSet
EndChar

StartChar: uni01A5
Encoding: 421 421 359
Width: 585
GlyphClass: 2
Flags: W
LayerCount: 2
Fore
SplineSet
177 267 m 0,0,1
 177 176 177 176 213 124 c 128,-1,2
 249 72 249 72 308 72 c 0,3,4
 368 72 368 72 405 124 c 128,-1,5
 442 176 442 176 442 267 c 0,6,7
 442 355 442 355 406 408.5 c 128,-1,8
 370 462 370 462 308 462 c 0,9,10
 251 462 251 462 214 408.5 c 128,-1,11
 177 355 177 355 177 267 c 0,0,1
75 -223 m 1,12,-1
 75 600 l 2,13,14
 75 684 75 684 124.5 725.5 c 128,-1,15
 174 767 174 767 248 767 c 0,16,17
 263 767 263 767 332 762 c 1,18,-1
 332 672 l 1,19,20
 292 675 292 675 267 675 c 0,21,22
 225 675 225 675 201 648.5 c 128,-1,23
 177 622 177 622 177 582 c 2,24,-1
 177 458 l 1,25,26
 192 493 192 493 231.5 522 c 128,-1,27
 271 551 271 551 323 551 c 0,28,29
 420 551 420 551 484.5 474 c 128,-1,30
 549 397 549 397 549 267 c 0,31,32
 549 193 549 193 528 136 c 128,-1,33
 507 79 507 79 473.5 47 c 128,-1,34
 440 15 440 15 401.5 -1 c 128,-1,35
 363 -17 363 -17 323 -17 c 0,36,37
 267 -17 267 -17 231 10 c 128,-1,38
 195 37 195 37 179 72 c 1,39,-1
 179 -223 l 1,40,-1
 75 -223 l 1,12,-1
EndSplineSet
EndChar

StartChar: uni01A6
Encoding: 422 422 360
Width: 641
GlyphClass: 2
Flags: W
LayerCount: 2
Fore
SplineSet
188 312 m 1,0,-1
 340 312 l 2,1,2
 472 312 472 312 472 433 c 0,3,4
 472 544 472 544 341 544 c 2,5,-1
 188 544 l 1,6,-1
 188 312 l 1,0,-1
79 0 m 1,7,-1
 79 735 l 1,8,-1
 188 735 l 1,9,-1
 188 636 l 1,10,-1
 362 636 l 2,11,12
 473 636 473 636 528.5 580.5 c 128,-1,13
 584 525 584 525 584 442 c 0,14,15
 584 398 584 398 570.5 364.5 c 128,-1,16
 557 331 557 331 532.5 310 c 128,-1,17
 508 289 508 289 493.5 280 c 128,-1,18
 479 271 479 271 456 261 c 1,19,20
 494 237 494 237 509.5 209.5 c 128,-1,21
 525 182 525 182 537 131 c 0,22,23
 572 -1 572 -1 621 -83 c 1,24,-1
 500 -83 l 1,25,26
 486 -59 486 -59 473 -27 c 128,-1,27
 460 5 460 5 454 21.5 c 128,-1,28
 448 38 448 38 436 78.5 c 128,-1,29
 424 119 424 119 422 126 c 0,30,31
 408 176 408 176 387.5 198.5 c 128,-1,32
 367 221 367 221 324 221 c 2,33,-1
 188 221 l 1,34,-1
 188 0 l 1,35,-1
 79 0 l 1,7,-1
EndSplineSet
EndChar

StartChar: uni01A7
Encoding: 423 423 361
Width: 604
GlyphClass: 2
Flags: W
LayerCount: 2
Fore
SplineSet
33 198 m 0,0,1
 33 243 33 243 50 279 c 128,-1,2
 67 315 67 315 99.5 339 c 128,-1,3
 132 363 132 363 164 378 c 128,-1,4
 196 393 196 393 241 409 c 0,5,6
 348 444 348 444 378 461 c 0,7,8
 442 496 442 496 442 553 c 0,9,10
 442 602 442 602 404 630.5 c 128,-1,11
 366 659 366 659 301 659 c 0,12,13
 201 659 201 659 136 571 c 1,14,-1
 44 603 l 1,15,16
 77 667 77 667 143 709.5 c 128,-1,17
 209 752 209 752 300 752 c 0,18,19
 413 752 413 752 483.5 697.5 c 128,-1,20
 554 643 554 643 554 553 c 0,21,22
 554 514 554 514 538.5 480.5 c 128,-1,23
 523 447 523 447 506.5 428.5 c 128,-1,24
 490 410 490 410 450 389 c 128,-1,25
 410 368 410 368 392 361.5 c 128,-1,26
 374 355 374 355 323 338 c 0,27,28
 315 335 315 335 310 333 c 0,29,30
 271 320 271 320 247 309.5 c 128,-1,31
 223 299 223 299 196.5 282.5 c 128,-1,32
 170 266 170 266 158 243.5 c 128,-1,33
 146 221 146 221 146 193 c 0,34,35
 146 140 146 140 187 107.5 c 128,-1,36
 228 75 228 75 293 75 c 0,37,38
 350 75 350 75 402 105.5 c 128,-1,39
 454 136 454 136 481 182 c 1,40,-1
 576 149 l 1,41,42
 540 74 540 74 466 28.5 c 128,-1,43
 392 -17 392 -17 296 -17 c 0,44,45
 180 -17 180 -17 106.5 39.5 c 128,-1,46
 33 96 33 96 33 198 c 0,0,1
EndSplineSet
EndChar

StartChar: uni01A8
Encoding: 424 424 362
Width: 490
GlyphClass: 2
Flags: W
LayerCount: 2
Fore
SplineSet
31 141 m 0,0,1
 31 174 31 174 46 200.5 c 128,-1,2
 61 227 61 227 88.5 245.5 c 128,-1,3
 116 264 116 264 141 275 c 128,-1,4
 166 286 166 286 202 297 c 0,5,6
 231 306 231 306 243 310 c 128,-1,7
 255 314 255 314 278 323.5 c 128,-1,8
 301 333 301 333 311 341.5 c 128,-1,9
 321 350 321 350 329.5 363.5 c 128,-1,10
 338 377 338 377 338 393 c 0,11,12
 338 426 338 426 312 444 c 128,-1,13
 286 462 286 462 240 462 c 0,14,15
 160 462 160 462 106 386 c 1,16,-1
 36 429 l 1,17,18
 64 481 64 481 119.5 516 c 128,-1,19
 175 551 175 551 243 551 c 0,20,21
 330 551 330 551 387 508.5 c 128,-1,22
 444 466 444 466 444 393 c 0,23,24
 444 331 444 331 400.5 296.5 c 128,-1,25
 357 262 357 262 285 238 c 0,26,27
 276 236 276 236 255 229 c 128,-1,28
 234 222 234 222 224.5 219 c 128,-1,29
 215 216 215 216 198 208.5 c 128,-1,30
 181 201 181 201 173 195.5 c 128,-1,31
 165 190 165 190 155 181.5 c 128,-1,32
 145 173 145 173 141 163 c 128,-1,33
 137 153 137 153 137 141 c 0,34,35
 137 109 137 109 164.5 90 c 128,-1,36
 192 71 192 71 239 71 c 0,37,38
 331 71 331 71 387 153 c 1,39,-1
 463 110 l 1,40,41
 431 53 431 53 373 18 c 128,-1,42
 315 -17 315 -17 239 -17 c 0,43,44
 139 -17 139 -17 85 29 c 128,-1,45
 31 75 31 75 31 141 c 0,0,1
EndSplineSet
EndChar

StartChar: uni01A9
Encoding: 425 425 363
Width: 618
GlyphClass: 2
Flags: W
LayerCount: 2
Fore
SplineSet
79 0 m 1,0,-1
 79 71 l 1,1,-1
 341 369 l 1,2,-1
 79 664 l 1,3,-1
 79 735 l 1,4,-1
 559 735 l 1,5,-1
 559 641 l 1,6,-1
 230 641 l 1,7,-1
 464 369 l 1,8,-1
 230 92 l 1,9,-1
 565 92 l 1,10,-1
 565 0 l 1,11,-1
 79 0 l 1,0,-1
EndSplineSet
EndChar

StartChar: uni01AA
Encoding: 426 426 364
Width: 441
GlyphClass: 2
Flags: W
LayerCount: 2
Fore
SplineSet
44 602 m 0,0,1
 44 570 44 570 64 553 c 128,-1,2
 84 536 84 536 112 536 c 0,3,4
 159 536 159 536 188 563 c 1,5,6
 188 608 188 608 170 638 c 128,-1,7
 152 668 152 668 114 668 c 0,8,9
 84 668 84 668 64 649 c 128,-1,10
 44 630 44 630 44 602 c 0,0,1
-56 597 m 0,11,12
 -56 668 -56 668 -8 710 c 128,-1,13
 40 752 40 752 114 752 c 0,14,15
 200 752 200 752 245 700 c 128,-1,16
 290 648 290 648 290 555 c 2,17,-1
 290 -49 l 2,18,19
 290 -135 290 -135 363 -135 c 0,20,21
 388 -135 388 -135 429 -129 c 1,22,-1
 429 -219 l 1,23,24
 361 -227 361 -227 342 -227 c 0,25,26
 271 -227 271 -227 228 -186 c 128,-1,27
 185 -145 185 -145 185 -56 c 2,28,-1
 185 475 l 1,29,30
 159 451 159 451 96 451 c 0,31,32
 30 451 30 451 -13 492 c 128,-1,33
 -56 533 -56 533 -56 597 c 0,11,12
EndSplineSet
EndChar

StartChar: uni01AB
Encoding: 427 427 365
Width: 364
GlyphClass: 2
Flags: W
LayerCount: 2
Fore
SplineSet
18 446 m 1,0,-1
 18 533 l 1,1,-1
 104 533 l 1,2,-1
 104 695 l 1,3,-1
 207 695 l 1,4,-1
 207 533 l 1,5,-1
 335 533 l 1,6,-1
 335 446 l 1,7,-1
 207 446 l 1,8,-1
 207 166 l 2,9,10
 207 125 207 125 224 107 c 128,-1,11
 241 89 241 89 275 89 c 0,12,13
 321 89 321 89 351 94 c 1,14,-1
 351 -4 l 2,15,16
 351 -114 351 -114 306.5 -170.5 c 128,-1,17
 262 -227 262 -227 181 -227 c 0,18,19
 145 -227 145 -227 112 -220 c 1,20,-1
 112 -129 l 1,21,22
 145 -135 145 -135 168 -135 c 0,23,24
 250 -135 250 -135 250 -20 c 2,25,-1
 250 2 l 1,26,27
 224 4 224 4 197 10 c 0,28,29
 104 37 104 37 104 159 c 2,30,-1
 104 446 l 1,31,-1
 18 446 l 1,0,-1
EndSplineSet
EndChar

StartChar: uni01AC
Encoding: 428 428 366
Width: 606
GlyphClass: 2
Flags: W
LayerCount: 2
Fore
SplineSet
-30 579 m 0,0,1
 -30 659 -30 659 23.5 697 c 128,-1,2
 77 735 77 735 165 735 c 2,3,-1
 597 735 l 1,4,-1
 597 642 l 1,5,-1
 381 642 l 1,6,-1
 381 0 l 1,7,-1
 273 0 l 1,8,-1
 273 642 l 1,9,-1
 166 642 l 2,10,11
 65 642 65 642 65 571 c 0,12,13
 65 549 65 549 70 528 c 1,14,-1
 -25 528 l 1,15,16
 -30 549 -30 549 -30 579 c 0,0,1
EndSplineSet
EndChar

StartChar: uni01AD
Encoding: 429 429 367
Width: 364
GlyphClass: 2
Flags: W
LayerCount: 2
Fore
SplineSet
18 446 m 1,0,-1
 18 533 l 1,1,-1
 104 533 l 1,2,-1
 104 598 l 2,3,4
 104 678 104 678 152.5 721 c 128,-1,5
 201 764 201 764 279 764 c 0,6,7
 295 764 295 764 364 760 c 1,8,-1
 364 669 l 1,9,10
 326 673 326 673 298 673 c 0,11,12
 256 673 256 673 231.5 649 c 128,-1,13
 207 625 207 625 207 585 c 2,14,-1
 207 533 l 1,15,-1
 335 533 l 1,16,-1
 335 446 l 1,17,-1
 207 446 l 1,18,-1
 207 166 l 2,19,20
 207 125 207 125 224 107 c 128,-1,21
 241 89 241 89 275 89 c 2,22,-1
 336 89 l 1,23,-1
 336 0 l 1,24,-1
 262 0 l 2,25,26
 104 0 104 0 104 159 c 2,27,-1
 104 446 l 1,28,-1
 18 446 l 1,0,-1
EndSplineSet
EndChar

StartChar: uni01AE
Encoding: 430 430 368
Width: 559
GlyphClass: 2
Flags: W
LayerCount: 2
Fore
SplineSet
11 642 m 1,0,-1
 11 735 l 1,1,-1
 551 735 l 1,2,-1
 551 642 l 1,3,-1
 335 642 l 1,4,-1
 335 -27 l 2,5,6
 335 -84 335 -84 353.5 -109.5 c 128,-1,7
 372 -135 372 -135 412 -135 c 0,8,9
 432 -135 432 -135 463 -130 c 1,10,-1
 463 -219 l 1,11,12
 417 -227 417 -227 392 -227 c 0,13,14
 359 -227 359 -227 332.5 -218 c 128,-1,15
 306 -209 306 -209 280.5 -187.5 c 128,-1,16
 255 -166 255 -166 241 -125.5 c 128,-1,17
 227 -85 227 -85 227 -27 c 2,18,-1
 227 642 l 1,19,-1
 11 642 l 1,0,-1
EndSplineSet
EndChar

StartChar: uni01B1
Encoding: 433 433 371
Width: 739
GlyphClass: 2
Flags: W
LayerCount: 2
Fore
SplineSet
43 306 m 0,0,1
 43 412 43 412 96.5 485.5 c 128,-1,2
 150 559 150 559 245 595 c 1,3,-1
 245 642 l 1,4,-1
 54 642 l 1,5,-1
 54 735 l 1,6,-1
 327 735 l 1,7,-1
 327 535 l 1,8,9
 242 512 242 512 199 449.5 c 128,-1,10
 156 387 156 387 156 306 c 0,11,12
 156 209 156 209 214.5 143.5 c 128,-1,13
 273 78 273 78 370 78 c 0,14,15
 465 78 465 78 524 143 c 128,-1,16
 583 208 583 208 583 306 c 0,17,18
 583 385 583 385 540.5 448 c 128,-1,19
 498 511 498 511 412 535 c 1,20,-1
 412 735 l 1,21,-1
 685 735 l 1,22,-1
 685 642 l 1,23,-1
 494 642 l 1,24,-1
 494 595 l 1,25,26
 587 561 587 561 641.5 486.5 c 128,-1,27
 696 412 696 412 696 306 c 0,28,29
 696 166 696 166 609 74.5 c 128,-1,30
 522 -17 522 -17 370 -17 c 0,31,32
 219 -17 219 -17 131 74.5 c 128,-1,33
 43 166 43 166 43 306 c 0,0,1
EndSplineSet
EndChar

StartChar: uni01B2
Encoding: 434 434 372
Width: 717
GlyphClass: 2
Flags: W
LayerCount: 2
Fore
SplineSet
87 254 m 2,0,-1
 87 735 l 1,1,-1
 196 735 l 1,2,-1
 196 264 l 2,3,4
 196 159 196 159 232 117.5 c 128,-1,5
 268 76 268 76 339 76 c 0,6,7
 429 76 429 76 495 172 c 128,-1,8
 561 268 561 268 561 416 c 0,9,10
 561 535 561 535 529.5 597 c 128,-1,11
 498 659 498 659 443 659 c 0,12,13
 407 659 407 659 368 648 c 1,14,-1
 368 743 l 1,15,16
 421 752 421 752 458 752 c 0,17,18
 560 752 560 752 616.5 667 c 128,-1,19
 673 582 673 582 673 418 c 0,20,21
 673 301 673 301 634 203 c 128,-1,22
 595 105 595 105 517.5 44 c 128,-1,23
 440 -17 440 -17 339 -17 c 0,24,25
 210 -17 210 -17 148.5 49 c 128,-1,26
 87 115 87 115 87 254 c 2,0,-1
EndSplineSet
EndChar

StartChar: uni01B3
Encoding: 435 435 373
Width: 616
GlyphClass: 2
Flags: W
LayerCount: 2
Fore
SplineSet
-3 735 m 1,0,-1
 122 735 l 1,1,-1
 246 502 l 2,2,3
 277 446 277 446 306 387 c 1,4,-1
 310 387 l 1,5,6
 327 421 327 421 372 503 c 2,7,-1
 451 654 l 2,8,9
 503 752 503 752 590 752 c 0,10,11
 624 752 624 752 651 748 c 1,12,-1
 651 656 l 1,13,14
 632 660 632 660 603 660 c 256,15,16
 574 660 574 660 538 597 c 2,17,-1
 362 300 l 1,18,-1
 362 0 l 1,19,-1
 254 0 l 1,20,-1
 254 300 l 1,21,-1
 -3 735 l 1,0,-1
EndSplineSet
EndChar

StartChar: uni01B4
Encoding: 436 436 374
Width: 510
GlyphClass: 2
Flags: W
LayerCount: 2
Fore
SplineSet
7 533 m 1,0,-1
 123 533 l 1,1,-1
 219 247 l 2,2,3
 242 175 242 175 258 120 c 1,4,-1
 262 120 l 1,5,6
 270 149 270 149 300 247 c 2,7,-1
 368 462 l 2,8,9
 394 546 394 546 498 546 c 0,10,11
 520 546 520 546 562 539 c 1,12,-1
 562 446 l 1,13,14
 532 454 532 454 517 454 c 0,15,16
 475 454 475 454 462 416 c 2,17,-1
 285 -67 l 2,18,19
 254 -151 254 -151 210 -187 c 128,-1,20
 166 -223 166 -223 101 -223 c 2,21,-1
 63 -223 l 1,22,-1
 63 -135 l 1,23,-1
 83 -135 l 2,24,25
 124 -135 124 -135 151 -113 c 128,-1,26
 178 -91 178 -91 195 -36 c 2,27,-1
 209 7 l 1,28,-1
 7 533 l 1,0,-1
EndSplineSet
EndChar

StartChar: uni01B5
Encoding: 437 437 375
Width: 604
GlyphClass: 2
Flags: W
LayerCount: 2
Fore
SplineSet
94 321 m 1,0,-1
 94 406 l 1,1,-1
 264 406 l 1,2,-1
 428 642 l 1,3,-1
 67 642 l 1,4,-1
 67 735 l 1,5,-1
 562 735 l 1,6,-1
 562 655 l 1,7,-1
 389 406 l 1,8,-1
 499 406 l 1,9,-1
 499 321 l 1,10,-1
 327 321 l 1,11,-1
 169 92 l 1,12,-1
 572 92 l 1,13,-1
 572 0 l 1,14,-1
 36 0 l 1,15,-1
 36 79 l 1,16,-1
 203 321 l 1,17,-1
 94 321 l 1,0,-1
EndSplineSet
EndChar

StartChar: uni01B6
Encoding: 438 438 376
Width: 484
GlyphClass: 2
Flags: W
LayerCount: 2
Fore
SplineSet
26 0 m 1,0,-1
 26 69 l 1,1,-1
 149 229 l 1,2,-1
 64 229 l 1,3,-1
 64 314 l 1,4,-1
 214 314 l 1,5,-1
 313 446 l 1,6,-1
 50 446 l 1,7,-1
 50 533 l 1,8,-1
 448 533 l 1,9,-1
 448 468 l 1,10,-1
 332 314 l 1,11,-1
 417 314 l 1,12,-1
 417 229 l 1,13,-1
 266 229 l 1,14,-1
 160 88 l 1,15,-1
 459 88 l 1,16,-1
 459 0 l 1,17,-1
 26 0 l 1,0,-1
EndSplineSet
EndChar

StartChar: uni01B7
Encoding: 439 439 377
Width: 694
GlyphClass: 2
Flags: W
LayerCount: 2
Fore
SplineSet
47 -22 m 1,0,-1
 141 14 l 1,1,2
 162 -45 162 -45 211 -87 c 128,-1,3
 260 -129 260 -129 334 -129 c 0,4,5
 427 -129 427 -129 481 -69.5 c 128,-1,6
 535 -10 535 -10 535 86 c 0,7,8
 535 183 535 183 473.5 240 c 128,-1,9
 412 297 412 297 300 297 c 2,10,-1
 208 297 l 1,11,-1
 208 382 l 1,12,-1
 437 642 l 1,13,-1
 78 642 l 1,14,-1
 78 735 l 1,15,-1
 601 735 l 1,16,-1
 601 673 l 1,17,-1
 343 386 l 1,18,-1
 360 385 l 1,19,20
 492 372 492 372 569.5 293 c 128,-1,21
 647 214 647 214 647 86 c 0,22,23
 647 -51 647 -51 560.5 -135.5 c 128,-1,24
 474 -220 474 -220 337 -220 c 0,25,26
 222 -220 222 -220 150 -162.5 c 128,-1,27
 78 -105 78 -105 47 -22 c 1,0,-1
EndSplineSet
EndChar

StartChar: uni01B8
Encoding: 440 440 378
Width: 694
GlyphClass: 2
Flags: W
LayerCount: 2
Fore
SplineSet
47 86 m 0,0,1
 47 213 47 213 128 294.5 c 128,-1,2
 209 376 209 376 334 385 c 2,3,-1
 351 386 l 1,4,-1
 94 673 l 1,5,-1
 94 735 l 1,6,-1
 617 735 l 1,7,-1
 617 642 l 1,8,-1
 257 642 l 1,9,-1
 487 382 l 1,10,-1
 487 297 l 1,11,-1
 395 297 l 2,12,13
 283 297 283 297 221 240 c 128,-1,14
 159 183 159 183 159 86 c 0,15,16
 159 -10 159 -10 213.5 -69.5 c 128,-1,17
 268 -129 268 -129 360 -129 c 0,18,19
 434 -129 434 -129 483.5 -87 c 128,-1,20
 533 -45 533 -45 553 14 c 1,21,-1
 647 -22 l 1,22,23
 617 -106 617 -106 545 -163 c 128,-1,24
 473 -220 473 -220 358 -220 c 0,25,26
 221 -220 221 -220 134 -135.5 c 128,-1,27
 47 -51 47 -51 47 86 c 0,0,1
EndSplineSet
EndChar

StartChar: uni01B9
Encoding: 441 441 379
Width: 568
GlyphClass: 2
Flags: W
LayerCount: 2
Fore
SplineSet
43 19 m 0,0,1
 43 114 43 114 105.5 181.5 c 128,-1,2
 168 249 168 249 264 254 c 1,3,-1
 282 254 l 1,4,-1
 74 468 l 1,5,-1
 74 533 l 1,6,-1
 499 533 l 1,7,-1
 499 446 l 1,8,-1
 227 446 l 1,9,-1
 411 248 l 1,10,-1
 411 177 l 1,11,-1
 322 177 l 2,12,13
 238 177 238 177 193.5 133 c 128,-1,14
 149 89 149 89 149 19 c 0,15,16
 149 -48 149 -48 188.5 -93 c 128,-1,17
 228 -138 228 -138 294 -138 c 0,18,19
 348 -138 348 -138 384.5 -105.5 c 128,-1,20
 421 -73 421 -73 438 -24 c 1,21,-1
 530 -49 l 1,22,23
 506 -127 506 -127 445 -177 c 128,-1,24
 384 -227 384 -227 291 -227 c 0,25,26
 181 -227 181 -227 112 -157 c 128,-1,27
 43 -87 43 -87 43 19 c 0,0,1
EndSplineSet
EndChar

StartChar: uni01BA
Encoding: 442 442 380
Width: 449
GlyphClass: 2
Flags: W
LayerCount: 2
Fore
SplineSet
40 -63 m 0,0,1
 40 -26 40 -26 66 5.5 c 128,-1,2
 92 37 92 37 128.5 58.5 c 128,-1,3
 165 80 165 80 201.5 99.5 c 128,-1,4
 238 119 238 119 264 140.5 c 128,-1,5
 290 162 290 162 290 184 c 0,6,7
 290 210 290 210 255 227 c 128,-1,8
 220 244 220 244 157 244 c 2,9,-1
 122 244 l 1,10,-1
 122 300 l 1,11,-1
 275 446 l 1,12,-1
 43 446 l 1,13,-1
 43 533 l 1,14,-1
 410 533 l 1,15,-1
 410 464 l 1,16,-1
 237 304 l 1,17,-1
 258 303 l 2,18,19
 320 300 320 300 358 271.5 c 128,-1,20
 396 243 396 243 396 189 c 0,21,22
 396 151 396 151 370.5 119 c 128,-1,23
 345 87 345 87 308 65.5 c 128,-1,24
 271 44 271 44 234.5 24.5 c 128,-1,25
 198 5 198 5 172.5 -15.5 c 128,-1,26
 147 -36 147 -36 147 -57 c 0,27,28
 147 -110 147 -110 222 -110 c 0,29,30
 254 -110 254 -110 327 -96 c 1,31,-1
 327 -186 l 1,32,33
 263 -198 263 -198 206 -198 c 0,34,35
 131 -198 131 -198 85.5 -163 c 128,-1,36
 40 -128 40 -128 40 -63 c 0,0,1
EndSplineSet
EndChar

StartChar: uni01BB
Encoding: 443 443 381
Width: 553
GlyphClass: 2
Flags: W
LayerCount: 2
Fore
SplineSet
101 312 m 1,0,-1
 101 398 l 1,1,-1
 317 398 l 1,2,3
 383 469 383 469 383 546 c 0,4,5
 383 603 383 603 351 633 c 128,-1,6
 319 663 319 663 271 663 c 0,7,8
 173 662 173 662 135 532 c 1,9,-1
 44 559 l 1,10,11
 63 645 63 645 121 698.5 c 128,-1,12
 179 752 179 752 274 752 c 0,13,14
 372 752 372 752 433.5 695 c 128,-1,15
 495 638 495 638 495 541 c 0,16,17
 495 470 495 470 443 398 c 1,18,-1
 526 398 l 1,19,-1
 526 312 l 1,20,-1
 370 312 l 1,21,22
 362 305 362 305 331.5 275.5 c 128,-1,23
 301 246 301 246 292.5 237 c 128,-1,24
 284 228 284 228 261 204 c 128,-1,25
 238 180 238 180 228.5 165.5 c 128,-1,26
 219 151 219 151 205 130.5 c 128,-1,27
 191 110 191 110 182 89 c 1,28,-1
 492 89 l 1,29,-1
 492 0 l 1,30,-1
 51 0 l 1,31,32
 51 78 51 78 98.5 151.5 c 128,-1,33
 146 225 146 225 232 312 c 1,34,-1
 101 312 l 1,0,-1
EndSplineSet
EndChar

StartChar: uni01BC
Encoding: 444 444 382
Width: 580
GlyphClass: 2
Flags: W
LayerCount: 2
Fore
SplineSet
45 131 m 1,0,-1
 133 162 l 1,1,2
 174 72 174 72 275 72 c 0,3,4
 340 72 340 72 378 112.5 c 128,-1,5
 416 153 416 153 416 221 c 0,6,7
 416 283 416 283 371 327.5 c 128,-1,8
 326 372 326 372 237 372 c 0,9,10
 180 372 180 372 114 358 c 1,11,-1
 149 643 l 1,12,-1
 102 643 l 1,13,-1
 102 735 l 1,14,-1
 491 735 l 1,15,-1
 491 642 l 1,16,-1
 250 642 l 1,17,-1
 228 459 l 1,18,19
 239 461 239 461 279 461 c 0,20,21
 392 461 392 461 460.5 394 c 128,-1,22
 529 327 529 327 529 223 c 0,23,24
 529 123 529 123 464 53 c 128,-1,25
 399 -17 399 -17 280 -17 c 0,26,27
 192 -17 192 -17 131.5 25 c 128,-1,28
 71 67 71 67 45 131 c 1,0,-1
EndSplineSet
EndChar

StartChar: uni01BD
Encoding: 445 445 383
Width: 476
GlyphClass: 2
Flags: W
LayerCount: 2
Fore
SplineSet
44 101 m 1,0,-1
 127 138 l 1,1,2
 141 108 141 108 167.5 89.5 c 128,-1,3
 194 71 194 71 224 71 c 0,4,5
 270 71 270 71 296 96 c 128,-1,6
 322 121 322 121 322 162 c 0,7,8
 322 201 322 201 288.5 231 c 128,-1,9
 255 261 255 261 200 261 c 0,10,11
 158 261 158 261 96 252 c 1,12,-1
 127 446 l 1,13,-1
 90 446 l 1,14,-1
 90 533 l 1,15,-1
 393 533 l 1,16,-1
 393 446 l 1,17,-1
 217 446 l 1,18,-1
 201 349 l 1,19,-1
 226 349 l 2,20,21
 317 349 317 349 372.5 296.5 c 128,-1,22
 428 244 428 244 428 166 c 0,23,24
 428 90 428 90 377 36.5 c 128,-1,25
 326 -17 326 -17 225 -17 c 0,26,27
 101 -17 101 -17 44 101 c 1,0,-1
EndSplineSet
EndChar

StartChar: uni01BE
Encoding: 446 446 384
Width: 441
GlyphClass: 2
Flags: W
LayerCount: 2
Fore
SplineSet
26 446 m 1,0,-1
 26 533 l 1,1,-1
 103 533 l 1,2,-1
 103 692 l 1,3,-1
 206 692 l 1,4,-1
 206 533 l 1,5,-1
 328 533 l 1,6,-1
 328 446 l 1,7,-1
 206 446 l 1,8,-1
 206 401 l 2,9,10
 206 368 206 368 226 342.5 c 128,-1,11
 246 317 246 317 274.5 300 c 128,-1,12
 303 283 303 283 330.5 264 c 128,-1,13
 358 245 358 245 378 214 c 128,-1,14
 398 183 398 183 398 141 c 0,15,16
 398 75 398 75 354.5 29 c 128,-1,17
 311 -17 311 -17 218 -17 c 0,18,19
 96 -17 96 -17 34 95 c 1,20,-1
 109 135 l 1,21,22
 153 72 153 72 214 72 c 0,23,24
 252 72 252 72 273 90 c 128,-1,25
 294 108 294 108 294 138 c 0,26,27
 294 163 294 163 274 182 c 128,-1,28
 254 201 254 201 226.5 217.5 c 128,-1,29
 199 234 199 234 171 253.5 c 128,-1,30
 143 273 143 273 123 308 c 128,-1,31
 103 343 103 343 103 391 c 2,32,-1
 103 446 l 1,33,-1
 26 446 l 1,0,-1
EndSplineSet
EndChar

StartChar: uni01BF
Encoding: 447 447 385
Width: 576
GlyphClass: 2
Flags: W
LayerCount: 2
Fore
SplineSet
75 -223 m 1,0,-1
 75 533 l 1,1,-1
 176 533 l 1,2,-1
 176 490 l 1,3,4
 238 551 238 551 328 551 c 0,5,6
 429 551 429 551 484.5 491.5 c 128,-1,7
 540 432 540 432 540 336 c 0,8,9
 540 57 540 57 179 2 c 1,10,-1
 179 -223 l 1,11,-1
 75 -223 l 1,0,-1
179 87 m 1,12,13
 291 103 291 103 363 163.5 c 128,-1,14
 435 224 435 224 435 323 c 0,15,16
 435 393 435 393 401.5 427.5 c 128,-1,17
 368 462 368 462 315 462 c 0,18,19
 273 462 273 462 236 440.5 c 128,-1,20
 199 419 199 419 179 389 c 1,21,-1
 179 87 l 1,12,13
EndSplineSet
EndChar

StartChar: uni01C0
Encoding: 448 448 386
Width: 250
GlyphClass: 2
Flags: W
LayerCount: 2
Fore
SplineSet
78 -206 m 1,0,-1
 78 815 l 1,1,-1
 173 815 l 1,2,-1
 173 -206 l 1,3,-1
 78 -206 l 1,0,-1
EndSplineSet
EndChar

StartChar: uni01C1
Encoding: 449 449 387
Width: 434
GlyphClass: 2
Flags: W
LayerCount: 2
Fore
SplineSet
78 -206 m 1,0,-1
 78 815 l 1,1,-1
 173 815 l 1,2,-1
 173 -206 l 1,3,-1
 78 -206 l 1,0,-1
263 -206 m 1,4,-1
 263 815 l 1,5,-1
 358 815 l 1,6,-1
 358 -206 l 1,7,-1
 263 -206 l 1,4,-1
EndSplineSet
EndChar

StartChar: uni01C2
Encoding: 450 450 388
Width: 341
GlyphClass: 2
Flags: W
LayerCount: 2
Fore
SplineSet
17 414 m 1,0,-1
 17 487 l 1,1,-1
 125 487 l 1,2,-1
 125 815 l 1,3,-1
 220 815 l 1,4,-1
 220 487 l 1,5,-1
 325 487 l 1,6,-1
 325 414 l 1,7,-1
 220 414 l 1,8,-1
 220 273 l 1,9,-1
 325 273 l 1,10,-1
 325 201 l 1,11,-1
 220 201 l 1,12,-1
 220 -206 l 1,13,-1
 125 -206 l 1,14,-1
 125 201 l 1,15,-1
 17 201 l 1,16,-1
 17 273 l 1,17,-1
 125 273 l 1,18,-1
 125 414 l 1,19,-1
 17 414 l 1,0,-1
EndSplineSet
EndChar

StartChar: uni01DD
Encoding: 477 477 415
Width: 556
GlyphClass: 2
Flags: W
LayerCount: 2
Fore
SplineSet
35 257 m 0,0,1
 35 273 35 273 37 302 c 1,2,-1
 415 302 l 1,3,4
 415 369 415 369 376 417 c 128,-1,5
 337 465 337 465 268 465 c 0,6,7
 219 465 219 465 184.5 442 c 128,-1,8
 150 419 150 419 132 384 c 1,9,-1
 45 413 l 1,10,11
 71 472 71 472 127.5 511.5 c 128,-1,12
 184 551 184 551 271 551 c 0,13,14
 383 551 383 551 451.5 471.5 c 128,-1,15
 520 392 520 392 520 263 c 0,16,17
 520 135 520 135 451 59 c 128,-1,18
 382 -17 382 -17 275 -17 c 0,19,20
 169 -17 169 -17 102 59 c 128,-1,21
 35 135 35 135 35 257 c 0,0,1
140 227 m 1,22,23
 140 161 140 161 176.5 114 c 128,-1,24
 213 67 213 67 275 67 c 256,25,26
 337 67 337 67 374.5 113.5 c 128,-1,27
 412 160 412 160 415 227 c 1,28,-1
 140 227 l 1,22,23
EndSplineSet
EndChar

StartChar: uni01E4
Encoding: 484 484 422
Width: 724
GlyphClass: 2
Flags: W
LayerCount: 2
Fore
SplineSet
43 368 m 0,0,1
 43 533 43 533 130 642.5 c 128,-1,2
 217 752 217 752 373 752 c 0,3,4
 425 752 425 752 470.5 735 c 128,-1,5
 516 718 516 718 547 690.5 c 128,-1,6
 578 663 578 663 598.5 636.5 c 128,-1,7
 619 610 619 610 631 583 c 1,8,-1
 537 552 l 1,9,10
 521 576 521 576 512.5 587 c 128,-1,11
 504 598 504 598 482.5 618.5 c 128,-1,12
 461 639 461 639 434 649 c 128,-1,13
 407 659 407 659 373 659 c 0,14,15
 271 659 271 659 212.5 580 c 128,-1,16
 154 501 154 501 154 368 c 256,17,18
 154 235 154 235 212.5 155.5 c 128,-1,19
 271 76 271 76 365 76 c 0,20,21
 418 76 418 76 460 101.5 c 128,-1,22
 502 127 502 127 524 174 c 1,23,-1
 341 174 l 1,24,-1
 341 243 l 1,25,-1
 546 243 l 1,26,27
 549 262 549 262 549 277 c 2,28,-1
 549 316 l 1,29,-1
 358 316 l 1,30,-1
 358 406 l 1,31,-1
 654 406 l 1,32,-1
 654 243 l 1,33,-1
 716 243 l 1,34,-1
 716 174 l 1,35,-1
 654 174 l 1,36,-1
 654 0 l 1,37,-1
 577 0 l 1,38,-1
 568 86 l 1,39,40
 509 -17 509 -17 364 -17 c 0,41,42
 223 -17 223 -17 133 86.5 c 128,-1,43
 43 190 43 190 43 368 c 0,0,1
EndSplineSet
EndChar

StartChar: uni01E5
Encoding: 485 485 423
Width: 574
GlyphClass: 2
Flags: W
LayerCount: 2
Fore
SplineSet
39 288 m 0,0,1
 39 404 39 404 101 477.5 c 128,-1,2
 163 551 163 551 260 551 c 0,3,4
 313 551 313 551 349 524 c 128,-1,5
 385 497 385 497 398 464 c 1,6,-1
 398 533 l 1,7,-1
 501 533 l 1,8,-1
 501 89 l 2,9,10
 501 26 501 26 497 -8 c 1,11,-1
 565 -8 l 1,12,-1
 565 -72 l 1,13,-1
 484 -72 l 1,14,15
 461 -149 461 -149 409.5 -188 c 128,-1,16
 358 -227 358 -227 266 -227 c 0,17,18
 134 -227 134 -227 61 -126 c 1,19,-1
 131 -78 l 1,20,21
 184 -143 184 -143 268 -143 c 0,22,23
 342 -143 342 -143 377 -72 c 1,24,-1
 201 -72 l 1,25,-1
 201 -8 l 1,26,-1
 393 -8 l 1,27,28
 398 16 398 16 398 63 c 2,29,-1
 398 117 l 1,30,31
 380 82 380 82 343 59.5 c 128,-1,32
 306 37 306 37 260 37 c 0,33,34
 164 37 164 37 101.5 105 c 128,-1,35
 39 173 39 173 39 288 c 0,0,1
145 288 m 0,36,37
 145 211 145 211 181.5 168 c 128,-1,38
 218 125 218 125 270 125 c 0,39,40
 324 125 324 125 360 171 c 128,-1,41
 396 217 396 217 396 295 c 0,42,43
 396 372 396 372 361 417 c 128,-1,44
 326 462 326 462 272 462 c 0,45,46
 216 462 216 462 180.5 413 c 128,-1,47
 145 364 145 364 145 288 c 0,36,37
EndSplineSet
EndChar

StartChar: uni01EF
Encoding: 495 495 433
Width: 568
GlyphClass: 2
Flags: W
LayerCount: 2
Fore
SplineSet
80 787 m 1,0,-1
 184 787 l 1,1,-1
 279 681 l 1,2,-1
 375 787 l 1,3,-1
 478 787 l 1,4,-1
 323 625 l 1,5,-1
 233 625 l 1,6,-1
 80 787 l 1,0,-1
40 -49 m 1,7,-1
 131 -24 l 1,8,9
 149 -73 149 -73 185 -105.5 c 128,-1,10
 221 -138 221 -138 275 -138 c 0,11,12
 341 -138 341 -138 380.5 -93 c 128,-1,13
 420 -48 420 -48 420 22 c 0,14,15
 420 90 420 90 375.5 133.5 c 128,-1,16
 331 177 331 177 248 177 c 2,17,-1
 158 177 l 1,18,-1
 158 248 l 1,19,-1
 342 446 l 1,20,-1
 70 446 l 1,21,-1
 70 533 l 1,22,-1
 496 533 l 1,23,-1
 496 468 l 1,24,-1
 288 254 l 1,25,-1
 332 249 l 1,26,27
 416 234 416 234 472 171.5 c 128,-1,28
 528 109 528 109 528 22 c 0,29,30
 528 -87 528 -87 459.5 -157 c 128,-1,31
 391 -227 391 -227 279 -227 c 0,32,33
 186 -227 186 -227 124.5 -177 c 128,-1,34
 63 -127 63 -127 40 -49 c 1,7,-1
EndSplineSet
EndChar

StartChar: uni01F6
Encoding: 502 502 440
Width: 1005
GlyphClass: 2
Flags: W
LayerCount: 2
Fore
SplineSet
89 0 m 1,0,-1
 89 735 l 1,1,-1
 197 735 l 1,2,-1
 197 424 l 1,3,-1
 506 424 l 1,4,-1
 506 735 l 1,5,-1
 615 735 l 1,6,-1
 615 200 l 2,7,8
 615 134 615 134 645.5 103 c 128,-1,9
 676 72 676 72 727 72 c 0,10,11
 774 72 774 72 804.5 104.5 c 128,-1,12
 835 137 835 137 835 190 c 2,13,-1
 835 533 l 1,14,-1
 942 533 l 1,15,-1
 942 178 l 2,16,17
 942 82 942 82 880 32.5 c 128,-1,18
 818 -17 818 -17 727 -17 c 0,19,20
 634 -17 634 -17 570 29.5 c 128,-1,21
 506 76 506 76 506 178 c 2,22,-1
 506 332 l 1,23,-1
 197 332 l 1,24,-1
 197 0 l 1,25,-1
 89 0 l 1,0,-1
EndSplineSet
EndChar

StartChar: uni01F7
Encoding: 503 503 441
Width: 645
GlyphClass: 2
Flags: W
LayerCount: 2
Fore
SplineSet
89 -217 m 1,0,-1
 89 735 l 1,1,-1
 198 735 l 1,2,-1
 198 664 l 1,3,4
 288 752 288 752 389 752 c 0,5,6
 496 752 496 752 550 683.5 c 128,-1,7
 604 615 604 615 604 493 c 0,8,9
 604 420 604 420 577.5 351.5 c 128,-1,10
 551 283 551 283 509.5 231 c 128,-1,11
 468 179 468 179 412 132.5 c 128,-1,12
 356 86 356 86 304 55.5 c 128,-1,13
 252 25 252 25 198 1 c 1,14,-1
 198 -217 l 1,15,-1
 89 -217 l 1,0,-1
198 105 m 1,16,17
 248 131 248 131 295 166 c 128,-1,18
 342 201 342 201 389 249 c 128,-1,19
 436 297 436 297 465 359.5 c 128,-1,20
 494 422 494 422 494 488 c 0,21,22
 494 569 494 569 461 614.5 c 128,-1,23
 428 660 428 660 366 660 c 0,24,25
 322 660 322 660 275.5 629.5 c 128,-1,26
 229 599 229 599 198 557 c 1,27,-1
 198 105 l 1,16,17
EndSplineSet
EndChar

StartChar: Aringacute
Encoding: 506 506 444
Width: 651
GlyphClass: 2
Flags: W
LayerCount: 2
Fore
SplineSet
-4 0 m 1,0,-1
 265 735 l 1,1,-1
 278 735 l 1,2,3
 249 744 249 744 226 767 c 0,4,5
 184 805 184 805 184 861 c 0,6,7
 184 915 184 915 224 954 c 0,8,9
 249 979 249 979 284 987 c 1,10,-1
 363 1110 l 1,11,-1
 491 1110 l 1,12,-1
 376 984 l 1,13,14
 405 975 405 975 427 954 c 0,15,16
 466 915 466 915 466 861 c 0,17,18
 466 805 466 805 425 767 c 0,19,20
 401 744 401 744 372 735 c 1,21,-1
 387 735 l 1,22,-1
 656 0 l 1,23,-1
 539 0 l 1,24,-1
 474 192 l 1,25,-1
 178 192 l 1,26,-1
 113 0 l 1,27,-1
 -4 0 l 1,0,-1
206 279 m 1,28,-1
 445 279 l 1,29,-1
 375 487 l 2,30,31
 369 504 369 504 352.5 555.5 c 128,-1,32
 336 607 336 607 328 632 c 1,33,-1
 323 632 l 1,34,35
 311 595 311 595 277 487 c 2,36,-1
 206 279 l 1,28,-1
256 861 m 0,37,38
 256 832 256 832 275.5 813 c 128,-1,39
 295 794 295 794 324 794 c 256,40,41
 353 794 353 794 373 812.5 c 128,-1,42
 393 831 393 831 393 861 c 0,43,44
 393 889 393 889 374 908 c 128,-1,45
 355 927 355 927 324 927 c 0,46,47
 294 927 294 927 275 907.5 c 128,-1,48
 256 888 256 888 256 861 c 0,37,38
EndSplineSet
EndChar

StartChar: aringacute
Encoding: 507 507 445
Width: 549
GlyphClass: 2
Flags: W
LayerCount: 2
Fore
SplineSet
35 137 m 0,0,1
 35 287 35 287 261 322 c 0,2,3
 355 336 355 336 383 345 c 1,4,-1
 383 375 l 2,5,6
 383 417 383 417 352.5 442 c 128,-1,7
 322 467 322 467 270 467 c 0,8,9
 178 467 178 467 114 393 c 1,10,-1
 49 447 l 1,11,12
 90 496 90 496 147 523.5 c 128,-1,13
 204 551 204 551 268 551 c 0,14,15
 487 551 487 551 487 335 c 2,16,-1
 487 0 l 1,17,-1
 386 0 l 1,18,-1
 386 74 l 1,19,20
 370 37 370 37 325.5 10 c 128,-1,21
 281 -17 281 -17 222 -17 c 0,22,23
 135 -17 135 -17 85 26 c 128,-1,24
 35 69 35 69 35 137 c 0,0,1
131 728 m 0,25,26
 131 782 131 782 171 821 c 0,27,28
 197 847 197 847 233 856 c 1,29,-1
 311 978 l 1,30,-1
 439 978 l 1,31,-1
 324 852 l 1,32,33
 353 842 353 842 375 821 c 0,34,35
 414 782 414 782 414 728 c 0,36,37
 414 673 414 673 373 634.5 c 128,-1,38
 332 596 332 596 272 596 c 0,39,40
 215 596 215 596 173 634.5 c 128,-1,41
 131 673 131 673 131 728 c 0,25,26
141 146 m 0,42,43
 141 114 141 114 167 92 c 128,-1,44
 193 70 193 70 237 70 c 0,45,46
 298 70 298 70 340.5 109.5 c 128,-1,47
 383 149 383 149 383 212 c 2,48,-1
 383 270 l 1,49,50
 340 259 340 259 269 248 c 0,51,52
 204 237 204 237 172.5 212.5 c 128,-1,53
 141 188 141 188 141 146 c 0,42,43
204 728 m 256,54,55
 204 700 204 700 223.5 680.5 c 128,-1,56
 243 661 243 661 272 661 c 256,57,58
 301 661 301 661 321 680 c 128,-1,59
 341 699 341 699 341 728 c 256,60,61
 341 757 341 757 322 776 c 128,-1,62
 303 795 303 795 272 795 c 0,63,64
 242 795 242 795 223 775.5 c 128,-1,65
 204 756 204 756 204 728 c 256,54,55
EndSplineSet
EndChar

StartChar: uni021C
Encoding: 540 540 478
Width: 575
GlyphClass: 2
Flags: W
LayerCount: 2
Fore
SplineSet
41 -109 m 1,0,1
 119 -126 119 -126 191 -126 c 0,2,3
 293 -126 293 -126 356 -70.5 c 128,-1,4
 419 -15 419 -15 419 79 c 0,5,6
 419 179 419 179 368.5 224.5 c 128,-1,7
 318 270 318 270 251 270 c 0,8,9
 198 270 198 270 141 247 c 1,10,-1
 141 341 l 1,11,-1
 245 364 l 2,12,13
 318 381 318 381 361.5 424 c 128,-1,14
 405 467 405 467 405 530 c 0,15,16
 405 588 405 588 368.5 622.5 c 128,-1,17
 332 657 332 657 265 657 c 0,18,19
 174 657 174 657 129 568 c 1,20,-1
 43 607 l 1,21,22
 70 673 70 673 129 712.5 c 128,-1,23
 188 752 188 752 266 752 c 0,24,25
 390 752 390 752 454.5 694.5 c 128,-1,26
 519 637 519 637 519 542 c 0,27,28
 519 460 519 460 475 403.5 c 128,-1,29
 431 347 431 347 373 323 c 1,30,31
 437 304 437 304 484.5 242 c 128,-1,32
 532 180 532 180 532 78 c 0,33,34
 532 -61 532 -61 437.5 -140.5 c 128,-1,35
 343 -220 343 -220 192 -220 c 0,36,37
 130 -220 130 -220 41 -206 c 1,38,-1
 41 -109 l 1,0,1
EndSplineSet
EndChar

StartChar: uni021D
Encoding: 541 541 479
Width: 450
GlyphClass: 2
Flags: W
LayerCount: 2
Fore
SplineSet
36 -126 m 1,0,1
 97 -138 97 -138 150 -138 c 0,2,3
 219 -138 219 -138 261.5 -99.5 c 128,-1,4
 304 -61 304 -61 304 12 c 0,5,6
 304 79 304 79 269.5 115.5 c 128,-1,7
 235 152 235 152 188 152 c 0,8,9
 157 152 157 152 112 138 c 1,10,-1
 112 225 l 1,11,-1
 187 242 l 2,12,13
 238 254 238 254 267.5 288.5 c 128,-1,14
 297 323 297 323 297 366 c 256,15,16
 297 409 297 409 275.5 435.5 c 128,-1,17
 254 462 254 462 212 462 c 0,18,19
 149 462 149 462 119 393 c 1,20,-1
 39 425 l 1,21,22
 56 480 56 480 102.5 515.5 c 128,-1,23
 149 551 149 551 218 551 c 0,24,25
 304 551 304 551 352.5 499.5 c 128,-1,26
 401 448 401 448 401 380 c 0,27,28
 401 258 401 258 293 204 c 1,29,30
 340 189 340 189 375 139 c 128,-1,31
 410 89 410 89 410 16 c 0,32,33
 410 -101 410 -101 341.5 -163.5 c 128,-1,34
 273 -226 273 -226 152 -226 c 0,35,36
 98 -226 98 -226 36 -217 c 1,37,-1
 36 -126 l 1,0,1
EndSplineSet
EndChar

StartChar: uni0220
Encoding: 544 544 482
Width: 706
GlyphClass: 2
Flags: W
LayerCount: 2
Fore
SplineSet
89 0 m 1,0,-1
 89 735 l 1,1,-1
 192 735 l 1,2,-1
 192 650 l 1,3,-1
 193 650 l 1,4,5
 276 752 276 752 402 752 c 0,6,7
 620 752 620 752 620 492 c 2,8,-1
 620 -223 l 1,9,-1
 511 -223 l 1,10,-1
 511 483 l 2,11,12
 511 570 511 570 479.5 614.5 c 128,-1,13
 448 659 448 659 376 659 c 0,14,15
 307 659 307 659 252 601 c 128,-1,16
 197 543 197 543 197 469 c 2,17,-1
 197 0 l 1,18,-1
 89 0 l 1,0,-1
EndSplineSet
EndChar

StartChar: uni0221
Encoding: 545 545 483
Width: 746
GlyphClass: 2
Flags: W
LayerCount: 2
Fore
SplineSet
524 -91 m 1,0,1
 532 -115 532 -115 553.5 -132 c 128,-1,2
 575 -149 575 -149 604 -149 c 0,3,4
 630 -149 630 -149 644.5 -136 c 128,-1,5
 659 -123 659 -123 659 -103 c 0,6,7
 659 -82 659 -82 643 -67 c 128,-1,8
 627 -52 627 -52 602 -52 c 0,9,10
 557 -52 557 -52 524 -91 c 1,0,1
37 267 m 0,11,12
 37 398 37 398 101 474.5 c 128,-1,13
 165 551 165 551 263 551 c 0,14,15
 314 551 314 551 352 524.5 c 128,-1,16
 390 498 390 498 407 463 c 1,17,-1
 407 761 l 1,18,-1
 511 761 l 1,19,-1
 511 51 l 2,20,21
 511 2 511 2 513 -5 c 1,22,23
 551 27 551 27 604 27 c 0,24,25
 671 27 671 27 710 -9.5 c 128,-1,26
 749 -46 749 -46 749 -99 c 0,27,28
 749 -157 749 -157 710 -192 c 128,-1,29
 671 -227 671 -227 605 -227 c 0,30,31
 529 -227 529 -227 481 -168 c 1,32,33
 470 -186 470 -186 455 -226 c 1,34,-1
 369 -195 l 1,35,36
 397 -124 397 -124 422 -90 c 1,37,38
 411 -62 411 -62 408 20 c 2,39,-1
 408 77 l 1,40,41
 391 40 391 40 353 11.5 c 128,-1,42
 315 -17 315 -17 262 -17 c 0,43,44
 220 -17 220 -17 182 -1 c 128,-1,45
 144 15 144 15 110.5 47 c 128,-1,46
 77 79 77 79 57 136 c 128,-1,47
 37 193 37 193 37 267 c 0,11,12
143 267 m 0,48,49
 143 175 143 175 180 123.5 c 128,-1,50
 217 72 217 72 276 72 c 0,51,52
 333 72 333 72 370.5 124 c 128,-1,53
 408 176 408 176 408 267 c 0,54,55
 408 355 408 355 371 408.5 c 128,-1,56
 334 462 334 462 276 462 c 0,57,58
 215 462 215 462 179 409.5 c 128,-1,59
 143 357 143 357 143 267 c 0,48,49
EndSplineSet
EndChar

StartChar: uni0222
Encoding: 546 546 484
Width: 701
GlyphClass: 2
Flags: W
LayerCount: 2
Fore
SplineSet
40 241 m 0,0,1
 40 311 40 311 79.5 370.5 c 128,-1,2
 119 430 119 430 188 465 c 1,3,4
 68 519 68 519 68 649 c 0,5,6
 68 698 68 698 81 735 c 1,7,-1
 187 735 l 1,8,9
 180 690 180 690 180 656 c 0,10,11
 180 595 180 595 226 550 c 128,-1,12
 272 505 272 505 351 505 c 0,13,14
 427 505 427 505 474 549 c 128,-1,15
 521 593 521 593 521 656 c 0,16,17
 521 694 521 694 514 735 c 1,18,-1
 621 735 l 1,19,20
 633 702 633 702 633 649 c 0,21,22
 633 519 633 519 512 465 c 1,23,24
 582 432 582 432 621.5 371.5 c 128,-1,25
 661 311 661 311 661 241 c 0,26,27
 661 194 661 194 643 150 c 128,-1,28
 625 106 625 106 589 67.5 c 128,-1,29
 553 29 553 29 491.5 6 c 128,-1,30
 430 -17 430 -17 351 -17 c 256,31,32
 272 -17 272 -17 210.5 6 c 128,-1,33
 149 29 149 29 113 67 c 128,-1,34
 77 105 77 105 58.5 149.5 c 128,-1,35
 40 194 40 194 40 241 c 0,0,1
152 241 m 0,36,37
 152 166 152 166 207.5 121 c 128,-1,38
 263 76 263 76 351 76 c 0,39,40
 437 76 437 76 493 121 c 128,-1,41
 549 166 549 166 549 241 c 0,42,43
 549 315 549 315 492 363 c 128,-1,44
 435 411 435 411 351 411 c 0,45,46
 268 411 268 411 210 364 c 128,-1,47
 152 317 152 317 152 241 c 0,36,37
EndSplineSet
EndChar

StartChar: uni0223
Encoding: 547 547 485
Width: 557
GlyphClass: 2
Flags: W
LayerCount: 2
Fore
SplineSet
37 245 m 0,0,1
 37 327 37 327 72.5 387.5 c 128,-1,2
 108 448 108 448 166 473 c 1,3,4
 59 522 59 522 59 657 c 0,5,6
 59 705 59 705 72 746 c 1,7,-1
 174 746 l 1,8,9
 166 687 166 687 166 665 c 0,10,11
 166 601 166 601 192.5 557 c 128,-1,12
 219 513 219 513 278 513 c 0,13,14
 334 513 334 513 363 556.5 c 128,-1,15
 392 600 392 600 392 665 c 0,16,17
 392 691 392 691 383 746 c 1,18,-1
 484 746 l 1,19,20
 498 707 498 707 498 657 c 0,21,22
 498 519 498 519 392 473 c 1,23,24
 449 449 449 449 485 388 c 128,-1,25
 521 327 521 327 521 245 c 0,26,27
 521 196 521 196 507.5 151 c 128,-1,28
 494 106 494 106 466.5 67.5 c 128,-1,29
 439 29 439 29 390 6 c 128,-1,30
 341 -17 341 -17 278 -17 c 0,31,32
 216 -17 216 -17 167.5 5.5 c 128,-1,33
 119 28 119 28 91.5 66.5 c 128,-1,34
 64 105 64 105 50.5 150 c 128,-1,35
 37 195 37 195 37 245 c 0,0,1
144 245 m 256,36,37
 144 167 144 167 181 119.5 c 128,-1,38
 218 72 218 72 278 72 c 0,39,40
 339 72 339 72 376.5 119 c 128,-1,41
 414 166 414 166 414 245 c 0,42,43
 414 322 414 322 376 372.5 c 128,-1,44
 338 423 338 423 278 423 c 0,45,46
 220 423 220 423 182 373 c 128,-1,47
 144 323 144 323 144 245 c 256,36,37
EndSplineSet
EndChar

StartChar: uni0224
Encoding: 548 548 486
Width: 604
GlyphClass: 2
Flags: W
LayerCount: 2
Fore
SplineSet
36 0 m 1,0,-1
 36 79 l 1,1,-1
 428 642 l 1,2,-1
 67 642 l 1,3,-1
 67 735 l 1,4,-1
 562 735 l 1,5,-1
 562 655 l 1,6,-1
 169 92 l 1,7,-1
 453 92 l 2,8,9
 539 92 539 92 580.5 47 c 128,-1,10
 622 2 622 2 622 -91 c 0,11,12
 622 -158 622 -158 594 -223 c 1,13,-1
 497 -223 l 1,14,15
 525 -161 525 -161 525 -105 c 0,16,17
 525 0 525 0 425 0 c 2,18,-1
 36 0 l 1,0,-1
EndSplineSet
EndChar

StartChar: uni0225
Encoding: 549 549 487
Width: 480
GlyphClass: 2
Flags: W
LayerCount: 2
Fore
SplineSet
26 0 m 1,0,-1
 26 69 l 1,1,-1
 313 447 l 1,2,-1
 50 447 l 1,3,-1
 50 535 l 1,4,-1
 448 535 l 1,5,-1
 448 470 l 1,6,-1
 160 88 l 1,7,-1
 374 88 l 2,8,9
 453 88 453 88 493 45.5 c 128,-1,10
 533 3 533 3 533 -89 c 0,11,12
 533 -173 533 -173 512 -223 c 1,13,-1
 420 -223 l 1,14,15
 441 -174 441 -174 441 -107 c 0,16,17
 441 -54 441 -54 420 -27 c 128,-1,18
 399 0 399 0 348 0 c 2,19,-1
 26 0 l 1,0,-1
EndSplineSet
EndChar

StartChar: uni0234
Encoding: 564 564 502
Width: 411
GlyphClass: 2
Flags: W
LayerCount: 2
Fore
SplineSet
194 -91 m 1,0,1
 201 -115 201 -115 223 -132 c 128,-1,2
 245 -149 245 -149 274 -149 c 0,3,4
 300 -149 300 -149 314.5 -136 c 128,-1,5
 329 -123 329 -123 329 -103 c 0,6,7
 329 -81 329 -81 313 -66.5 c 128,-1,8
 297 -52 297 -52 271 -52 c 0,9,10
 228 -52 228 -52 194 -91 c 1,0,1
39 -195 m 1,11,12
 70 -121 70 -121 93 -90 c 1,13,14
 77 -52 77 -52 77 28 c 2,15,-1
 77 761 l 1,16,-1
 181 761 l 1,17,-1
 181 51 l 2,18,19
 181 7 181 7 183 -6 c 1,20,21
 220 27 220 27 274 27 c 0,22,23
 341 27 341 27 380 -9.5 c 128,-1,24
 419 -46 419 -46 419 -99 c 0,25,26
 419 -157 419 -157 380 -192 c 128,-1,27
 341 -227 341 -227 275 -227 c 0,28,29
 199 -227 199 -227 151 -168 c 1,30,31
 134 -195 134 -195 125 -226 c 1,32,-1
 39 -195 l 1,11,12
EndSplineSet
EndChar

StartChar: uni0235
Encoding: 565 565 503
Width: 729
GlyphClass: 2
Flags: W
LayerCount: 2
Fore
SplineSet
512 -91 m 1,0,1
 519 -116 519 -116 541.5 -132.5 c 128,-1,2
 564 -149 564 -149 592 -149 c 0,3,4
 618 -149 618 -149 632.5 -135.5 c 128,-1,5
 647 -122 647 -122 647 -102 c 256,6,7
 647 -82 647 -82 632 -67 c 128,-1,8
 617 -52 617 -52 589 -52 c 0,9,10
 546 -52 546 -52 512 -91 c 1,0,1
69 0 m 1,11,-1
 69 533 l 1,12,-1
 169 533 l 1,13,-1
 169 459 l 1,14,-1
 170 459 l 1,15,16
 184 491 184 491 224.5 521 c 128,-1,17
 265 551 265 551 325 551 c 0,18,19
 403 551 403 551 450.5 502 c 128,-1,20
 498 453 498 453 498 343 c 2,21,-1
 498 49 l 2,22,23
 498 1 498 1 499 -5 c 1,24,25
 536 27 536 27 592 27 c 0,26,27
 657 27 657 27 697 -9 c 128,-1,28
 737 -45 737 -45 737 -99 c 0,29,30
 737 -157 737 -157 697.5 -192 c 128,-1,31
 658 -227 658 -227 593 -227 c 0,32,33
 516 -227 516 -227 469 -168 c 1,34,35
 453 -198 453 -198 443 -226 c 1,36,-1
 357 -195 l 1,37,38
 377 -137 377 -137 411 -90 c 1,39,40
 394 -53 394 -53 394 31 c 2,41,-1
 394 329 l 2,42,43
 394 462 394 462 303 462 c 0,44,45
 249 462 249 462 211 418.5 c 128,-1,46
 173 375 173 375 173 312 c 2,47,-1
 173 0 l 1,48,-1
 69 0 l 1,11,-1
EndSplineSet
EndChar

StartChar: uni0236
Encoding: 566 566 504
Width: 441
GlyphClass: 2
Flags: W
LayerCount: 2
Fore
SplineSet
221 -91 m 1,0,1
 228 -114 228 -114 249.5 -131.5 c 128,-1,2
 271 -149 271 -149 301 -149 c 0,3,4
 328 -149 328 -149 342.5 -135.5 c 128,-1,5
 357 -122 357 -122 357 -103 c 256,6,7
 357 -84 357 -84 341.5 -68 c 128,-1,8
 326 -52 326 -52 299 -52 c 0,9,10
 255 -52 255 -52 221 -91 c 1,0,1
18 446 m 1,11,-1
 18 533 l 1,12,-1
 104 533 l 1,13,-1
 104 695 l 1,14,-1
 207 695 l 1,15,-1
 207 533 l 1,16,-1
 335 533 l 1,17,-1
 335 446 l 1,18,-1
 207 446 l 1,19,-1
 207 45 l 2,20,21
 207 6 207 6 209 -5 c 1,22,23
 246 27 246 27 302 27 c 0,24,25
 368 27 368 27 407 -9.5 c 128,-1,26
 446 -46 446 -46 446 -99 c 0,27,28
 446 -157 446 -157 407 -192 c 128,-1,29
 368 -227 368 -227 303 -227 c 0,30,31
 225 -227 225 -227 178 -168 c 1,32,33
 160 -200 160 -200 151 -226 c 1,34,-1
 66 -195 l 1,35,36
 96 -120 96 -120 119 -90 c 1,37,38
 104 -54 104 -54 104 32 c 2,39,-1
 104 446 l 1,40,-1
 18 446 l 1,11,-1
EndSplineSet
EndChar

StartChar: uni0237
Encoding: 567 567 505
Width: 271
GlyphClass: 2
Flags: W
LayerCount: 2
Fore
SplineSet
-12 -131 m 1,0,-1
 8 -131 l 2,1,2
 86 -131 86 -131 86 -21 c 2,3,-1
 86 533 l 1,4,-1
 190 533 l 1,5,-1
 190 -26 l 2,6,7
 190 -121 190 -121 147 -170 c 128,-1,8
 104 -219 104 -219 25 -219 c 2,9,-1
 -12 -219 l 1,10,-1
 -12 -131 l 1,0,-1
EndSplineSet
EndChar

StartChar: uni0238
Encoding: 568 568 506
Width: 916
GlyphClass: 2
Flags: W
LayerCount: 2
Fore
SplineSet
37 267 m 0,0,1
 37 399 37 399 101.5 475 c 128,-1,2
 166 551 166 551 263 551 c 0,3,4
 314 551 314 551 351.5 524.5 c 128,-1,5
 389 498 389 498 406 463 c 1,6,-1
 406 761 l 1,7,-1
 510 761 l 1,8,-1
 510 463 l 1,9,10
 529 498 529 498 566.5 524.5 c 128,-1,11
 604 551 604 551 655 551 c 0,12,13
 753 551 753 551 816.5 475.5 c 128,-1,14
 880 400 880 400 880 267 c 0,15,16
 880 192 880 192 859.5 135 c 128,-1,17
 839 78 839 78 805.5 46 c 128,-1,18
 772 14 772 14 734 -1.5 c 128,-1,19
 696 -17 696 -17 656 -17 c 0,20,21
 603 -17 603 -17 565 10.5 c 128,-1,22
 527 38 527 38 510 76 c 1,23,-1
 510 0 l 1,24,-1
 408 0 l 1,25,-1
 408 77 l 1,26,27
 389 36 389 36 350 9.5 c 128,-1,28
 311 -17 311 -17 261 -17 c 0,29,30
 221 -17 221 -17 184 -2 c 128,-1,31
 147 13 147 13 113 45 c 128,-1,32
 79 77 79 77 58 134 c 128,-1,33
 37 191 37 191 37 267 c 0,0,1
143 267 m 0,34,35
 143 173 143 173 180 122.5 c 128,-1,36
 217 72 217 72 276 72 c 256,37,38
 335 72 335 72 371.5 124.5 c 128,-1,39
 408 177 408 177 408 261 c 2,40,-1
 408 267 l 2,41,42
 408 352 408 352 371.5 407 c 128,-1,43
 335 462 335 462 276 462 c 256,44,45
 217 462 217 462 180 410 c 128,-1,46
 143 358 143 358 143 267 c 0,34,35
508 260 m 2,47,48
 508 179 508 179 545 125.5 c 128,-1,49
 582 72 582 72 639 72 c 0,50,51
 699 72 699 72 736 122.5 c 128,-1,52
 773 173 773 173 773 267 c 0,53,54
 773 357 773 357 736.5 409.5 c 128,-1,55
 700 462 700 462 640 462 c 0,56,57
 581 462 581 462 544.5 406.5 c 128,-1,58
 508 351 508 351 508 267 c 2,59,-1
 508 260 l 2,47,48
EndSplineSet
EndChar

StartChar: uni0239
Encoding: 569 569 507
Width: 917
GlyphClass: 2
Flags: W
LayerCount: 2
Fore
SplineSet
37 267 m 0,0,1
 37 397 37 397 100.5 474 c 128,-1,2
 164 551 164 551 263 551 c 0,3,4
 358 551 358 551 408 459 c 1,5,-1
 408 533 l 1,6,-1
 510 533 l 1,7,-1
 510 460 l 1,8,9
 530 498 530 498 569 524.5 c 128,-1,10
 608 551 608 551 658 551 c 0,11,12
 757 551 757 551 819 474 c 128,-1,13
 881 397 881 397 881 267 c 0,14,15
 881 194 881 194 861.5 137.5 c 128,-1,16
 842 81 842 81 809.5 48.5 c 128,-1,17
 777 16 777 16 738 -0.5 c 128,-1,18
 699 -17 699 -17 657 -17 c 0,19,20
 603 -17 603 -17 564.5 10.5 c 128,-1,21
 526 38 526 38 510 75 c 1,22,-1
 510 -223 l 1,23,-1
 406 -223 l 1,24,-1
 406 74 l 1,25,26
 387 36 387 36 349 9.5 c 128,-1,27
 311 -17 311 -17 262 -17 c 0,28,29
 171 -17 171 -17 104 55 c 128,-1,30
 37 127 37 127 37 267 c 0,0,1
143 267 m 0,31,32
 143 175 143 175 180 123.5 c 128,-1,33
 217 72 217 72 275 72 c 0,34,35
 336 72 336 72 372 124.5 c 128,-1,36
 408 177 408 177 408 267 c 2,37,-1
 408 273 l 2,38,39
 408 357 408 357 371.5 409.5 c 128,-1,40
 335 462 335 462 275 462 c 0,41,42
 213 462 213 462 178 407.5 c 128,-1,43
 143 353 143 353 143 267 c 0,31,32
510 268 m 2,44,45
 510 178 510 178 547 125 c 128,-1,46
 584 72 584 72 643 72 c 256,47,48
 702 72 702 72 738.5 123.5 c 128,-1,49
 775 175 775 175 775 267 c 0,50,51
 775 354 775 354 740.5 408 c 128,-1,52
 706 462 706 462 643 462 c 0,53,54
 586 462 586 462 548 409.5 c 128,-1,55
 510 357 510 357 510 274 c 2,56,-1
 510 268 l 2,44,45
EndSplineSet
EndChar

StartChar: uni023A
Encoding: 570 570 508
Width: 651
GlyphClass: 2
Flags: W
LayerCount: 2
Fore
SplineSet
-4 0 m 1,0,-1
 265 735 l 1,1,-1
 388 735 l 1,2,-1
 441 590 l 1,3,-1
 560 778 l 1,4,-1
 638 778 l 1,5,-1
 469 512 l 1,6,-1
 656 0 l 1,7,-1
 539 0 l 1,8,-1
 474 191 l 1,9,-1
 267 191 l 1,10,-1
 87 -93 l 1,11,-1
 7 -93 l 1,12,-1
 66 0 l 1,13,-1
 -4 0 l 1,0,-1
206 279 m 1,14,-1
 243 279 l 1,15,-1
 376 488 l 1,16,17
 373 494 373 494 357 546 c 0,18,19
 338 603 338 603 328 632 c 1,20,-1
 323 632 l 1,21,22
 301 558 301 558 277 487 c 2,23,-1
 206 279 l 1,14,-1
322 279 m 1,24,-1
 446 279 l 1,25,-1
 403 407 l 1,26,-1
 322 279 l 1,24,-1
178 191 m 1,27,-1
 167 159 l 1,28,-1
 187 191 l 1,29,-1
 178 191 l 1,27,-1
EndSplineSet
EndChar

StartChar: uni023B
Encoding: 571 571 509
Width: 659
GlyphClass: 2
Flags: W
LayerCount: 2
Fore
SplineSet
43 368 m 0,0,1
 43 543 43 543 131.5 647.5 c 128,-1,2
 220 752 220 752 365 752 c 0,3,4
 418 752 418 752 467 732 c 1,5,-1
 489 790 l 1,6,-1
 568 790 l 1,7,-1
 533 693 l 1,8,9
 587 650 587 650 618 580 c 1,10,-1
 525 549 l 1,11,12
 507 579 507 579 495 593 c 1,13,-1
 304 87 l 1,14,15
 331 76 331 76 364 76 c 0,16,17
 426 76 426 76 471.5 112.5 c 128,-1,18
 517 149 517 149 539 200 c 1,19,-1
 637 169 l 1,20,21
 622 137 622 137 601 108 c 128,-1,22
 580 79 580 79 548 49 c 128,-1,23
 516 19 516 19 468.5 1 c 128,-1,24
 421 -17 421 -17 365 -17 c 0,25,26
 314 -17 314 -17 270 -3 c 1,27,-1
 248 -61 l 1,28,-1
 168 -61 l 1,29,-1
 201 27 l 1,30,31
 127 75 127 75 85 162.5 c 128,-1,32
 43 250 43 250 43 368 c 0,0,1
238 126 m 1,33,-1
 434 643 l 1,34,35
 400 659 400 659 364 659 c 0,36,37
 266 659 266 659 210 578.5 c 128,-1,38
 154 498 154 498 154 368 c 0,39,40
 154 204 154 204 238 126 c 1,33,-1
EndSplineSet
EndChar

StartChar: uni023C
Encoding: 572 572 510
Width: 511
GlyphClass: 2
Flags: W
LayerCount: 2
Fore
SplineSet
37 267 m 0,0,1
 37 391 37 391 101.5 471 c 128,-1,2
 166 551 166 551 283 551 c 0,3,4
 316 551 316 551 350 538 c 1,5,-1
 373 602 l 1,6,-1
 446 602 l 1,7,-1
 411 503 l 1,8,9
 461 465 461 465 479 398 c 1,10,-1
 394 375 l 1,11,12
 385 396 385 396 376 409 c 1,13,-1
 255 75 l 1,14,15
 264 72 264 72 281 72 c 0,16,17
 360 72 360 72 403 166 c 1,18,-1
 492 141 l 1,19,20
 475 82 475 82 418.5 32.5 c 128,-1,21
 362 -17 362 -17 280 -17 c 0,22,23
 249 -17 249 -17 223 -11 c 1,24,-1
 206 -60 l 1,25,-1
 132 -60 l 1,26,-1
 159 14 l 1,27,28
 98 49 98 49 67.5 117 c 128,-1,29
 37 185 37 185 37 267 c 0,0,1
197 114 m 1,30,-1
 319 453 l 1,31,32
 302 462 302 462 281 462 c 0,33,34
 217 462 217 462 180.5 406.5 c 128,-1,35
 144 351 144 351 144 267 c 0,36,37
 144 164 144 164 197 114 c 1,30,-1
EndSplineSet
EndChar

StartChar: uni023D
Encoding: 573 573 511
Width: 544
GlyphClass: 2
Flags: W
LayerCount: 2
Fore
SplineSet
9 372 m 1,0,-1
 9 458 l 1,1,-1
 89 458 l 1,2,-1
 89 735 l 1,3,-1
 197 735 l 1,4,-1
 197 458 l 1,5,-1
 387 458 l 1,6,-1
 387 372 l 1,7,-1
 197 372 l 1,8,-1
 197 92 l 1,9,-1
 535 92 l 1,10,-1
 535 0 l 1,11,-1
 89 0 l 1,12,-1
 89 372 l 1,13,-1
 9 372 l 1,0,-1
EndSplineSet
EndChar

StartChar: uni023E
Encoding: 574 574 512
Width: 559
GlyphClass: 2
Flags: W
LayerCount: 2
Fore
SplineSet
334 642 m 1,0,-1
 334 494 l 1,1,-1
 415 642 l 1,2,-1
 334 642 l 1,0,-1
10 642 m 1,3,-1
 10 735 l 1,4,-1
 467 735 l 1,5,-1
 497 790 l 1,6,-1
 572 790 l 1,7,-1
 542 735 l 1,8,-1
 550 735 l 1,9,-1
 550 642 l 1,10,-1
 491 642 l 1,11,-1
 334 357 l 1,12,-1
 334 0 l 1,13,-1
 226 0 l 1,14,-1
 226 161 l 1,15,-1
 113 -45 l 1,16,-1
 37 -45 l 1,17,-1
 226 298 l 1,18,-1
 226 642 l 1,19,-1
 10 642 l 1,3,-1
EndSplineSet
EndChar

StartChar: uni023F
Encoding: 575 575 513
Width: 490
GlyphClass: 2
Flags: W
LayerCount: 2
Fore
SplineSet
27 109 m 1,0,-1
 102 153 l 1,1,2
 158 68 158 68 253 68 c 0,3,4
 300 68 300 68 329 87 c 128,-1,5
 358 106 358 106 358 138 c 0,6,7
 358 152 358 152 351 165 c 128,-1,8
 344 178 344 178 334.5 186 c 128,-1,9
 325 194 325 194 306.5 203 c 128,-1,10
 288 212 288 212 275 216 c 128,-1,11
 262 220 262 220 236 228.5 c 128,-1,12
 210 237 210 237 199 241 c 0,13,14
 166 253 166 253 142 264 c 128,-1,15
 118 275 118 275 95 293 c 128,-1,16
 72 311 72 311 59.5 336.5 c 128,-1,17
 47 362 47 362 47 395 c 0,18,19
 47 467 47 467 106 509 c 128,-1,20
 165 551 165 551 250 551 c 0,21,22
 319 551 319 551 374.5 516 c 128,-1,23
 430 481 430 481 459 429 c 1,24,-1
 390 387 l 1,25,26
 333 465 333 465 251 465 c 0,27,28
 204 465 204 465 178.5 445.5 c 128,-1,29
 153 426 153 426 153 394 c 0,30,31
 153 337 153 337 270 304 c 0,32,33
 308 292 308 292 338 280.5 c 128,-1,34
 368 269 368 269 399 249.5 c 128,-1,35
 430 230 430 230 447 201.5 c 128,-1,36
 464 173 464 173 464 138 c 0,37,38
 464 71 464 71 408 27 c 128,-1,39
 352 -17 352 -17 252 -17 c 0,40,41
 197 -17 197 -17 156 2 c 1,42,43
 180 -79 180 -79 194 -103 c 0,44,45
 224 -152 224 -152 287 -152 c 0,46,47
 323 -152 323 -152 344 -148 c 1,48,-1
 344 -220 l 1,49,50
 306 -227 306 -227 283 -227 c 0,51,52
 241 -227 241 -227 208 -213 c 128,-1,53
 175 -199 175 -199 155 -180 c 128,-1,54
 135 -161 135 -161 119 -128 c 128,-1,55
 103 -95 103 -95 95.5 -70 c 128,-1,56
 88 -45 88 -45 79 -8 c 0,57,58
 62 68 62 68 27 109 c 1,0,-1
EndSplineSet
EndChar

StartChar: uni0240
Encoding: 576 576 514
Width: 484
GlyphClass: 2
Flags: W
LayerCount: 2
Fore
SplineSet
26 0 m 1,0,-1
 26 69 l 1,1,-1
 313 446 l 1,2,-1
 50 446 l 1,3,-1
 50 533 l 1,4,-1
 448 533 l 1,5,-1
 448 468 l 1,6,-1
 145 69 l 1,7,8
 180 62 180 62 209.5 38 c 128,-1,9
 239 14 239 14 260.5 -15 c 128,-1,10
 282 -44 282 -44 302.5 -72 c 128,-1,11
 323 -100 323 -100 348.5 -119 c 128,-1,12
 374 -138 374 -138 403 -138 c 0,13,14
 435 -138 435 -138 461 -133 c 1,15,-1
 461 -219 l 1,16,17
 430 -227 430 -227 397 -227 c 0,18,19
 354 -227 354 -227 318 -205 c 128,-1,20
 282 -183 282 -183 256.5 -150.5 c 128,-1,21
 231 -118 231 -118 207.5 -85.5 c 128,-1,22
 184 -53 184 -53 152.5 -28.5 c 128,-1,23
 121 -4 121 -4 86 0 c 1,24,-1
 26 0 l 1,0,-1
EndSplineSet
EndChar

StartChar: uni0241
Encoding: 577 577 515
Width: 578
GlyphClass: 2
Flags: W
LayerCount: 2
Fore
SplineSet
59 578 m 1,0,1
 81 656 81 656 144 704 c 128,-1,2
 207 752 207 752 293 752 c 0,3,4
 390 752 390 752 450.5 695 c 128,-1,5
 511 638 511 638 511 547 c 0,6,7
 511 502 511 502 493.5 465.5 c 128,-1,8
 476 429 476 429 450.5 404 c 128,-1,9
 425 379 425 379 400 354.5 c 128,-1,10
 375 330 375 330 357.5 298 c 128,-1,11
 340 266 340 266 340 227 c 2,12,-1
 340 0 l 1,13,-1
 232 0 l 1,14,-1
 232 236 l 2,15,16
 232 281 232 281 249.5 318 c 128,-1,17
 267 355 267 355 291.5 380.5 c 128,-1,18
 316 406 316 406 340.5 429.5 c 128,-1,19
 365 453 365 453 382.5 484 c 128,-1,20
 400 515 400 515 400 551 c 0,21,22
 400 600 400 600 370.5 630 c 128,-1,23
 341 660 341 660 294 660 c 256,24,25
 247 660 247 660 211 630.5 c 128,-1,26
 175 601 175 601 156 549 c 1,27,-1
 59 578 l 1,0,1
EndSplineSet
EndChar

StartChar: uni0250
Encoding: 592 592 516
Width: 549
GlyphClass: 2
Flags: W
LayerCount: 2
Fore
SplineSet
167 263 m 1,0,1
 204 272 204 272 282 285 c 0,2,3
 346 295 346 295 377.5 319.5 c 128,-1,4
 409 344 409 344 409 387 c 0,5,6
 409 419 409 419 383.5 441 c 128,-1,7
 358 463 358 463 313 463 c 0,8,9
 254 463 254 463 210.5 423.5 c 128,-1,10
 167 384 167 384 167 324 c 2,11,-1
 167 263 l 1,0,1
63 199 m 2,12,-1
 63 533 l 1,13,-1
 165 533 l 1,14,-1
 165 461 l 1,15,16
 181 496 181 496 224.5 523.5 c 128,-1,17
 268 551 268 551 327 551 c 0,18,19
 413 551 413 551 464 508 c 128,-1,20
 515 465 515 465 515 395 c 0,21,22
 515 246 515 246 283 211 c 0,23,24
 209 200 209 200 167 188 c 1,25,-1
 167 156 l 2,26,27
 167 115 167 115 199 90 c 128,-1,28
 231 65 231 65 281 65 c 0,29,30
 371 65 371 65 437 141 c 1,31,-1
 501 86 l 1,32,33
 461 37 461 37 403 10 c 128,-1,34
 345 -17 345 -17 282 -17 c 0,35,36
 167 -17 167 -17 115 38.5 c 128,-1,37
 63 94 63 94 63 199 c 2,12,-1
EndSplineSet
EndChar

StartChar: uni0251
Encoding: 593 593 517
Width: 578
GlyphClass: 2
Flags: W
LayerCount: 2
Fore
SplineSet
143 267 m 0,0,1
 143 174 143 174 180.5 123 c 128,-1,2
 218 72 218 72 276 72 c 0,3,4
 327 72 327 72 366.5 120.5 c 128,-1,5
 406 169 406 169 406 267 c 0,6,7
 406 355 406 355 369.5 408.5 c 128,-1,8
 333 462 333 462 275 462 c 0,9,10
 215 462 215 462 179 409.5 c 128,-1,11
 143 357 143 357 143 267 c 0,0,1
37 267 m 0,12,13
 37 398 37 398 100 474.5 c 128,-1,14
 163 551 163 551 262 551 c 0,15,16
 312 551 312 551 350 524 c 128,-1,17
 388 497 388 497 404 463 c 1,18,-1
 404 533 l 1,19,-1
 508 533 l 1,20,-1
 508 0 l 1,21,-1
 406 0 l 1,22,-1
 406 78 l 1,23,24
 388 39 388 39 349 11 c 128,-1,25
 310 -17 310 -17 261 -17 c 0,26,27
 219 -17 219 -17 181 -1 c 128,-1,28
 143 15 143 15 110 47 c 128,-1,29
 77 79 77 79 57 136 c 128,-1,30
 37 193 37 193 37 267 c 0,12,13
EndSplineSet
EndChar

StartChar: uni0252
Encoding: 594 594 518
Width: 578
GlyphClass: 2
Flags: W
LayerCount: 2
Fore
SplineSet
70 0 m 1,0,-1
 70 533 l 1,1,-1
 174 533 l 1,2,-1
 174 463 l 1,3,4
 194 498 194 498 230.5 524.5 c 128,-1,5
 267 551 267 551 318 551 c 0,6,7
 417 551 417 551 479.5 474.5 c 128,-1,8
 542 398 542 398 542 267 c 0,9,10
 542 192 542 192 521.5 135.5 c 128,-1,11
 501 79 501 79 467.5 46.5 c 128,-1,12
 434 14 434 14 396 -1.5 c 128,-1,13
 358 -17 358 -17 319 -17 c 0,14,15
 267 -17 267 -17 228 11.5 c 128,-1,16
 189 40 189 40 173 77 c 1,17,-1
 173 0 l 1,18,-1
 70 0 l 1,0,-1
172 267 m 0,19,20
 172 177 172 177 209 124.5 c 128,-1,21
 246 72 246 72 303 72 c 0,22,23
 362 72 362 72 398.5 123 c 128,-1,24
 435 174 435 174 435 267 c 0,25,26
 435 358 435 358 399.5 410 c 128,-1,27
 364 462 364 462 304 462 c 0,28,29
 246 462 246 462 209 408.5 c 128,-1,30
 172 355 172 355 172 267 c 0,19,20
EndSplineSet
EndChar

StartChar: uni0253
Encoding: 595 595 519
Width: 583
GlyphClass: 2
Flags: W
LayerCount: 2
Fore
SplineSet
175 267 m 0,0,1
 175 177 175 177 211.5 124.5 c 128,-1,2
 248 72 248 72 306 72 c 0,3,4
 367 72 367 72 403.5 124 c 128,-1,5
 440 176 440 176 440 268 c 0,6,7
 440 356 440 356 404.5 409 c 128,-1,8
 369 462 369 462 307 462 c 0,9,10
 248 462 248 462 211.5 408.5 c 128,-1,11
 175 355 175 355 175 267 c 0,0,1
73 0 m 1,12,-1
 73 574 l 2,13,14
 73 671 73 671 123.5 723.5 c 128,-1,15
 174 776 174 776 260 776 c 0,16,17
 296 776 296 776 367 765 c 1,18,-1
 365 674 l 1,19,20
 304 684 304 684 278 684 c 0,21,22
 229 684 229 684 202.5 649.5 c 128,-1,23
 176 615 176 615 176 555 c 2,24,-1
 176 463 l 1,25,26
 197 500 197 500 234 525.5 c 128,-1,27
 271 551 271 551 322 551 c 0,28,29
 422 551 422 551 484.5 473.5 c 128,-1,30
 547 396 547 396 547 268 c 0,31,32
 547 131 547 131 481 57 c 128,-1,33
 415 -17 415 -17 323 -17 c 0,34,35
 269 -17 269 -17 231 11.5 c 128,-1,36
 193 40 193 40 174 77 c 1,37,-1
 174 0 l 1,38,-1
 73 0 l 1,12,-1
EndSplineSet
EndChar

StartChar: uni0254
Encoding: 596 596 520
Width: 511
GlyphClass: 2
Flags: W
LayerCount: 2
Fore
SplineSet
20 141 m 1,0,-1
 109 166 l 1,1,2
 122 129 122 129 154.5 100.5 c 128,-1,3
 187 72 187 72 230 72 c 0,4,5
 289 72 289 72 329 123.5 c 128,-1,6
 369 175 369 175 369 266 c 0,7,8
 369 350 369 350 331.5 406 c 128,-1,9
 294 462 294 462 230 462 c 0,10,11
 191 462 191 462 162.5 436.5 c 128,-1,12
 134 411 134 411 122 374 c 1,13,-1
 34 398 l 1,14,15
 49 459 49 459 102 505 c 128,-1,16
 155 551 155 551 233 551 c 0,17,18
 341 551 341 551 408 472.5 c 128,-1,19
 475 394 475 394 475 266 c 0,20,21
 475 136 475 136 408 59.5 c 128,-1,22
 341 -17 341 -17 233 -17 c 0,23,24
 155 -17 155 -17 96.5 30.5 c 128,-1,25
 38 78 38 78 20 141 c 1,0,-1
EndSplineSet
EndChar

StartChar: uni0255
Encoding: 597 597 521
Width: 513
GlyphClass: 2
Flags: W
LayerCount: 2
Fore
SplineSet
254 73 m 1,0,1
 286 60 286 60 317 60 c 0,2,3
 353 60 353 60 373.5 73.5 c 128,-1,4
 394 87 394 87 394 106 c 0,5,6
 394 142 394 142 347 142 c 0,7,8
 316 142 316 142 292 121.5 c 128,-1,9
 268 101 268 101 254 73 c 1,0,1
37 273 m 0,10,11
 37 391 37 391 101.5 471 c 128,-1,12
 166 551 166 551 281 551 c 0,13,14
 359 551 359 551 411 503.5 c 128,-1,15
 463 456 463 456 479 398 c 1,16,-1
 391 374 l 1,17,18
 379 409 379 409 350.5 435.5 c 128,-1,19
 322 462 322 462 281 462 c 0,20,21
 217 462 217 462 180.5 406.5 c 128,-1,22
 144 351 144 351 144 267 c 0,23,24
 144 176 144 176 187 122 c 1,25,26
 211 163 211 163 253 191 c 128,-1,27
 295 219 295 219 350 219 c 0,28,29
 411 219 411 219 448 187 c 128,-1,30
 485 155 485 155 485 107 c 0,31,32
 485 51 485 51 439 17 c 128,-1,33
 393 -17 393 -17 314 -17 c 0,34,35
 260 -17 260 -17 222 -7 c 1,36,37
 209 -44 209 -44 205 -64 c 1,38,-1
 115 -44 l 1,39,40
 124 -4 124 -4 139 30 c 1,41,42
 37 108 37 108 37 273 c 0,10,11
EndSplineSet
EndChar

StartChar: uni0256
Encoding: 598 598 522
Width: 581
GlyphClass: 2
Flags: W
LayerCount: 2
Fore
SplineSet
37 267 m 0,0,1
 37 400 37 400 101.5 475.5 c 128,-1,2
 166 551 166 551 263 551 c 0,3,4
 314 551 314 551 351.5 524.5 c 128,-1,5
 389 498 389 498 407 463 c 1,6,-1
 407 761 l 1,7,-1
 511 761 l 1,8,-1
 511 -31 l 2,9,10
 511 -135 511 -135 586 -135 c 0,11,12
 612 -135 612 -135 657 -128 c 1,13,-1
 657 -219 l 1,14,15
 584 -227 584 -227 567 -227 c 0,16,17
 409 -227 409 -227 409 -38 c 2,18,-1
 409 77 l 1,19,20
 390 36 390 36 351 9.5 c 128,-1,21
 312 -17 312 -17 262 -17 c 0,22,23
 220 -17 220 -17 182 -1 c 128,-1,24
 144 15 144 15 110.5 47 c 128,-1,25
 77 79 77 79 57 136 c 128,-1,26
 37 193 37 193 37 267 c 0,0,1
143 267 m 0,27,28
 143 177 143 177 179.5 124.5 c 128,-1,29
 216 72 216 72 277 72 c 0,30,31
 334 72 334 72 371 125 c 128,-1,32
 408 178 408 178 408 267 c 0,33,34
 408 355 408 355 371 408.5 c 128,-1,35
 334 462 334 462 276 462 c 0,36,37
 217 462 217 462 180 410 c 128,-1,38
 143 358 143 358 143 267 c 0,27,28
EndSplineSet
EndChar

StartChar: uni0257
Encoding: 599 599 523
Width: 581
GlyphClass: 2
Flags: W
LayerCount: 2
Fore
SplineSet
37 268 m 0,0,1
 37 400 37 400 101 475.5 c 128,-1,2
 165 551 165 551 263 551 c 0,3,4
 313 551 313 551 352 524 c 128,-1,5
 391 497 391 497 407 462 c 1,6,-1
 407 613 l 2,7,8
 407 692 407 692 455.5 734 c 128,-1,9
 504 776 504 776 582 776 c 0,10,11
 598 776 598 776 666 771 c 1,12,-1
 666 679 l 1,13,14
 632 683 632 683 601 683 c 0,15,16
 561 683 561 683 536 659 c 128,-1,17
 511 635 511 635 511 592 c 2,18,-1
 511 0 l 1,19,-1
 410 0 l 1,20,-1
 410 79 l 1,21,22
 393 40 393 40 352.5 11.5 c 128,-1,23
 312 -17 312 -17 262 -17 c 0,24,25
 220 -17 220 -17 181.5 -1 c 128,-1,26
 143 15 143 15 110 47.5 c 128,-1,27
 77 80 77 80 57 137 c 128,-1,28
 37 194 37 194 37 268 c 0,0,1
143 268 m 0,29,30
 143 175 143 175 180 123 c 128,-1,31
 217 71 217 71 277 71 c 0,32,33
 333 71 333 71 370.5 123.5 c 128,-1,34
 408 176 408 176 408 268 c 0,35,36
 408 356 408 356 371 409 c 128,-1,37
 334 462 334 462 276 462 c 0,38,39
 215 462 215 462 179 410 c 128,-1,40
 143 358 143 358 143 268 c 0,29,30
EndSplineSet
EndChar

StartChar: uni0258
Encoding: 600 600 524
Width: 556
GlyphClass: 2
Flags: W
LayerCount: 2
Fore
SplineSet
37 232 m 1,0,1
 35 260 35 260 35 276 c 0,2,3
 35 399 35 399 102.5 475 c 128,-1,4
 170 551 170 551 275 551 c 0,5,6
 382 551 382 551 451 474 c 128,-1,7
 520 397 520 397 520 270 c 0,8,9
 520 137 520 137 450 60 c 128,-1,10
 380 -17 380 -17 270 -17 c 0,11,12
 184 -17 184 -17 127 22 c 128,-1,13
 70 61 70 61 44 119 c 1,14,-1
 132 149 l 1,15,16
 151 113 151 113 186 90.5 c 128,-1,17
 221 68 221 68 268 68 c 0,18,19
 335 68 335 68 374 115.5 c 128,-1,20
 413 163 413 163 414 232 c 1,21,-1
 37 232 l 1,0,1
141 306 m 1,22,-1
 414 306 l 1,23,24
 411 373 411 373 374.5 419.5 c 128,-1,25
 338 466 338 466 275 466 c 0,26,27
 213 466 213 466 177.5 420 c 128,-1,28
 142 374 142 374 141 306 c 1,22,-1
EndSplineSet
EndChar

StartChar: uni025A
Encoding: 602 602 526
Width: 654
GlyphClass: 2
Flags: W
LayerCount: 2
Fore
SplineSet
35 227 m 1,0,-1
 395 386 l 1,1,2
 353 465 353 465 269 465 c 0,3,4
 176 465 176 465 131 384 c 1,5,-1
 44 413 l 1,6,7
 70 474 70 474 127.5 512.5 c 128,-1,8
 185 551 185 551 271 551 c 0,9,10
 344 551 344 551 397 516.5 c 128,-1,11
 450 482 450 482 481 427 c 1,12,-1
 559 465 l 1,13,14
 569 431 569 431 592 410.5 c 128,-1,15
 615 390 615 390 642 390 c 0,16,17
 670 390 670 390 685 395 c 1,18,-1
 685 313 l 1,19,20
 656 306 656 306 634 306 c 0,21,22
 602 306 602 306 576 320.5 c 128,-1,23
 550 335 550 335 537 357 c 1,24,-1
 511 342 l 1,25,26
 519 305 519 305 519 265 c 0,27,28
 519 141 519 141 452 62 c 128,-1,29
 385 -17 385 -17 273 -17 c 0,30,31
 200 -17 200 -17 145 21 c 128,-1,32
 90 59 90 59 64.5 112.5 c 128,-1,33
 39 166 39 166 35 227 c 1,0,-1
145 184 m 1,34,35
 154 129 154 129 189.5 98 c 128,-1,36
 225 67 225 67 273 67 c 0,37,38
 330 67 330 67 367 109.5 c 128,-1,39
 404 152 404 152 409 221 c 0,40,41
 413 242 413 242 413 268 c 0,42,43
 413 283 413 283 412 300 c 1,44,-1
 145 184 l 1,34,35
EndSplineSet
EndChar

StartChar: uni025B
Encoding: 603 603 527
Width: 487
GlyphClass: 2
Flags: W
LayerCount: 2
Fore
SplineSet
37 150 m 0,0,1
 37 200 37 200 64.5 233.5 c 128,-1,2
 92 267 92 267 132 282 c 1,3,-1
 132 283 l 1,4,5
 57 321 57 321 57 398 c 0,6,7
 57 465 57 465 111 508 c 128,-1,8
 165 551 165 551 254 551 c 0,9,10
 388 551 388 551 455 428 c 1,11,-1
 370 393 l 1,12,13
 352 423 352 423 321.5 442.5 c 128,-1,14
 291 462 291 462 256 462 c 0,15,16
 211 462 211 462 187 443 c 128,-1,17
 163 424 163 424 163 392 c 0,18,19
 163 358 163 358 190 336.5 c 128,-1,20
 217 315 217 315 271 315 c 2,21,-1
 325 315 l 1,22,-1
 325 237 l 1,23,-1
 271 237 l 2,24,25
 204 237 204 237 173.5 212 c 128,-1,26
 143 187 143 187 143 151 c 0,27,28
 143 114 143 114 177.5 93 c 128,-1,29
 212 72 212 72 258 72 c 0,30,31
 298 72 298 72 333 92 c 128,-1,32
 368 112 368 112 387 139 c 1,33,-1
 467 102 l 1,34,35
 439 49 439 49 383 16 c 128,-1,36
 327 -17 327 -17 256 -17 c 0,37,38
 161 -17 161 -17 99 27.5 c 128,-1,39
 37 72 37 72 37 150 c 0,0,1
EndSplineSet
EndChar

StartChar: uni025C
Encoding: 604 604 528
Width: 487
GlyphClass: 2
Flags: W
LayerCount: 2
Fore
SplineSet
20 102 m 1,0,-1
 100 139 l 1,1,2
 119 112 119 112 154 92 c 128,-1,3
 189 72 189 72 229 72 c 0,4,5
 275 72 275 72 309.5 93 c 128,-1,6
 344 114 344 114 344 151 c 0,7,8
 344 187 344 187 314 212 c 128,-1,9
 284 237 284 237 218 237 c 2,10,-1
 162 237 l 1,11,-1
 162 315 l 1,12,-1
 218 315 l 2,13,14
 271 315 271 315 298 336.5 c 128,-1,15
 325 358 325 358 325 392 c 0,16,17
 325 424 325 424 301 443 c 128,-1,18
 277 462 277 462 232 462 c 0,19,20
 197 462 197 462 166 442.5 c 128,-1,21
 135 423 135 423 117 393 c 1,22,-1
 32 428 l 1,23,24
 99 551 99 551 233 551 c 0,25,26
 323 551 323 551 377 508 c 128,-1,27
 431 465 431 465 431 398 c 0,28,29
 431 322 431 322 354 283 c 1,30,-1
 355 282 l 1,31,32
 395 267 395 267 423 233.5 c 128,-1,33
 451 200 451 200 451 150 c 0,34,35
 451 72 451 72 388.5 27.5 c 128,-1,36
 326 -17 326 -17 231 -17 c 0,37,38
 160 -17 160 -17 104 16 c 128,-1,39
 48 49 48 49 20 102 c 1,0,-1
EndSplineSet
EndChar

StartChar: uni025D
Encoding: 605 605 529
Width: 567
GlyphClass: 2
Flags: W
LayerCount: 2
Fore
SplineSet
20 102 m 1,0,-1
 100 139 l 1,1,2
 116 114 116 114 152 93 c 128,-1,3
 188 72 188 72 229 72 c 0,4,5
 282 72 282 72 313 93.5 c 128,-1,6
 344 115 344 115 344 152 c 0,7,8
 344 188 344 188 313 212.5 c 128,-1,9
 282 237 282 237 217 237 c 2,10,-1
 162 237 l 1,11,-1
 162 315 l 1,12,-1
 217 315 l 2,13,14
 271 315 271 315 298 337 c 128,-1,15
 325 359 325 359 325 392 c 0,16,17
 325 423 325 423 302 442.5 c 128,-1,18
 279 462 279 462 232 462 c 0,19,20
 160 462 160 462 117 393 c 1,21,-1
 32 428 l 1,22,23
 101 551 101 551 233 551 c 0,24,25
 352 551 352 551 406 477 c 1,26,-1
 481 519 l 1,27,28
 493 485 493 485 517.5 462 c 128,-1,29
 542 439 542 439 569 439 c 0,30,31
 594 439 594 439 610 445 c 1,32,-1
 610 361 l 1,33,34
 586 355 586 355 561 355 c 0,35,36
 527 355 527 355 499.5 371 c 128,-1,37
 472 387 472 387 460 409 c 1,38,-1
 430 393 l 2,39,40
 430 392 430 392 429 383 c 128,-1,41
 428 374 428 374 428 369 c 0,42,43
 422 340 422 340 400.5 317 c 128,-1,44
 379 294 379 294 355 283 c 1,45,-1
 356 282 l 1,46,47
 394 267 394 267 422.5 233.5 c 128,-1,48
 451 200 451 200 451 151 c 0,49,50
 451 72 451 72 389.5 27.5 c 128,-1,51
 328 -17 328 -17 229 -17 c 0,52,53
 158 -17 158 -17 102 17 c 128,-1,54
 46 51 46 51 20 102 c 1,0,-1
EndSplineSet
EndChar

StartChar: uni025E
Encoding: 606 606 530
Width: 554
GlyphClass: 2
Flags: W
LayerCount: 2
Fore
SplineSet
37 268 m 0,0,1
 37 393 37 393 101.5 472 c 128,-1,2
 166 551 166 551 293 551 c 0,3,4
 379 551 379 551 438.5 511 c 128,-1,5
 498 471 498 471 498 397 c 0,6,7
 498 356 498 356 478.5 325.5 c 128,-1,8
 459 295 459 295 428 280 c 1,9,-1
 428 279 l 1,10,11
 517 243 517 243 517 151 c 0,12,13
 517 67 517 67 454 25 c 128,-1,14
 391 -17 391 -17 293 -17 c 0,15,16
 169 -17 169 -17 103 60 c 128,-1,17
 37 137 37 137 37 268 c 0,0,1
144 268 m 0,18,19
 144 162 144 162 189.5 117 c 128,-1,20
 235 72 235 72 295 72 c 0,21,22
 411 72 411 72 411 149 c 0,23,24
 411 183 411 183 382 208 c 128,-1,25
 353 233 353 233 293 233 c 2,26,-1
 255 233 l 1,27,-1
 255 314 l 1,28,-1
 293 314 l 2,29,30
 342 314 342 314 367 336.5 c 128,-1,31
 392 359 392 359 392 390 c 0,32,33
 392 426 392 426 365.5 444 c 128,-1,34
 339 462 339 462 294 462 c 0,35,36
 233 462 233 462 188.5 414.5 c 128,-1,37
 144 367 144 367 144 268 c 0,18,19
EndSplineSet
EndChar

StartChar: uni025F
Encoding: 607 607 531
Width: 274
GlyphClass: 2
Flags: W
LayerCount: 2
Fore
SplineSet
-15 256 m 1,0,-1
 -15 341 l 1,1,-1
 88 341 l 1,2,-1
 88 533 l 1,3,-1
 192 533 l 1,4,-1
 192 341 l 1,5,-1
 288 341 l 1,6,-1
 288 256 l 1,7,-1
 192 256 l 1,8,-1
 192 -26 l 2,9,10
 192 -121 192 -121 149 -170 c 128,-1,11
 106 -219 106 -219 26 -219 c 2,12,-1
 -10 -219 l 1,13,-1
 -10 -131 l 1,14,-1
 9 -131 l 2,15,16
 88 -131 88 -131 88 -21 c 2,17,-1
 88 256 l 1,18,-1
 -15 256 l 1,0,-1
EndSplineSet
EndChar

StartChar: uni0260
Encoding: 608 608 532
Width: 577
GlyphClass: 2
Flags: W
LayerCount: 2
Fore
SplineSet
39 277 m 256,0,1
 39 401 39 401 100.5 476 c 128,-1,2
 162 551 162 551 259 551 c 0,3,4
 310 551 310 551 345.5 524.5 c 128,-1,5
 381 498 381 498 398 463 c 1,6,-1
 398 613 l 2,7,8
 398 691 398 691 448 733.5 c 128,-1,9
 498 776 498 776 574 776 c 0,10,11
 605 776 605 776 658 772 c 1,12,-1
 658 680 l 1,13,14
 624 684 624 684 593 684 c 0,15,16
 554 684 554 684 527.5 659.5 c 128,-1,17
 501 635 501 635 501 592 c 2,18,-1
 501 70 l 2,19,20
 501 3 501 3 490.5 -48 c 128,-1,21
 480 -99 480 -99 454 -141 c 128,-1,22
 428 -183 428 -183 380.5 -205 c 128,-1,23
 333 -227 333 -227 266 -227 c 0,24,25
 134 -227 134 -227 61 -126 c 1,26,-1
 131 -78 l 1,27,28
 189 -143 189 -143 268 -143 c 0,29,30
 332 -143 332 -143 364 -94 c 128,-1,31
 396 -45 396 -45 397 28 c 2,32,-1
 398 83 l 1,33,34
 379 48 379 48 343.5 26 c 128,-1,35
 308 4 308 4 263 4 c 0,36,37
 164 4 164 4 101.5 78.5 c 128,-1,38
 39 153 39 153 39 277 c 256,0,1
145 277 m 0,39,40
 145 187 145 187 181 139.5 c 128,-1,41
 217 92 217 92 271 92 c 0,42,43
 330 92 330 92 363.5 140.5 c 128,-1,44
 397 189 397 189 397 278 c 0,45,46
 397 362 397 362 363 412 c 128,-1,47
 329 462 329 462 272 462 c 0,48,49
 216 462 216 462 180.5 412.5 c 128,-1,50
 145 363 145 363 145 277 c 0,39,40
EndSplineSet
EndChar

StartChar: uni0262
Encoding: 610 610 534
Width: 561
GlyphClass: 2
Flags: W
LayerCount: 2
Fore
SplineSet
37 265 m 0,0,1
 37 394 37 394 104.5 472 c 128,-1,2
 172 550 172 550 292 550 c 0,3,4
 428 550 428 550 498 419 c 1,5,-1
 411 382 l 1,6,7
 367 461 367 461 292 461 c 0,8,9
 222 461 222 461 182.5 409 c 128,-1,10
 143 357 143 357 143 265 c 0,11,12
 143 175 143 175 183 124 c 128,-1,13
 223 73 223 73 291 73 c 0,14,15
 345 73 345 73 377.5 104.5 c 128,-1,16
 410 136 410 136 413 186 c 2,17,-1
 413 218 l 1,18,-1
 275 218 l 1,19,-1
 275 299 l 1,20,-1
 511 299 l 1,21,-1
 511 0 l 1,22,-1
 432 0 l 1,23,-1
 428 55 l 1,24,25
 412 26 412 26 374 4.5 c 128,-1,26
 336 -17 336 -17 286 -17 c 0,27,28
 176 -17 176 -17 106.5 57 c 128,-1,29
 37 131 37 131 37 265 c 0,0,1
EndSplineSet
EndChar

StartChar: uni0263
Encoding: 611 611 535
Width: 512
GlyphClass: 2
Flags: W
LayerCount: 2
Fore
SplineSet
8 533 m 1,0,-1
 122 533 l 1,1,-1
 245 149 l 1,2,-1
 254 114 l 1,3,-1
 256 114 l 1,4,-1
 268 149 l 1,5,-1
 391 533 l 1,6,-1
 505 533 l 1,7,-1
 327 59 l 1,8,9
 399 -11 399 -11 399 -86 c 0,10,11
 399 -148 399 -148 359.5 -187.5 c 128,-1,12
 320 -227 320 -227 256 -227 c 0,13,14
 195 -227 195 -227 154.5 -188 c 128,-1,15
 114 -149 114 -149 114 -86 c 0,16,17
 114 -18 114 -18 184 57 c 1,18,-1
 8 533 l 1,0,-1
201 -86 m 0,19,20
 201 -114 201 -114 216 -133.5 c 128,-1,21
 231 -153 231 -153 256 -153 c 0,22,23
 282 -153 282 -153 297.5 -133.5 c 128,-1,24
 313 -114 313 -114 313 -86 c 0,25,26
 313 -34 313 -34 256 20 c 1,27,28
 201 -28 201 -28 201 -86 c 0,19,20
EndSplineSet
Substitution2: "'sups' Superscript lookup 5 subtable" uni02E0
Substitution2: "'aalt' Access All Alternates lookup 0 subtable" uni02E0
EndChar

StartChar: uni0264
Encoding: 612 612 536
Width: 482
GlyphClass: 2
Flags: W
LayerCount: 2
Fore
SplineSet
242 323 m 1,0,1
 175 237 175 237 175 163 c 0,2,3
 175 123 175 123 193.5 97.5 c 128,-1,4
 212 72 212 72 244 72 c 0,5,6
 274 72 274 72 291.5 98.5 c 128,-1,7
 309 125 309 125 309 163 c 0,8,9
 309 239 309 239 242 323 c 1,0,1
20 454 m 1,10,-1
 20 541 l 1,11,12
 60 551 60 551 84 551 c 0,13,14
 131 551 131 551 166.5 531 c 128,-1,15
 202 511 202 511 242 470 c 1,16,17
 318 551 318 551 402 551 c 0,18,19
 428 551 428 551 464 542 c 1,20,-1
 464 453 l 1,21,22
 438 461 438 461 404 461 c 0,23,24
 356 461 356 461 305 402 c 1,25,26
 360 333 360 333 385.5 281.5 c 128,-1,27
 411 230 411 230 411 162 c 0,28,29
 411 82 411 82 367 32.5 c 128,-1,30
 323 -17 323 -17 244 -17 c 0,31,32
 162 -17 162 -17 118 33.5 c 128,-1,33
 74 84 74 84 74 162 c 0,34,35
 74 210 74 210 91.5 257 c 128,-1,36
 109 304 109 304 128.5 332.5 c 128,-1,37
 148 361 148 361 181 402 c 1,38,39
 155 430 155 430 132.5 445.5 c 128,-1,40
 110 461 110 461 79 461 c 0,41,42
 66 461 66 461 20 454 c 1,10,-1
EndSplineSet
EndChar

StartChar: uni0265
Encoding: 613 613 537
Width: 566
GlyphClass: 2
Flags: W
LayerCount: 2
Fore
SplineSet
63 190 m 2,0,-1
 63 533 l 1,1,-1
 167 533 l 1,2,-1
 167 202 l 2,3,4
 167 72 167 72 261 72 c 0,5,6
 312 72 312 72 350 118 c 128,-1,7
 388 164 388 164 388 224 c 2,8,-1
 388 533 l 1,9,-1
 492 533 l 1,10,-1
 492 -223 l 1,11,-1
 388 -223 l 1,12,-1
 388 64 l 1,13,-1
 387 64 l 1,14,15
 368 31 368 31 329 7 c 128,-1,16
 290 -17 290 -17 239 -17 c 0,17,18
 206 -17 206 -17 177.5 -7.5 c 128,-1,19
 149 2 149 2 122 23.5 c 128,-1,20
 95 45 95 45 79 88 c 128,-1,21
 63 131 63 131 63 190 c 2,0,-1
EndSplineSet
EndChar

StartChar: uni0266
Encoding: 614 614 538
Width: 566
GlyphClass: 2
Flags: W
LayerCount: 2
Fore
SplineSet
75 0 m 1,0,-1
 75 605 l 2,1,2
 75 688 75 688 125 732 c 128,-1,3
 175 776 175 776 253 776 c 0,4,5
 308 776 308 776 354 770 c 1,6,-1
 354 679 l 1,7,8
 313 684 313 684 271 684 c 256,9,10
 229 684 229 684 203.5 655.5 c 128,-1,11
 178 627 178 627 178 586 c 2,12,-1
 178 469 l 1,13,-1
 179 469 l 1,14,15
 201 503 201 503 239.5 527 c 128,-1,16
 278 551 278 551 326 551 c 0,17,18
 359 551 359 551 388 542 c 128,-1,19
 417 533 417 533 444.5 511 c 128,-1,20
 472 489 472 489 487.5 446.5 c 128,-1,21
 503 404 503 404 503 343 c 2,22,-1
 503 0 l 1,23,-1
 399 0 l 1,24,-1
 399 329 l 2,25,26
 399 462 399 462 307 462 c 0,27,28
 254 462 254 462 216 417 c 128,-1,29
 178 372 178 372 178 309 c 2,30,-1
 178 0 l 1,31,-1
 75 0 l 1,0,-1
EndSplineSet
Substitution2: "'sups' Superscript lookup 5 subtable" uni02B1
Substitution2: "'aalt' Access All Alternates lookup 0 subtable" uni02B1
EndChar

StartChar: uni0267
Encoding: 615 615 539
Width: 568
GlyphClass: 2
Flags: W
LayerCount: 2
Fore
SplineSet
75 0 m 1,0,-1
 75 604 l 2,1,2
 75 688 75 688 125 732 c 128,-1,3
 175 776 175 776 253 776 c 0,4,5
 308 776 308 776 354 770 c 1,6,-1
 354 679 l 1,7,8
 324 684 324 684 271 684 c 0,9,10
 228 684 228 684 203 655 c 128,-1,11
 178 626 178 626 178 584 c 2,12,-1
 178 469 l 1,13,-1
 179 469 l 1,14,15
 201 503 201 503 239.5 527 c 128,-1,16
 278 551 278 551 326 551 c 0,17,18
 358 551 358 551 386 542 c 128,-1,19
 414 533 414 533 442 512 c 128,-1,20
 470 491 470 491 486.5 448 c 128,-1,21
 503 405 503 405 503 343 c 2,22,-1
 503 -31 l 2,23,24
 503 -130 503 -130 461 -178 c 128,-1,25
 419 -226 419 -226 328 -226 c 0,26,27
 310 -226 310 -226 246 -221 c 1,28,-1
 246 -133 l 1,29,30
 286 -137 286 -137 308 -137 c 0,31,32
 357 -137 357 -137 378 -113.5 c 128,-1,33
 399 -90 399 -90 399 -26 c 2,34,-1
 399 329 l 2,35,36
 399 462 399 462 307 462 c 0,37,38
 254 462 254 462 216 416 c 128,-1,39
 178 370 178 370 178 309 c 2,40,-1
 178 0 l 1,41,-1
 75 0 l 1,0,-1
EndSplineSet
EndChar

StartChar: uni0268
Encoding: 616 616 540
Width: 268
GlyphClass: 2
Flags: W
LayerCount: 2
Fore
SplineSet
77 625 m 1,0,-1
 77 745 l 1,1,-1
 193 745 l 1,2,-1
 193 625 l 1,3,-1
 77 625 l 1,0,-1
2 252 m 1,4,-1
 2 338 l 1,5,-1
 83 338 l 1,6,-1
 83 533 l 1,7,-1
 186 533 l 1,8,-1
 186 338 l 1,9,-1
 267 338 l 1,10,-1
 267 252 l 1,11,-1
 186 252 l 1,12,-1
 186 0 l 1,13,-1
 83 0 l 1,14,-1
 83 252 l 1,15,-1
 2 252 l 1,4,-1
EndSplineSet
EndChar

StartChar: uni0269
Encoding: 617 617 541
Width: 332
GlyphClass: 2
Flags: W
LayerCount: 2
Fore
SplineSet
65 155 m 2,0,-1
 65 533 l 1,1,-1
 169 533 l 1,2,-1
 169 161 l 2,3,4
 169 75 169 75 241 75 c 0,5,6
 277 75 277 75 315 80 c 1,7,-1
 315 -9 l 1,8,9
 238 -17 238 -17 220 -17 c 0,10,11
 151 -17 151 -17 108 25 c 128,-1,12
 65 67 65 67 65 155 c 2,0,-1
EndSplineSet
EndChar

StartChar: uni026B
Encoding: 619 619 543
Width: 259
GlyphClass: 2
Flags: W
LayerCount: 2
Fore
SplineSet
-19 347 m 1,0,-1
 -19 436 l 1,1,2
 29 451 29 451 51 451 c 0,3,4
 61 451 61 451 78 448 c 1,5,-1
 78 761 l 1,6,-1
 182 761 l 1,7,-1
 182 429 l 1,8,9
 190 428 190 428 198 428 c 0,10,11
 212 428 212 428 228 430 c 0,12,13
 257 433 257 433 279 442 c 1,14,-1
 279 352 l 1,15,16
 255 342 255 342 229 341 c 0,17,18
 221 340 221 340 212 340 c 0,19,20
 198 340 198 340 182 342 c 1,21,-1
 182 0 l 1,22,-1
 78 0 l 1,23,-1
 78 360 l 1,24,25
 66 362 66 362 51 362 c 0,26,27
 29 362 29 362 -19 347 c 1,0,-1
EndSplineSet
EndChar

StartChar: uni026C
Encoding: 620 620 544
Width: 448
GlyphClass: 2
Flags: W
LayerCount: 2
Fore
SplineSet
36 414 m 0,0,1
 36 464 36 464 69 499 c 128,-1,2
 102 534 102 534 160 534 c 0,3,4
 216 534 216 534 253 498 c 1,5,-1
 253 761 l 1,6,-1
 357 761 l 1,7,-1
 357 360 l 1,8,-1
 462 360 l 1,9,-1
 462 276 l 1,10,-1
 357 276 l 1,11,-1
 357 0 l 1,12,-1
 253 0 l 1,13,-1
 253 276 l 1,14,-1
 209 276 l 2,15,16
 134 276 134 276 85 313.5 c 128,-1,17
 36 351 36 351 36 414 c 0,0,1
128 414 m 0,18,19
 128 391 128 391 148 375.5 c 128,-1,20
 168 360 168 360 197 360 c 2,21,-1
 253 360 l 1,22,-1
 252 381 l 2,23,24
 250 411 250 411 225.5 433.5 c 128,-1,25
 201 456 201 456 172 456 c 0,26,27
 153 456 153 456 140.5 444.5 c 128,-1,28
 128 433 128 433 128 414 c 0,18,19
EndSplineSet
EndChar

StartChar: uni026D
Encoding: 621 621 545
Width: 343
GlyphClass: 2
Flags: W
LayerCount: 2
Fore
SplineSet
77 -55 m 2,0,-1
 77 761 l 1,1,-1
 182 761 l 1,2,-1
 182 -49 l 2,3,4
 182 -135 182 -135 252 -135 c 0,5,6
 276 -135 276 -135 326 -128 c 1,7,-1
 326 -219 l 1,8,9
 250 -227 250 -227 232 -227 c 0,10,11
 163 -227 163 -227 120 -185 c 128,-1,12
 77 -143 77 -143 77 -55 c 2,0,-1
EndSplineSet
EndChar

StartChar: uni026E
Encoding: 622 622 546
Width: 683
GlyphClass: 2
Flags: W
LayerCount: 2
Fore
SplineSet
165 -100 m 1,0,-1
 255 -70 l 1,1,2
 298 -138 298 -138 378 -138 c 0,3,4
 451 -138 451 -138 492 -94.5 c 128,-1,5
 533 -51 533 -51 533 17 c 0,6,7
 533 87 533 87 488 131.5 c 128,-1,8
 443 176 443 176 360 176 c 2,9,-1
 271 176 l 1,10,-1
 271 246 l 1,11,-1
 456 446 l 1,12,-1
 180 446 l 1,13,-1
 180 0 l 1,14,-1
 76 0 l 1,15,-1
 76 761 l 1,16,-1
 180 761 l 1,17,-1
 180 533 l 1,18,-1
 609 533 l 1,19,-1
 609 468 l 1,20,-1
 407 258 l 1,21,-1
 409 252 l 1,22,23
 510 247 510 247 575 180.5 c 128,-1,24
 640 114 640 114 640 17 c 0,25,26
 640 -90 640 -90 569 -158.5 c 128,-1,27
 498 -227 498 -227 383 -227 c 0,28,29
 225 -227 225 -227 165 -100 c 1,0,-1
EndSplineSet
EndChar

